# This file uses centimeters as units for non-parametric coordinates.

mtllib bean.mtl
g default
v 0.062954 0.035880 -0.019155
v -0.062954 0.035880 -0.019155
v -0.109982 0.035880 0.089885
v -0.062954 0.035880 0.159633
v 0.062954 0.035880 0.159633
v 0.109982 0.035880 0.089885
v 0.109040 0.174914 -0.149571
v -0.109040 0.174914 -0.149571
v -0.190494 0.174914 0.039292
v -0.109040 0.174914 0.188863
v 0.109040 0.174914 0.188863
v 0.190494 0.174914 0.039292
v 0.109040 0.554761 -0.149571
v -0.109040 0.554761 -0.149571
v -0.190494 0.554761 0.039292
v -0.109040 0.554761 0.188863
v 0.109040 0.554761 0.188863
v 0.190494 0.554761 0.039292
v 0.062954 0.693794 -0.019155
v -0.062954 0.693794 -0.019155
v -0.109982 0.693794 0.089885
v -0.062954 0.693794 0.159633
v 0.062954 0.693794 0.159633
v 0.109982 0.693794 0.089885
v 0.000000 0.001837 0.104070
v 0.000000 0.727838 0.104070
v 0.117475 0.269885 -0.164181
v 0.117475 0.459789 -0.164181
v -0.117475 0.269885 -0.164181
v -0.117475 0.459789 -0.164181
v -0.205230 0.269885 -0.002744
v -0.205230 0.459789 -0.002744
v -0.117475 0.269885 0.161438
v -0.117475 0.459789 0.161438
v 0.117475 0.269885 0.161438
v 0.117475 0.459789 0.161438
v 0.205230 0.269885 -0.002744
v 0.205230 0.459789 -0.002744
vt 0.000000 0.166667
vt 0.166667 0.166667
vt 0.333333 0.166667
vt 0.500000 0.166667
vt 0.666667 0.166667
vt 0.833333 0.166667
vt 1.000000 0.166667
vt 0.000000 0.333333
vt 1.000000 0.666667
vt 0.000000 0.833333
vt 0.166667 0.833333
vt 0.333333 0.833333
vt 0.500000 0.833333
vt 0.666667 0.833333
vt 0.833333 0.833333
vt 1.000000 0.833333
vt 0.083333 0.000000
vt 0.250000 0.000000
vt 0.416667 0.000000
vt 0.583333 0.000000
vt 0.750000 0.000000
vt 0.916667 0.000000
vt 0.083333 1.000000
vt 0.250000 1.000000
vt 0.416667 1.000000
vt 0.583333 1.000000
vt 0.750000 1.000000
vt 0.916667 1.000000
vt 1.000000 0.416675
vt 0.000000 0.583325
vt 0.166667 0.333333
vt 0.000000 0.416675
vt 0.333333 0.333333
vt 0.166667 0.416675
vt 0.500000 0.333333
vt 0.333333 0.416675
vt 0.666667 0.333333
vt 0.500000 0.416675
vt 0.833333 0.333333
vt 0.666667 0.416675
vt 1.000000 0.333333
vt 0.833333 0.416675
vt 0.166667 0.583325
vt 0.000000 0.666667
vt 0.333333 0.583325
vt 0.166667 0.666667
vt 0.500000 0.583325
vt 0.333333 0.666667
vt 0.666667 0.583325
vt 0.500000 0.666667
vt 0.833333 0.583325
vt 0.666667 0.666667
vt 1.000000 0.583325
vt 0.833333 0.666667
vn 0.385457 -0.738689 -0.552956
vn -0.385457 -0.738689 -0.552957
vn -0.415728 -0.494699 -0.763179
vn 0.415729 -0.494699 -0.763179
vn -0.813441 -0.578036 0.064714
vn -0.944483 -0.328502 0.006120
vn -0.353282 -0.375540 0.856833
vn -0.428993 -0.042879 0.902289
vn 0.353282 -0.375540 0.856833
vn 0.428993 -0.042879 0.902290
vn 0.813441 -0.578036 0.064714
vn 0.944484 -0.328502 0.006120
vn 0.415729 0.494699 -0.763179
vn -0.415728 0.494699 -0.763179
vn -0.385457 0.738689 -0.552956
vn 0.385457 0.738689 -0.552956
vn -0.944483 0.328502 0.006120
vn -0.813441 0.578036 0.064714
vn -0.428993 0.042879 0.902289
vn -0.353282 0.375540 0.856833
vn 0.428993 0.042879 0.902289
vn 0.353282 0.375540 0.856833
vn 0.944484 0.328502 0.006120
vn 0.813441 0.578036 0.064714
vn -0.000000 -0.999297 0.037494
vn -0.000000 0.999297 0.037495
vn 0.459819 -0.072390 -0.885057
vn 0.459819 0.072390 -0.885057
vn 0.998056 0.047867 -0.039927
vn 0.998056 -0.047867 -0.039927
vn -0.459819 -0.072390 -0.885058
vn -0.459819 0.072390 -0.885058
vn -0.998055 -0.047867 -0.039927
vn -0.998055 0.047867 -0.039927
vn -0.470961 0.069493 0.879413
vn -0.470961 -0.069493 0.879413
vn 0.470961 0.069493 0.879413
vn 0.470961 -0.069493 0.879413
s 1
g pSphere1
usemtl initialShadingGroup
f 1/1/1 2/2/2 8/31/3 7/8/4
f 2/2/2 3/3/5 9/33/6 8/31/3
f 3/3/5 4/4/7 10/35/8 9/33/6
f 4/4/7 5/5/9 11/37/10 10/35/8
f 5/5/9 6/6/11 12/39/12 11/37/10
f 6/6/11 1/7/1 7/41/4 12/39/12
f 13/44/13 14/46/14 20/11/15 19/10/16
f 14/46/14 15/48/17 21/12/18 20/11/15
f 15/48/17 16/50/19 22/13/20 21/12/18
f 16/50/19 17/52/21 23/14/22 22/13/20
f 17/52/21 18/54/23 24/15/24 23/14/22
f 18/54/23 13/9/13 19/16/16 24/15/24
f 2/2/2 1/1/1 25/17/25
f 3/3/5 2/2/2 25/18/25
f 4/4/7 3/3/5 25/19/25
f 5/5/9 4/4/7 25/20/25
f 6/6/11 5/5/9 25/21/25
f 1/7/1 6/6/11 25/22/25
f 19/10/16 20/11/15 26/23/26
f 20/11/15 21/12/18 26/24/26
f 21/12/18 22/13/20 26/25/26
f 22/13/20 23/14/22 26/26/26
f 23/14/22 24/15/24 26/27/26
f 24/15/24 19/16/16 26/28/26
f 27/29/27 28/53/28 38/51/29 37/42/30
f 28/30/28 27/32/27 29/34/31 30/43/32
f 30/43/32 29/34/31 31/36/33 32/45/34
f 32/45/34 31/36/33 33/38/35 34/47/36
f 34/47/36 33/38/35 35/40/37 36/49/38
f 36/49/38 35/40/37 37/42/30 38/51/29
f 7/8/4 8/31/3 29/34/31 27/32/27
f 8/31/3 9/33/6 31/36/33 29/34/31
f 9/33/6 10/35/8 33/38/35 31/36/33
f 10/35/8 11/37/10 35/40/37 33/38/35
f 11/37/10 12/39/12 37/42/30 35/40/37
f 12/39/12 7/41/4 27/29/27 37/42/30
f 28/30/28 30/43/32 14/46/14 13/44/13
f 30/43/32 32/45/34 15/48/17 14/46/14
f 32/45/34 34/47/36 16/50/19 15/48/17
f 34/47/36 36/49/38 17/52/21 16/50/19
f 36/49/38 38/51/29 18/54/23 17/52/21
f 38/51/29 28/53/28 13/9/13 18/54/23
