# This file uses centimeters as units for non-parametric coordinates.

mtllib bombrockbottom.mtl
g default
v -0.500000 -0.106881 0.500000
v 0.500000 -0.106881 0.500000
v -0.330362 -0.106881 -0.319361
v 0.500000 -0.106881 -0.500000
v -0.474900 2.053137 0.306103
v 0.291643 2.053137 0.306103
v 0.291643 2.053137 -0.460439
v -0.333665 2.053137 -0.318456
vt 0.375000 0.750000
vt 0.625000 0.750000
vt 0.625000 1.000000
vt 0.375000 1.000000
vt 0.375000 0.000000
vt 0.625000 0.000000
vt 0.625000 0.131091
vt 0.375000 0.131091
vt 0.875000 0.000000
vt 0.875000 0.131091
vt 0.375000 0.618909
vt 0.625000 0.618909
vt 0.125000 0.000000
vt 0.125000 0.131091
vn 0.000000 -1.000000 -0.000000
vn 0.000000 -1.000000 -0.000000
vn 0.000000 -1.000000 -0.000000
vn 0.000000 -1.000000 -0.000000
vn 0.000000 0.089407 0.995995
vn 0.000000 0.089407 0.995995
vn 0.000000 0.089407 0.995995
vn 0.000000 0.089407 0.995995
vn 0.995380 0.096015 0.000000
vn 0.995380 0.096015 0.000000
vn 0.995380 0.096015 0.000000
vn 0.995380 0.096015 0.000000
vn -0.216380 -0.001457 -0.976308
vn -0.216380 -0.001457 -0.976308
vn -0.216380 -0.001457 -0.976308
vn -0.216380 -0.001457 -0.976308
vn -0.977590 -0.004470 -0.210473
vn -0.977589 -0.004470 -0.210473
vn -0.977590 -0.004470 -0.210473
vn -0.977590 -0.004470 -0.210473
vn 0.000000 1.000000 0.000000
vn 0.000000 1.000000 0.000000
vn 0.000000 1.000000 0.000000
vn 0.000000 1.000000 0.000000
s off
g polySurface2 pCube1
usemtl initialShadingGroup
f 3/1/1 4/2/2 2/3/3 1/4/4
f 1/5/5 2/6/6 6/7/7 5/8/8
f 2/6/9 4/9/10 7/10/11 6/7/12
f 8/11/13 7/12/14 4/2/15 3/1/16
f 3/13/17 1/5/18 5/8/19 8/14/20
f 6/7/21 7/12/22 8/14/23 5/8/24
