# This file uses centimeters as units for non-parametric coordinates.

mtllib Mountain2.mtl
g default
v 40.937167 -0.754407 174.207221
v -106.290189 -0.754407 174.207221
v 40.937167 9.788910 174.207221
v -106.290189 9.788910 174.207221
v 40.937167 10.150812 280.708365
v -106.290189 9.788910 280.708365
v 40.937167 -0.754407 280.708365
v -106.290189 -0.754407 280.708365
v 40.937167 9.788910 195.601386
v -106.290189 9.788910 195.601386
v -106.290189 -0.754407 195.601386
v 40.937167 -0.754407 195.601386
v 16.385073 -0.754407 174.207221
v 16.385073 -0.754407 195.601401
v 16.385073 -0.754407 280.708365
v 16.385073 10.150812 280.708365
v 16.385073 9.788910 174.207221
v 10.340273 -0.754407 195.601401
v 10.340273 -0.754407 174.207221
v 10.340273 9.788910 174.207221
v 10.340273 9.788910 280.708365
v 10.340273 -0.754407 280.708365
v -70.722333 -0.754407 195.601386
v -70.722333 -0.754407 174.207221
v -70.722333 9.788910 174.207221
v -70.722333 9.788910 280.708365
v -70.722333 -0.754407 280.708365
v 40.937167 -0.754407 205.667243
v 16.385073 -0.754407 205.667258
v 10.340273 -0.959356 205.667258
v -70.722333 -0.959356 205.667243
v -106.290189 -0.754407 205.667243
v -106.290189 9.788910 205.667228
v 40.937167 9.788910 205.667228
v 40.937167 -0.754407 258.145804
v 16.385073 -0.754407 258.145835
v 10.340273 -0.959356 258.145835
v -70.722333 -0.959356 258.145804
v -106.290189 -0.754407 258.145804
v -106.290189 9.788910 258.145804
v 16.385073 10.150812 258.145804
v 40.937167 10.150812 258.145804
v 16.385073 13.921244 205.667243
v 16.385073 13.921244 195.601386
v 10.340273 13.921244 195.601386
v 16.385073 13.921244 174.207221
v 10.340273 13.921244 174.207221
v 40.937167 13.921244 195.601386
v 40.937167 13.921244 205.667228
v 40.937167 13.921244 174.207221
v -70.722333 13.921244 174.207221
v -70.722333 13.921244 195.601401
v -106.290189 13.921244 174.207221
v -106.290189 13.921244 195.601386
v -106.290189 13.559342 205.667228
v -106.290189 13.559342 258.145804
v 16.385073 13.921244 258.145804
v 40.937167 13.921244 258.145804
v -70.722333 13.559342 280.708365
v -106.290189 13.559342 280.708365
v 10.340273 13.559342 280.708365
v 16.385073 13.559342 280.708365
v 10.340273 24.317748 205.667228
v 16.385073 24.317750 205.667243
v 16.385073 24.317750 195.601386
v 10.340273 24.317750 195.601386
v -70.722318 24.317748 205.667258
v -70.722333 24.317750 195.601401
v -106.290189 24.317750 205.667228
v -106.290189 24.317750 195.601386
v -106.290189 24.317750 258.145804
v -70.722333 24.317748 258.145835
v 10.340273 24.317748 258.145804
v 16.385073 24.317750 258.145804
v -70.722333 24.317750 280.708365
v -106.290189 24.317750 280.708365
v 10.340273 24.317750 280.708365
v 16.385073 24.317750 280.708365
v -70.722333 37.674845 258.145835
v 10.340273 37.674845 258.145804
v 10.340273 37.674845 205.667228
v -70.722318 37.674845 205.667258
v 10.340273 37.674849 280.708365
v -70.722333 37.674849 280.708365
vt 0.416691 0.250000
vt 0.416691 0.000000
vt 0.426955 0.000000
vt 0.426955 0.250000
vt 0.426955 0.323849
vt 0.416691 0.323849
vt 0.416691 0.300220
vt 0.426955 0.300220
vt 0.416691 0.750000
vt 0.416691 0.500000
vt 0.426955 0.500000
vt 0.426955 0.750000
vt 0.416691 0.949780
vt 0.416691 0.926151
vt 0.426955 0.926151
vt 0.426955 0.949780
vt 0.675220 0.250000
vt 0.675220 0.000000
vt 0.698849 0.000000
vt 0.698849 0.250000
vt 0.301151 0.250000
vt 0.301151 0.000000
vt 0.324779 0.000000
vt 0.324779 0.250000
vt 0.416691 0.300220
vt 0.416691 0.250000
vt 0.426955 0.250000
vt 0.426955 0.300220
vt 0.625000 0.000000
vt 0.625000 0.250000
vt 0.416691 1.000000
vt 0.426955 1.000000
vt 0.375000 0.000000
vt 0.375000 0.250000
vt 0.375000 0.949780
vt 0.375000 1.000000
vt 0.375000 0.926151
vt 0.375000 0.500000
vt 0.375000 0.750000
vt 0.375000 0.300220
vt 0.416691 0.323849
vt 0.375000 0.323849
vt 0.375000 0.250000
vt 0.564604 0.949780
vt 0.564604 1.000000
vt 0.564604 0.000000
vt 0.564604 0.250000
vt 0.564604 0.250000
vt 0.564604 0.300220
vt 0.564604 0.323849
vt 0.564604 0.300220
vt 0.564604 0.500000
vt 0.564604 0.750000
vt 0.564604 0.926151
vt 0.625000 0.949780
vt 0.625000 1.000000
vt 0.625000 0.250000
vt 0.625000 0.300220
vt 0.625000 0.323849
vt 0.625000 0.300220
vt 0.625000 0.500000
vt 0.625000 0.750000
vt 0.625000 0.926151
vt 0.375000 0.802963
vt 0.416691 0.802963
vt 0.426955 0.802963
vt 0.564604 0.802963
vt 0.625000 0.802963
vt 0.822037 0.000000
vt 0.822037 0.250000
vt 0.625000 0.447037
vt 0.564604 0.447037
vt 0.564604 0.447037
vt 0.426955 0.447037
vt 0.426955 0.323849
vt 0.564604 0.323849
vt 0.426955 0.447037
vt 0.416691 0.447037
vt 0.416691 0.447037
vt 0.375000 0.447037
vt 0.177963 0.250000
vt 0.177963 0.000000
vt 0.875000 0.000000
vt 0.875000 0.250000
vt 0.564604 0.500000
vt 0.625000 0.500000
vt 0.426955 0.500000
vt 0.564604 0.500000
vt 0.416691 0.500000
vt 0.426955 0.500000
vt 0.375000 0.447037
vt 0.416691 0.447037
vt 0.125000 0.000000
vt 0.125000 0.250000
vt 0.375000 0.323849
vt 0.375000 0.300220
vt 0.625000 0.300220
vt 0.625000 0.323849
vt 0.625000 0.323849
vt 0.625000 0.447037
vt 0.625000 0.447037
vt 0.625000 0.500000
vt 0.564604 0.500000
vt 0.426955 0.500000
vt 0.416691 0.500000
vn 0.000000 0.000000 -1.000000
vn 0.000000 0.000000 -1.000000
vn 0.000000 0.000000 -1.000000
vn 0.000000 0.000000 -1.000000
vn 0.000000 1.000000 0.000000
vn 0.000000 1.000000 0.000000
vn 0.000000 1.000000 0.000000
vn 0.000000 1.000000 0.000000
vn -0.000000 0.000000 1.000000
vn -0.000000 0.000000 1.000000
vn -0.000000 0.000000 1.000000
vn -0.000000 0.000000 1.000000
vn 0.001072 -0.999999 -0.000644
vn 0.006159 -0.999981 -0.000324
vn 0.002163 -0.999993 -0.003163
vn 0.000376 -0.999980 -0.006288
vn -1.000000 0.000000 -0.000000
vn -1.000000 0.000000 -0.000000
vn -1.000000 -0.000001 -0.000000
vn -1.000000 -0.000001 -0.000000
vn 1.000000 0.000000 0.000000
vn 1.000000 0.000000 0.000000
vn 1.000000 0.000000 0.000000
vn 1.000000 0.000000 0.000000
vn 0.000000 1.000000 0.000000
vn 0.000000 1.000000 0.000000
vn 0.000000 1.000000 0.000000
vn 0.000000 1.000000 0.000000
vn -1.000000 0.000000 -0.000000
vn -1.000000 0.000000 -0.000000
vn -1.000000 0.000000 -0.000000
vn -1.000000 0.000000 -0.000000
vn 0.000000 -1.000000 0.000000
vn 0.001072 -0.999999 -0.000644
vn 0.000376 -0.999980 -0.006288
vn 0.000000 -1.000000 0.000000
vn 1.000000 0.000000 0.000000
vn 1.000000 0.000000 0.000000
vn 1.000000 0.000000 0.000000
vn 1.000000 0.000000 0.000000
vn 0.000000 -1.000000 0.000000
vn 0.001072 -0.999999 -0.000644
vn 0.000000 -1.000000 0.000000
vn 0.000000 -1.000000 0.000000
vn 0.000000 -1.000000 0.000000
vn 0.006159 -0.999981 -0.000324
vn 0.001072 -0.999999 -0.000644
vn 0.000000 -1.000000 0.000000
vn -0.000000 0.000000 1.000000
vn -0.000000 0.000000 1.000000
vn -0.000000 0.000000 1.000000
vn -0.000000 0.000000 1.000000
vn 0.000000 1.000000 0.000000
vn 0.000000 1.000000 0.000000
vn 0.000000 1.000000 0.000000
vn 0.000000 1.000000 0.000000
vn 0.000000 1.000000 0.000000
vn 0.000000 1.000000 0.000000
vn 0.000000 1.000000 0.000000
vn 0.000000 1.000000 0.000000
vn 0.000000 0.000000 -1.000000
vn 0.000000 0.000000 -1.000000
vn 0.000000 0.000000 -1.000000
vn 0.000000 0.000000 -1.000000
vn 0.000000 -1.000000 0.000000
vn 0.000376 -0.999980 -0.006288
vn -0.000281 -0.999985 -0.005521
vn 0.000000 -1.000000 0.000000
vn 0.000000 0.000000 -1.000000
vn 0.000000 0.000000 -1.000000
vn 0.000000 0.000000 -1.000000
vn 0.000000 0.000000 -1.000000
vn 0.000000 1.000000 0.000000
vn 0.000000 1.000000 0.000000
vn 0.000000 1.000000 0.000000
vn 0.000000 1.000000 0.000000
vn 0.000000 1.000000 0.000000
vn 0.000000 1.000000 0.000000
vn 0.000000 1.000000 0.000000
vn 0.000000 1.000000 0.000000
vn -0.000000 0.000000 1.000000
vn -0.000000 0.000000 1.000000
vn -0.000000 0.000000 1.000000
vn -0.000000 0.000000 1.000000
vn 0.000376 -0.999980 -0.006288
vn 0.002163 -0.999993 -0.003163
vn -0.001616 -0.999995 -0.002777
vn -0.000281 -0.999985 -0.005521
vn 0.000000 -1.000000 0.000000
vn -0.000281 -0.999985 -0.005521
vn -0.000922 -0.999994 -0.003257
vn 0.000000 -1.000000 0.000000
vn 0.000000 0.000000 -1.000000
vn 0.000000 0.000000 -1.000000
vn 0.000000 0.000000 -1.000000
vn 0.000000 0.000000 -1.000000
vn 0.000000 1.000000 0.000000
vn 0.000000 1.000000 0.000000
vn 0.000000 1.000000 0.000000
vn 0.000000 1.000000 0.000000
vn 0.000000 1.000000 0.000000
vn 0.000000 1.000000 0.000000
vn 0.000000 1.000000 0.000000
vn 0.000000 1.000000 0.000000
vn -0.000000 0.000000 1.000000
vn -0.000000 0.000000 1.000000
vn -0.000000 0.000000 1.000000
vn -0.000000 0.000000 1.000000
vn -0.000281 -0.999985 -0.005521
vn -0.001616 -0.999995 -0.002777
vn -0.005298 -0.999985 -0.001638
vn -0.000922 -0.999994 -0.003257
vn 0.000000 -1.000000 0.000000
vn 0.005691 -0.999984 0.000270
vn 0.006159 -0.999981 -0.000324
vn 0.000000 -1.000000 0.000000
vn 0.002163 -0.999993 -0.003163
vn 0.006159 -0.999981 -0.000324
vn 0.005691 -0.999984 0.000270
vn 0.001999 -0.999995 0.002636
vn -0.001616 -0.999995 -0.002777
vn 0.002163 -0.999993 -0.003163
vn 0.001999 -0.999995 0.002636
vn -0.001493 -0.999996 0.002315
vn -0.005298 -0.999985 -0.001638
vn -0.001616 -0.999995 -0.002777
vn -0.001493 -0.999996 0.002315
vn -0.004896 -0.999987 0.001366
vn -1.000000 -0.000001 -0.000000
vn -1.000000 -0.000001 -0.000000
vn -1.000000 -0.000001 -0.000000
vn -1.000000 0.000000 -0.000000
vn 0.000000 1.000000 0.000000
vn 0.000000 1.000000 0.000000
vn 0.000000 1.000000 0.000000
vn 0.000000 1.000000 0.000000
vn 0.000000 1.000000 0.000000
vn 0.000000 1.000000 0.000000
vn 0.000000 1.000000 0.000000
vn 0.000000 1.000000 0.000000
vn 0.000000 1.000000 0.000000
vn 0.000000 1.000000 0.000000
vn 0.000000 1.000000 0.000000
vn 0.000000 1.000000 0.000000
vn 0.000000 1.000000 0.000000
vn 0.000000 1.000000 0.000000
vn 0.000000 1.000000 0.000000
vn 0.000000 1.000000 0.000000
vn 1.000000 0.000000 0.000000
vn 1.000000 0.000000 0.000000
vn 1.000000 0.000000 0.000000
vn 1.000000 0.000000 0.000000
vn 0.000000 -1.000000 0.000000
vn 0.003349 -0.999994 0.000897
vn 0.005691 -0.999984 0.000270
vn 0.000000 -1.000000 0.000000
vn 0.001999 -0.999995 0.002636
vn 0.005691 -0.999984 0.000270
vn 0.003349 -0.999994 0.000897
vn 0.001176 -0.999961 0.008768
vn -0.001493 -0.999996 0.002315
vn 0.001999 -0.999995 0.002636
vn 0.001176 -0.999961 0.008768
vn -0.000879 -0.999970 0.007698
vn -0.004896 -0.999987 0.001366
vn -0.001493 -0.999996 0.002315
vn -0.000879 -0.999970 0.007698
vn -0.002881 -0.999986 0.004542
vn -1.000000 0.000000 -0.000000
vn -1.000000 -0.000001 -0.000000
vn -1.000000 0.000000 -0.000000
vn -1.000000 0.000000 -0.000000
vn 0.000000 1.000000 0.000000
vn 0.000000 1.000000 0.000000
vn 0.000000 1.000000 0.000000
vn 0.000000 1.000000 0.000000
vn 0.000000 1.000000 0.000000
vn 0.000000 1.000000 0.000000
vn 0.000000 1.000000 0.000000
vn 0.000000 1.000000 0.000000
vn 0.000000 1.000000 0.000000
vn 0.000000 1.000000 0.000000
vn 0.000000 1.000000 0.000000
vn 0.000000 1.000000 0.000000
vn 0.000000 1.000000 0.000000
vn 0.000000 1.000000 0.000000
vn 0.000000 1.000000 0.000000
vn 0.000000 1.000000 0.000000
vn 1.000000 0.000000 0.000000
vn 1.000000 0.000000 0.000000
vn 1.000000 0.000000 0.000000
vn 1.000000 0.000000 0.000000
vn 0.000000 0.000000 -1.000000
vn 0.000000 0.000000 -1.000000
vn 0.000000 0.000000 -1.000000
vn 0.000000 0.000000 -1.000000
vn 1.000000 0.000000 0.000000
vn 1.000000 0.000000 0.000000
vn 1.000000 0.000000 0.000000
vn 1.000000 0.000000 0.000000
vn 0.000000 0.000000 -1.000000
vn 0.000000 0.000000 -1.000000
vn 0.000000 0.000000 -1.000000
vn 0.000000 0.000000 -1.000000
vn 1.000000 0.000000 0.000000
vn 1.000000 0.000000 0.000000
vn 1.000000 0.000000 0.000000
vn 1.000000 0.000000 0.000000
vn 0.000000 0.000000 -1.000000
vn 0.000000 0.000000 -1.000000
vn 0.000000 0.000000 -1.000000
vn 0.000000 0.000000 -1.000000
vn 0.000000 0.000000 -1.000000
vn 0.000000 0.000000 -1.000000
vn 0.000000 0.000000 -1.000000
vn 0.000000 0.000000 -1.000000
vn -1.000000 0.000000 -0.000000
vn -1.000000 0.000000 -0.000000
vn -1.000000 0.000000 -0.000000
vn -1.000000 0.000000 -0.000000
vn -1.000000 0.000000 -0.000000
vn -1.000000 -0.000001 -0.000000
vn -1.000000 0.000000 -0.000000
vn -1.000000 0.000000 -0.000000
vn -1.000000 -0.000001 -0.000000
vn -1.000000 0.000000 -0.000000
vn -1.000000 0.000000 -0.000000
vn -1.000000 0.000000 -0.000000
vn -0.000000 0.000000 1.000000
vn -0.000000 0.000000 1.000000
vn -0.000000 0.000000 1.000000
vn -0.000000 0.000000 1.000000
vn 1.000000 0.000000 0.000000
vn 1.000000 0.000000 0.000000
vn 1.000000 0.000000 0.000000
vn 1.000000 0.000000 0.000000
vn -1.000000 0.000000 -0.000000
vn -1.000000 0.000000 -0.000000
vn -1.000000 0.000000 -0.000000
vn -1.000000 0.000000 -0.000000
vn -0.000000 0.000000 1.000000
vn -0.000000 0.000000 1.000000
vn -0.000000 0.000000 1.000000
vn -0.000000 0.000000 1.000000
vn -0.000000 0.000000 1.000000
vn -0.000000 0.000000 1.000000
vn -0.000000 0.000000 1.000000
vn -0.000000 0.000000 1.000000
vn 1.000000 0.000000 0.000000
vn 1.000000 0.000000 0.000000
vn 1.000000 0.000000 0.000000
vn 1.000000 0.000000 0.000000
vn -0.000000 0.000000 1.000000
vn -0.000000 0.000000 1.000000
vn -0.000000 0.000000 1.000000
vn -0.000000 0.000000 1.000000
vn 1.000000 0.000000 0.000000
vn 1.000000 0.000000 0.000000
vn 1.000000 0.000000 0.000000
vn 1.000000 0.000000 0.000000
vn 0.000000 0.000000 -1.000000
vn 0.000000 0.000000 -1.000000
vn 0.000000 0.000000 -1.000000
vn 0.000000 0.000000 -1.000000
vn 0.000000 0.000000 -1.000000
vn 0.000000 0.000000 -1.000000
vn 0.000000 0.000000 -1.000000
vn 0.000000 0.000000 -1.000000
vn 0.000000 0.000000 -1.000000
vn 0.000001 0.000000 -1.000000
vn 0.000001 0.000000 -1.000000
vn 0.000000 0.000000 -1.000000
vn -1.000000 0.000000 -0.000000
vn -1.000000 0.000000 -0.000000
vn -1.000000 0.000000 -0.000000
vn -1.000000 0.000000 -0.000000
vn -1.000000 0.000000 -0.000000
vn -1.000000 0.000000 -0.000000
vn -1.000000 0.000000 -0.000000
vn -1.000000 0.000000 -0.000000
vn 1.000000 0.000000 0.000000
vn 1.000000 0.000000 0.000000
vn 1.000000 0.000000 0.000000
vn 1.000000 0.000000 0.000000
vn -1.000000 0.000000 -0.000000
vn -1.000000 0.000000 -0.000000
vn -1.000000 0.000000 -0.000000
vn -1.000000 0.000000 -0.000000
vn -0.000000 0.000000 1.000000
vn -0.000000 0.000000 1.000000
vn -0.000000 0.000000 1.000000
vn -0.000000 0.000000 1.000000
vn -0.000000 0.000000 1.000000
vn -0.000000 0.000000 1.000000
vn -0.000000 0.000000 1.000000
vn -0.000000 0.000000 1.000000
vn 1.000000 0.000000 0.000000
vn 1.000000 0.000000 0.000000
vn 1.000000 0.000000 0.000000
vn 1.000000 0.000000 0.000000
vn -0.000000 0.000000 1.000000
vn -0.000000 0.000000 1.000000
vn -0.000000 0.000000 1.000000
vn -0.000000 0.000000 1.000000
vn 1.000000 0.000000 0.000000
vn 1.000000 0.000000 0.000000
vn 1.000000 0.000000 0.000000
vn 1.000000 0.000000 0.000000
vn 0.000000 0.000000 -1.000000
vn 0.000000 0.000000 -1.000000
vn 0.000000 0.000000 -1.000000
vn 0.000000 0.000000 -1.000000
vn -1.000000 0.000000 -0.000000
vn -1.000000 0.000000 -0.000000
vn -1.000000 0.000000 -0.000000
vn -1.000000 0.000000 -0.000000
vn 1.000000 0.000000 0.000000
vn 1.000000 0.000000 0.000000
vn 1.000000 0.000000 0.000000
vn 1.000000 0.000000 0.000000
vn -1.000000 0.000000 -0.000000
vn -1.000000 0.000000 -0.000000
vn -1.000000 0.000000 -0.000000
vn -1.000000 0.000000 -0.000000
vn -0.000000 0.000000 1.000000
vn -0.000000 0.000000 1.000000
vn -0.000000 0.000000 1.000000
vn -0.000000 0.000000 1.000000
s off
g Mountain2 polySurface23
usemtl test3:initialShadingGroup
f 17/1/1 13/2/2 19/3/3 20/4/4
f 63/5/5 64/6/6 65/7/7 66/8/8
f 15/9/9 16/10/10 21/11/11 22/12/12
f 14/13/13 29/14/14 30/15/15 18/16/16
f 10/17/17 11/18/18 32/19/19 33/20/20
f 34/21/21 28/22/22 12/23/23 9/24/24
f 44/25/25 46/26/26 47/27/27 45/28/28
f 2/29/29 11/18/30 10/17/31 4/30/32
f 13/31/33 14/13/34 18/16/35 19/32/36
f 9/24/37 12/23/38 1/33/39 3/34/40
f 12/35/41 14/13/42 13/31/43 1/36/44
f 28/37/45 29/14/46 14/13/47 12/35/48
f 5/38/49 16/10/50 15/9/51 7/39/52
f 48/40/53 44/25/54 43/41/55 49/42/56
f 50/43/57 46/26/58 44/25/59 48/40/60
f 1/33/61 13/2/62 17/1/63 3/34/64
f 19/32/65 18/16/66 23/44/67 24/45/68
f 20/4/69 19/3/70 24/46/71 25/47/72
f 45/28/73 47/27/74 51/48/75 52/49/76
f 67/50/77 63/5/78 66/8/79 68/51/80
f 22/12/81 21/11/82 26/52/83 27/53/84
f 18/16/85 30/15/86 31/54/87 23/44/88
f 24/45/89 23/44/90 11/55/91 2/56/92
f 25/47/93 24/46/94 2/29/95 4/30/96
f 52/49/97 51/48/98 53/57/99 54/58/100
f 69/59/101 67/50/102 68/51/103 70/60/104
f 27/53/105 26/52/106 6/61/107 8/62/108
f 23/44/109 31/54/110 32/63/111 11/55/112
f 35/64/113 36/65/114 29/14/115 28/37/116
f 30/15/117 29/14/118 36/65/119 37/66/120
f 31/54/121 30/15/122 37/66/123 38/67/124
f 32/63/125 31/54/126 38/67/127 39/68/128
f 33/20/129 32/19/130 39/69/131 40/70/132
f 71/71/133 72/72/134 67/50/135 69/59/136
f 79/73/137 80/74/138 81/75/139 82/76/140
f 73/77/141 74/78/142 64/6/143 63/5/144
f 49/42/145 43/41/146 57/79/147 58/80/148
f 42/81/149 35/82/150 28/22/151 34/21/152
f 7/39/153 15/9/154 36/65/155 35/64/156
f 37/66/157 36/65/158 15/9/159 22/12/160
f 38/67/161 37/66/162 22/12/163 27/53/164
f 39/68/165 38/67/166 27/53/167 8/62/168
f 40/70/169 39/69/170 8/83/171 6/84/172
f 75/85/173 72/72/174 71/71/175 76/86/176
f 83/87/177 80/74/178 79/73/179 84/88/180
f 78/89/181 74/78/182 73/77/183 77/90/184
f 42/91/185 41/92/186 16/10/187 5/38/188
f 7/93/189 35/82/190 42/81/191 5/94/192
f 17/1/193 20/4/194 47/27/195 46/26/196
f 34/95/197 9/96/198 48/40/199 49/42/200
f 3/34/201 17/1/202 46/26/203 50/43/204
f 9/96/205 3/34/206 50/43/207 48/40/208
f 20/4/209 25/47/210 51/48/211 47/27/212
f 25/47/213 4/30/214 53/57/215 51/48/216
f 4/30/217 10/97/218 54/58/219 53/57/220
f 10/97/221 33/98/222 55/99/223 54/58/224
f 33/98/225 40/100/226 56/101/227 55/99/228
f 41/92/229 42/91/230 58/80/231 57/79/232
f 42/91/233 34/95/234 49/42/235 58/80/236
f 40/100/237 6/61/238 60/102/239 56/101/240
f 6/61/241 26/52/242 59/103/243 60/102/244
f 26/52/245 21/11/246 61/104/247 59/103/248
f 16/10/249 41/92/250 57/79/251 62/105/252
f 21/11/253 16/10/254 62/105/255 61/104/256
f 43/41/257 44/25/258 65/7/259 64/6/260
f 44/25/261 45/28/262 66/8/263 65/7/264
f 45/28/265 52/49/266 68/51/267 66/8/268
f 52/49/269 54/58/270 70/60/271 68/51/272
f 54/58/273 55/99/274 69/59/275 70/60/276
f 55/99/277 56/101/278 71/71/279 69/59/280
f 57/79/281 43/41/282 64/6/283 74/78/284
f 56/101/285 60/102/286 76/86/287 71/71/288
f 60/102/289 59/103/290 75/85/291 76/86/292
f 59/103/293 61/104/294 77/90/295 75/85/296
f 62/105/297 57/79/298 74/78/299 78/89/300
f 61/104/301 62/105/302 78/89/303 77/90/304
f 73/77/305 63/5/306 81/75/307 80/74/308
f 63/5/309 67/50/310 82/76/311 81/75/312
f 67/50/313 72/72/314 79/73/315 82/76/316
f 77/90/317 73/77/318 80/74/319 83/87/320
f 72/72/321 75/85/322 84/88/323 79/73/324
f 75/85/325 77/90/326 83/87/327 84/88/328
