# This file uses centimeters as units for non-parametric coordinates.

mtllib Start1.mtl
g default
v 40.940887 -0.754407 -27.468353
v -39.059113 -0.754407 -27.468353
v 40.940887 0.045593 -27.468353
v -39.059113 0.045593 -27.468353
v 40.940887 0.045593 36.531647
v -39.059113 0.045593 36.531647
v 40.940887 -0.754407 36.531647
v -39.059113 -0.754407 36.531647
v 40.940887 0.019532 -12.082703
v -39.059113 0.045593 -12.082703
v -39.059113 -0.754407 -12.082703
v 40.940887 -0.754407 -12.082703
v 40.680107 2.653651 -27.207573
v 40.864506 2.577270 -27.391972
v 40.940887 2.392871 -27.468353
v -38.798332 2.653651 -27.207573
v -38.982731 2.577270 -27.391972
v -39.059113 2.392871 -27.468353
v -38.798332 2.653651 -12.343482
v -38.982731 2.577270 -12.159083
v -39.059113 2.392871 -12.082703
v 40.680107 2.653651 -12.343482
v 40.864506 2.577270 -12.159083
v 40.940887 2.392871 -12.082703
vt 0.974378 0.336643
vt 0.968867 0.336643
vt 0.968867 0.001771
vt 0.974378 0.001771
vt 0.968867 0.442624
vt 0.974378 0.442624
vt 0.990547 0.336643
vt 0.990547 0.442624
vt 0.991817 0.442098
vt 0.991817 0.337169
vt 0.975058 0.887468
vt 0.975058 0.552597
vt 0.980389 0.552597
vt 0.980569 0.887468
vt 0.975058 0.446615
vt 0.980569 0.446615
vt 0.996738 0.446615
vt 0.996738 0.552597
vt 0.998008 0.447142
vt 0.998008 0.552070
vt 0.366292 0.001771
vt 0.366292 0.552837
vt 0.031421 0.552837
vt 0.031421 0.001771
vt 0.825034 0.001771
vt 0.825034 0.552837
vt 0.490163 0.552837
vt 0.490163 0.001771
vt 0.384182 0.552837
vt 0.384182 0.001771
vt 0.961436 0.003042
vt 0.961436 0.550514
vt 0.859047 0.550514
vt 0.859047 0.003042
vt 0.962706 0.001771
vt 0.962706 0.551785
vt 0.857777 0.551785
vt 0.857777 0.001771
vt 0.024942 0.001772
vt 0.024942 0.552837
vt 0.019431 0.552837
vt 0.019431 0.001772
vt 0.003262 0.552837
vt 0.003262 0.001772
vt 0.001992 0.002298
vt 0.001992 0.552311
vt 0.377999 0.001771
vt 0.377999 0.552837
vt 0.372488 0.552837
vt 0.372488 0.001771
vt 0.832620 0.552837
vt 0.832441 0.001771
vt 0.848789 0.001771
vt 0.848789 0.552837
vt 0.850059 0.552311
vt 0.850059 0.002298
vn 0.000000 0.000000 -1.000000
vn 0.000000 0.000000 -1.000000
vn 0.000000 0.000000 -1.000000
vn 0.000000 0.000000 -1.000000
vn 0.000000 1.000000 0.000000
vn 0.000000 1.000000 0.000000
vn 0.000000 1.000000 0.000000
vn 0.000000 1.000000 0.000000
vn -0.000000 0.000000 1.000000
vn -0.000000 0.000000 1.000000
vn -0.000000 0.000000 1.000000
vn -0.000000 0.000000 1.000000
vn 0.000000 -1.000000 0.000000
vn 0.000000 -1.000000 0.000000
vn 0.000000 -1.000000 0.000000
vn 0.000000 -1.000000 0.000000
vn -1.000000 0.000000 -0.000000
vn -1.000000 0.000000 -0.000000
vn -1.000000 0.000000 -0.000000
vn -1.000000 0.000000 -0.000000
vn 1.000000 0.000000 0.000000
vn 1.000000 0.000000 0.000000
vn 1.000000 0.000000 0.000000
vn 1.000000 0.000000 0.000000
vn -1.000000 0.000000 -0.000000
vn -1.000000 0.000000 -0.000000
vn -1.000000 0.000000 -0.000000
vn -1.000000 0.000000 -0.000000
vn 0.000000 -1.000000 0.000000
vn 0.000000 -1.000000 0.000000
vn 0.000000 -1.000000 0.000000
vn 0.000000 -1.000000 0.000000
vn 1.000000 0.000000 0.000000
vn 1.000000 0.000000 0.000000
vn 1.000000 0.000000 0.000000
vn 1.000000 0.000000 0.000000
vn 0.001404 0.999971 -0.007434
vn -0.001404 0.999971 -0.007434
vn -0.001404 0.999971 0.007434
vn 0.001404 0.999971 0.007434
vn 0.000000 0.023522 -0.999723
vn 0.000000 0.023522 -0.999723
vn -0.999725 0.023433 0.000000
vn -0.999725 0.023433 0.000000
vn 0.000000 0.000000 1.000000
vn 0.000000 0.000000 1.000000
vn 0.000000 0.023399 0.999726
vn 0.000000 0.023399 0.999726
vn 0.999728 0.023310 0.000000
vn 0.999728 0.023310 0.000000
vn 0.000000 0.923879 -0.382685
vn 0.000000 0.923879 -0.382685
vn 0.000000 0.382688 -0.923878
vn 0.000000 0.382688 -0.923878
vn -0.382694 0.923875 0.000000
vn -0.382694 0.923875 0.000000
vn -0.923875 0.382695 0.000000
vn -0.923875 0.382695 0.000000
vn 0.000000 0.923879 0.382685
vn 0.000000 0.923879 0.382685
vn 0.000000 0.382684 0.923879
vn 0.000000 0.382684 0.923879
vn 0.923882 0.382678 0.000000
vn 0.923882 0.382678 0.000000
vn 0.382687 0.923878 0.000000
vn 0.382687 0.923878 0.000000
s 1
g Start polySurface73
usemtl lambert2SG
f 1/39/1 2/40/2 4/41/3 3/42/4
s off
f 9/21/5 10/22/6 6/23/7 5/24/8
f 5/47/9 6/48/10 8/49/11 7/50/12
f 7/25/13 8/26/14 11/27/15 12/28/16
f 10/1/17 11/2/18 8/3/19 6/4/20
f 7/11/21 12/12/22 9/13/23 5/14/24
s 2
f 2/5/25 11/2/26 10/1/27 4/6/28
s off
f 12/28/29 11/27/30 2/29/31 1/30/32
s 3
f 9/13/33 12/12/34 1/15/35 3/16/36
s 4
f 13/31/37 16/32/38 19/33/39 22/34/40
s 1
f 3/42/4 4/41/3 18/43/41 15/44/42
s 2
f 4/6/28 10/1/27 21/7/43 18/8/44
s 5
f 10/51/45 9/52/46 24/53/47 21/54/48
s 3
f 9/13/33 3/16/36 15/17/49 24/18/50
s 4
f 13/31/37 14/35/51 17/36/52 16/32/38
s 1
f 14/45/53 15/44/42 18/43/41 17/46/54
s 4
f 16/32/38 17/36/55 20/37/56 19/33/39
s 2
f 17/9/57 18/8/44 21/7/43 20/10/58
s 4
f 19/33/39 20/37/59 23/38/60 22/34/40
s 5
f 20/55/61 21/54/48 24/53/47 23/56/62
s 3
f 15/17/49 14/19/63 23/20/64 24/18/50
s 4
f 14/35/65 13/31/37 22/34/40 23/38/66
