# This file uses centimeters as units for non-parametric coordinates.

mtllib ThePitB1.mtl
g default
v -163.888824 -28.868780 -27.454773
v -311.116180 -28.868780 -27.454773
v -163.888824 -28.068781 -27.454773
v -311.116180 -28.068781 -27.454773
v -163.888824 -28.068781 36.737564
v -311.116180 -28.068781 36.737564
v -163.888824 -28.868780 36.737564
v -311.116180 -28.868780 36.737564
v -216.155869 -28.868782 -27.454773
v -216.155853 -28.868780 36.737579
v -216.155853 -28.068781 36.737579
v -216.155853 -28.068781 -27.454773
v -222.012543 -28.068781 -27.454773
v -222.012543 -28.068781 36.737579
v -222.012543 -28.868780 36.737579
v -222.012543 -28.868782 -27.454773
v -285.566681 -28.068781 -27.454773
v -285.566681 -28.068781 36.737564
v -285.566681 -28.868780 36.737564
v -285.566681 -28.868780 -27.454773
v -308.554047 -28.068781 -27.454773
v -308.554047 -28.068781 36.737564
v -308.554047 -28.868780 36.737564
v -308.554047 -28.868780 -27.454773
v -311.116180 -28.068781 34.070190
v -311.116180 -28.868780 34.070190
v -308.554047 -28.868780 34.070190
v -285.566681 -28.868780 34.070190
v -222.012543 -28.868780 34.070190
v -216.155853 -28.868780 34.070190
v -163.888824 -28.868780 34.070190
v -163.888809 -28.068781 34.070190
v -216.155853 -28.068781 34.070190
v -222.012543 -28.068781 34.070190
v -285.566681 -28.068781 34.070190
v -167.044708 -28.868780 -27.454773
v -167.044708 -28.868780 34.070190
v -167.044708 -28.868780 36.737564
v -167.044708 -28.068781 36.737564
v -167.044708 -28.068781 -27.454773
v -194.815491 -28.868780 36.737564
v -194.815491 -28.868780 34.070190
v -194.815491 -28.868780 -27.454773
v -194.815491 -28.068781 -27.454773
v -194.815475 -28.068781 34.070190
v -194.815491 -28.068781 36.737564
v -216.155853 -22.817598 36.737579
v -222.012543 -22.817598 36.737579
v -167.044708 -22.817598 36.737564
v -194.815475 -22.817598 34.070190
v -194.815491 -22.817598 36.737564
v -285.566681 -22.817598 34.070190
v -285.566681 -22.817598 36.737564
v -308.554047 -22.817598 36.737564
v -311.116180 -22.817598 34.070190
v -311.116180 -22.817598 36.737564
v -167.044708 -22.817598 -27.454773
v -194.815491 -22.817598 -27.454773
v -285.566681 -22.817598 -27.454773
v -308.554047 -22.817598 -27.454773
v -311.116180 -22.817598 -27.454773
v -163.888809 -22.817598 34.070190
v -163.888824 -22.817598 36.737564
v -163.888824 -22.817598 -27.454773
v -216.155853 -1.015091 36.737579
v -216.155853 -1.015091 34.070190
v -222.012543 -1.015092 34.070190
v -222.012543 -1.015092 36.737579
v -167.044708 -1.015092 36.737564
v -167.044693 -1.015092 34.070190
v -194.815475 -1.015091 34.070190
v -194.815491 -1.015091 36.737564
v -285.566681 -1.015091 34.070190
v -285.566681 -1.015091 36.737564
v -308.554047 -1.015092 34.070190
v -308.554047 -1.015091 36.737564
v -311.116180 -1.015092 34.070190
v -311.116180 -1.015092 36.737564
v -167.044708 -1.015092 -27.454773
v -194.815491 -1.015092 -27.454773
v -285.566681 -1.015090 -27.454773
v -308.554047 -1.015091 -27.454773
v -311.116180 -1.015092 -27.454773
v -163.888809 -1.015092 34.070190
v -163.888824 -1.015092 36.737564
v -163.888824 -1.015092 -27.454773
v -216.155853 -22.442711 34.070190
v -215.780960 -22.817598 34.070190
v -216.155853 -23.256805 34.070190
v -216.284500 -22.946239 34.070190
v -216.595062 -22.817598 34.070190
v -216.595062 -22.817598 -27.015566
v -216.284500 -22.946239 -27.326132
v -216.155853 -23.256805 -27.454773
v -221.573334 -22.817598 -27.015566
v -221.883896 -22.946239 -27.326132
v -222.012543 -23.256805 -27.454773
v -222.012543 -22.442711 34.070190
v -221.573334 -22.817598 34.070190
v -221.883896 -22.946239 34.070190
v -222.012543 -23.256805 34.070190
v -222.387436 -22.817598 34.070190
v -216.155853 -22.817598 34.070190
v -222.012543 -22.817598 34.070190
vt 0.878034 0.420154
vt 0.874487 0.420154
vt 0.874487 0.408325
vt 0.878034 0.408325
vt 0.874487 0.692996
vt 0.878034 0.692996
vt 0.901321 0.408325
vt 0.901321 0.420154
vt 0.901321 0.692996
vt 0.998008 0.420154
vt 0.998008 0.408325
vt 0.998008 0.692996
vt 0.744830 0.943448
vt 0.744830 0.931619
vt 0.748377 0.931619
vt 0.748377 0.943448
vt 0.744830 0.658777
vt 0.748377 0.658777
vt 0.771665 0.931619
vt 0.771665 0.943448
vt 0.771665 0.658777
vt 0.868351 0.931619
vt 0.868351 0.943448
vt 0.868351 0.658777
vt 0.238971 0.931619
vt 0.238971 0.658777
vt 0.262258 0.658777
vt 0.262258 0.931619
vt 0.358945 0.658777
vt 0.358945 0.931619
vt 0.112862 0.931619
vt 0.112862 0.658777
vt 0.136149 0.658777
vt 0.136149 0.931619
vt 0.232836 0.658777
vt 0.232836 0.931619
vt 0.106726 0.931619
vt 0.105349 0.931619
vt 0.105349 0.658777
vt 0.106726 0.659348
vt 0.084010 0.931619
vt 0.084010 0.658777
vt 0.055158 0.931619
vt 0.055158 0.658777
vt 0.076497 0.658777
vt 0.076497 0.931619
vt 0.077874 0.931049
vt 0.077874 0.658777
vt 0.132767 0.233669
vt 0.144596 0.233669
vt 0.144596 0.259642
vt 0.132767 0.259642
vt 0.132767 0.139032
vt 0.144596 0.139032
vt 0.144596 0.541482
vt 0.132767 0.541482
vt 0.132767 0.015879
vt 0.144596 0.015879
vt 0.144596 0.643424
vt 0.132767 0.643424
vt 0.144596 0.001883
vt 0.132767 0.001883
vt 0.417438 0.015879
vt 0.417438 0.139032
vt 0.417438 0.541482
vt 0.417438 0.643424
vt 0.144596 0.654786
vt 0.132767 0.654786
vt 0.417438 0.001883
vt 0.417438 0.654786
vt 0.828531 0.259642
vt 0.828531 0.233669
vt 0.840360 0.233669
vt 0.840360 0.259642
vt 0.555689 0.233669
vt 0.555689 0.259642
vt 0.828531 0.139032
vt 0.840360 0.139032
vt 0.828531 0.541482
vt 0.840360 0.541482
vt 0.555689 0.139032
vt 0.555689 0.541482
vt 0.828531 0.015878
vt 0.840360 0.015878
vt 0.828531 0.643423
vt 0.840360 0.643423
vt 0.555689 0.015878
vt 0.555689 0.643423
vt 0.840360 0.001883
vt 0.828531 0.001883
vt 0.828531 0.654786
vt 0.840360 0.654786
vt 0.555689 0.001883
vt 0.555689 0.654786
vt 0.465852 0.940618
vt 0.465852 0.658777
vt 0.738694 0.658777
vt 0.738694 0.940618
vt 0.459717 0.658777
vt 0.459717 0.931619
vt 0.365080 0.931619
vt 0.365080 0.658777
vt 0.047645 0.658777
vt 0.049022 0.658777
vt 0.049022 0.931049
vt 0.047645 0.929672
vt 0.024191 0.931049
vt 0.025568 0.929672
vt 0.025568 0.658777
vt 0.024191 0.658777
vt 0.121966 0.233670
vt 0.125514 0.233670
vt 0.125514 0.259642
vt 0.121966 0.259642
vt 0.121966 0.139032
vt 0.125514 0.139032
vt 0.125514 0.541483
vt 0.121966 0.541483
vt 0.100626 0.259642
vt 0.100626 0.233670
vt 0.121966 0.015879
vt 0.125514 0.015879
vt 0.125514 0.643423
vt 0.121966 0.643423
vt 0.099249 0.234240
vt 0.099249 0.259071
vt 0.125514 0.001883
vt 0.121966 0.001883
vt 0.098679 0.139032
vt 0.098679 0.015879
vt 0.125514 0.654786
vt 0.121966 0.654786
vt 0.098679 0.643423
vt 0.098679 0.541483
vt 0.098679 0.001883
vt 0.001992 0.139032
vt 0.001992 0.015879
vt 0.098679 0.654786
vt 0.001992 0.643423
vt 0.001992 0.541483
vt 0.001992 0.001883
vt 0.001992 0.654786
vt 0.425110 0.233669
vt 0.428657 0.233669
vt 0.428657 0.259642
vt 0.425110 0.259642
vt 0.425110 0.139032
vt 0.428657 0.139032
vt 0.451944 0.233669
vt 0.451944 0.259642
vt 0.428657 0.541483
vt 0.425110 0.541483
vt 0.425110 0.015879
vt 0.428657 0.015879
vt 0.451944 0.139032
vt 0.548631 0.233669
vt 0.548631 0.259642
vt 0.451944 0.541483
vt 0.428657 0.643424
vt 0.425110 0.643424
vt 0.428657 0.001883
vt 0.425110 0.001883
vt 0.451944 0.015879
vt 0.548631 0.139032
vt 0.548631 0.541483
vt 0.451944 0.643424
vt 0.428657 0.654786
vt 0.425110 0.654786
vt 0.451944 0.001883
vt 0.548631 0.015879
vt 0.548631 0.643424
vt 0.451944 0.654786
vt 0.548631 0.001883
vt 0.548631 0.654786
vt 0.968006 0.122493
vt 0.968006 0.404334
vt 0.944719 0.404334
vt 0.944719 0.124155
vt 0.946666 0.122493
vt 0.943056 0.122493
vt 0.848032 0.404334
vt 0.848032 0.122493
vt 0.944719 0.122493
vt 0.945289 0.121922
vt 0.943056 0.096521
vt 0.944719 0.098468
vt 0.944719 0.120545
vt 0.848032 0.096521
vt 0.944719 0.096521
vt 0.945289 0.097091
vt 0.944719 0.001883
vt 0.944719 0.094858
vt 0.848032 0.001883
vt 0.946666 0.096521
vt 0.968006 0.001883
vt 0.968006 0.096521
vn 0.000000 0.000000 -1.000000
vn 0.000000 0.000000 -1.000000
vn 0.000000 0.000000 -1.000000
vn 0.000000 0.000000 -1.000000
vn -0.000000 1.000000 0.000000
vn -0.000000 1.000000 0.000000
vn -0.000000 1.000000 0.000000
vn -0.000000 1.000000 0.000000
vn 0.000000 0.000000 1.000000
vn 0.000000 0.000000 1.000000
vn 0.000000 0.000000 1.000000
vn 0.000000 0.000000 1.000000
vn 0.000000 -1.000000 0.000000
vn 0.000000 -1.000000 0.000000
vn 0.000000 -1.000000 0.000000
vn 0.000000 -1.000000 0.000000
vn -1.000000 0.000000 0.000000
vn -1.000000 0.000000 0.000000
vn -1.000000 0.000000 -0.000000
vn -1.000000 0.000000 -0.000000
vn 1.000000 0.000000 0.000000
vn 1.000000 0.000000 0.000003
vn 1.000000 0.000000 0.000003
vn 1.000000 0.000000 0.000000
vn 0.000000 -1.000000 0.000000
vn 0.000000 -1.000000 0.000000
vn 0.000000 -1.000000 0.000000
vn 0.000000 -1.000000 0.000000
vn 0.000000 0.000000 1.000000
vn 0.000000 0.000000 1.000000
vn 0.000000 0.000000 1.000000
vn 0.000000 0.000000 1.000000
vn 0.000000 1.000000 0.000000
vn 0.000000 1.000000 0.000000
vn 0.000000 1.000000 0.000000
vn 0.000000 1.000000 0.000000
vn 0.000000 0.000000 -1.000000
vn 0.000000 0.000000 -1.000000
vn 0.000000 0.000000 -1.000000
vn 0.000000 0.000000 -1.000000
vn 0.000000 1.000000 0.000000
vn 0.000000 1.000000 0.000000
vn 0.000000 1.000000 0.000000
vn 0.000000 1.000000 0.000000
vn -0.000000 0.000000 1.000000
vn -0.000000 0.000000 1.000000
vn -0.000000 0.000000 1.000000
vn -0.000000 0.000000 1.000000
vn 0.000000 -1.000000 0.000000
vn 0.000000 -1.000000 0.000000
vn 0.000000 -1.000000 0.000000
vn 0.000000 -1.000000 0.000000
vn -0.000000 0.000000 -1.000000
vn -0.000000 0.000000 -1.000000
vn -0.000000 0.000000 -1.000000
vn -0.000000 0.000000 -1.000000
vn -0.000000 1.000000 -0.000000
vn -0.000000 1.000000 -0.000000
vn -0.000000 1.000000 -0.000000
vn -0.000000 1.000000 -0.000000
vn 0.000000 0.000000 1.000000
vn 0.000000 0.000000 1.000000
vn 0.000000 0.000000 1.000000
vn 0.000000 0.000000 1.000000
vn 0.000000 -1.000000 0.000000
vn 0.000000 -1.000000 0.000000
vn 0.000000 -1.000000 0.000000
vn 0.000000 -1.000000 0.000000
vn 0.000000 0.000000 -1.000000
vn 0.000000 0.000000 -1.000000
vn 0.000000 0.000000 -1.000000
vn 0.000000 0.000000 -1.000000
vn -0.000000 1.000000 -0.000000
vn -0.000000 1.000000 -0.000000
vn -0.000000 1.000000 -0.000000
vn 0.000000 1.000000 0.000000
vn 0.000000 0.000000 1.000000
vn 0.000000 0.000000 1.000000
vn -0.000000 0.000000 1.000000
vn -0.000000 0.000000 1.000000
vn 0.000000 -1.000000 0.000000
vn 0.000000 -1.000000 0.000000
vn 0.000000 -1.000000 0.000000
vn 0.000000 -1.000000 0.000000
vn 0.000000 0.000000 -1.000000
vn 0.000000 0.000000 -1.000000
vn 0.000000 0.000000 -1.000000
vn 0.000000 0.000000 -1.000000
vn -1.000000 0.000000 -0.000000
vn -1.000000 0.000000 0.000000
vn -1.000000 0.000000 0.000000
vn -1.000000 0.000000 -0.000000
vn 0.000000 -1.000000 0.000000
vn 0.000000 -1.000000 0.000000
vn 0.000000 -1.000000 0.000000
vn 0.000000 -1.000000 0.000000
vn 0.000000 -1.000000 0.000000
vn 0.000000 -1.000000 0.000000
vn 0.000000 -1.000000 0.000000
vn 0.000000 -1.000000 0.000000
vn -0.000000 -1.000000 0.000000
vn -0.000000 -1.000000 0.000000
vn -0.000000 -1.000000 0.000000
vn -0.000000 -1.000000 0.000000
vn 0.000000 -1.000000 0.000000
vn 0.000000 -1.000000 0.000000
vn 0.000000 -1.000000 0.000000
vn 0.000000 -1.000000 0.000000
vn 0.000000 -1.000000 0.000000
vn 0.000000 -1.000000 0.000000
vn 0.000000 -1.000000 0.000000
vn 0.000000 -1.000000 0.000000
vn 1.000000 0.000000 -0.000000
vn 1.000000 0.000000 -0.000000
vn 1.000000 0.000000 0.000000
vn 1.000000 0.000000 0.000000
vn 0.000000 1.000000 -0.000000
vn 0.000000 1.000000 -0.000000
vn 0.000000 1.000000 -0.000000
vn 0.000000 1.000000 -0.000000
vn 0.000000 1.000000 0.000000
vn 0.000000 1.000000 0.000000
vn 0.000000 1.000000 0.000000
vn 0.000000 1.000000 0.000000
vn -0.000000 1.000000 0.000000
vn -0.000000 1.000000 0.000000
vn -0.000000 1.000000 0.000000
vn -0.000000 1.000000 0.000000
vn -0.000000 1.000000 0.000000
vn -0.000000 1.000000 0.000000
vn -0.000000 1.000000 0.000000
vn 0.000000 1.000000 0.000000
vn 0.000000 -1.000000 0.000000
vn 0.000000 -1.000000 0.000000
vn 0.000000 -1.000000 0.000000
vn 0.000000 -1.000000 0.000000
vn 0.000000 -1.000000 0.000000
vn 0.000000 -1.000000 0.000000
vn 0.000000 -1.000000 0.000000
vn 0.000000 -1.000000 0.000000
vn -0.000000 0.000000 1.000000
vn 0.000000 0.000000 1.000000
vn 0.000000 0.000000 1.000000
vn -0.000000 0.000000 1.000000
vn 0.000000 1.000000 -0.000000
vn 0.000000 1.000000 -0.000000
vn 0.000000 1.000000 -0.000000
vn 0.000000 1.000000 0.000000
vn 0.000000 1.000000 0.000000
vn 0.000000 1.000000 0.000000
vn 0.000000 1.000000 0.000000
vn 0.000000 1.000000 0.000000
vn 0.000000 0.000000 -1.000000
vn 0.000000 0.000000 -1.000000
vn 0.000000 0.000000 -1.000000
vn 0.000000 0.000000 -1.000000
vn 0.000000 -1.000000 0.000000
vn 0.000000 -1.000000 0.000000
vn 0.000000 -1.000000 0.000000
vn 0.000000 -1.000000 0.000000
vn 0.000000 -1.000000 0.000000
vn 0.000000 -1.000000 0.000000
vn 0.000000 -1.000000 0.000000
vn 0.000000 -1.000000 0.000000
vn 0.000000 0.000000 -1.000000
vn 0.000000 0.000000 -1.000000
vn 0.000000 0.000000 -1.000000
vn 0.000000 0.000000 -1.000000
vn 0.000000 1.000000 0.000000
vn 0.000000 1.000000 0.000000
vn 0.000000 1.000000 0.000000
vn 0.000000 1.000000 0.000000
vn 0.000000 1.000000 0.000000
vn 0.000000 1.000000 0.000000
vn 0.000000 1.000000 0.000000
vn 0.000000 1.000000 0.000000
vn 0.000001 0.000000 1.000000
vn 0.000001 0.000000 1.000000
vn 0.000001 0.000000 1.000000
vn 0.000001 0.000000 1.000000
vn 0.000000 0.000000 1.000000
vn 0.000000 0.000000 1.000000
vn 0.000000 0.000000 1.000000
vn 0.000000 0.000000 1.000000
vn 0.000000 0.000000 1.000000
vn 0.000000 0.000000 1.000000
vn 0.000000 0.000000 1.000000
vn 0.000000 0.000000 1.000000
vn 0.000000 0.000000 -1.000000
vn 0.000000 0.000000 -1.000000
vn 0.000000 0.000000 -1.000000
vn 0.000000 0.000000 -1.000000
vn 0.000000 0.000000 -1.000000
vn -0.000000 0.000000 1.000000
vn -0.000000 0.000000 1.000000
vn -0.000000 0.000000 1.000000
vn -0.000000 0.000000 1.000000
vn 0.000000 0.000000 1.000000
vn 0.000000 0.000000 1.000000
vn 0.000000 0.000000 1.000000
vn 0.000000 0.000000 1.000000
vn 0.000000 0.000000 -1.000000
vn 0.000000 0.000000 -1.000000
vn 0.000000 0.000000 -1.000000
vn 0.000000 0.000000 -1.000000
vn -1.000000 0.000000 0.000000
vn -1.000000 0.000000 0.000000
vn -1.000000 0.000000 0.000000
vn -1.000000 0.000000 0.000000
vn 1.000000 0.000000 0.000000
vn 1.000000 0.000000 0.000000
vn 1.000000 0.000000 0.000000
vn 1.000000 0.000000 0.000000
vn 0.000000 0.000000 -1.000000
vn 0.000000 0.000000 -1.000000
vn 0.000000 0.000000 -1.000000
vn 0.000000 0.000000 -1.000000
vn 0.000000 0.000000 -1.000000
vn 0.000000 0.000000 -1.000000
vn 0.000000 0.000000 -1.000000
vn 0.000000 0.000000 -1.000000
vn 0.000000 0.000000 -1.000000
vn 0.000001 0.000000 1.000000
vn 0.000001 0.000000 1.000000
vn 0.000001 0.000000 1.000000
vn 0.000001 0.000000 1.000000
vn -0.000000 0.000000 1.000000
vn -0.000000 0.000000 1.000000
vn -0.000000 0.000000 1.000000
vn -0.000000 0.000000 1.000000
vn 0.000000 0.000000 1.000000
vn 0.000000 0.000000 1.000000
vn 0.000000 0.000000 1.000000
vn 0.000000 0.000000 1.000000
vn -0.000000 0.000000 1.000000
vn -0.000000 0.000000 1.000000
vn -0.000000 0.000000 1.000000
vn -0.000000 0.000000 1.000000
vn 0.000000 0.000000 1.000000
vn 0.000000 0.000000 1.000000
vn 0.000000 0.000000 1.000000
vn 0.000000 0.000000 1.000000
vn 0.000000 0.000000 -1.000000
vn 0.000000 0.000000 -1.000000
vn 0.000000 0.000000 -1.000000
vn 0.000000 0.000000 -1.000000
vn -1.000000 0.000000 0.000000
vn -1.000000 0.000000 0.000000
vn -1.000000 0.000000 0.000000
vn -1.000000 0.000000 0.000000
vn 1.000000 0.000000 0.000000
vn 1.000000 0.000000 0.000000
vn 1.000000 0.000000 0.000000
vn 1.000000 0.000000 0.000000
vn 0.000000 0.000000 -1.000000
vn 0.000000 0.000000 -1.000000
vn 0.000000 0.000000 -1.000000
vn 0.000000 0.000000 -1.000000
vn 0.000000 0.000000 -1.000000
vn 0.000000 0.000000 -1.000000
vn 0.000000 0.000000 -1.000000
vn 0.000000 0.000000 -1.000000
vn 0.000001 0.000000 1.000000
vn 0.000001 0.000000 1.000000
vn 0.000001 0.000000 1.000000
vn 0.000001 0.000000 1.000000
vn -1.000000 0.000000 0.000000
vn -1.000000 0.000000 0.000000
vn -1.000000 0.000000 0.000000
vn -1.000000 0.000000 0.000000
vn -1.000000 0.000000 0.000000
vn -1.000000 0.000000 0.000000
vn -0.000001 0.000000 -1.000000
vn -0.000001 0.000000 -1.000000
vn -0.000001 0.000000 -1.000000
vn -0.000001 0.000000 -1.000000
vn 0.000000 0.000000 -1.000000
vn 0.000000 0.000000 -1.000000
vn -1.000000 0.000000 0.000000
vn -1.000000 0.000000 0.000000
vn -1.000000 0.000000 0.000000
vn -1.000000 0.000000 0.000000
vn -1.000000 0.000000 0.000000
vn -1.000000 0.000000 0.000000
vn 0.000000 0.000000 1.000000
vn 0.000000 0.000000 1.000000
vn 0.000000 0.000000 1.000000
vn 0.000000 0.000000 1.000000
vn 0.000000 0.000000 1.000000
vn 0.000000 0.000000 1.000000
vn 0.000000 0.000000 1.000000
vn 0.000000 0.000000 1.000000
vn 0.000000 0.000000 1.000000
vn 0.000000 0.000000 1.000000
vn 0.000000 0.000000 1.000000
vn 0.000000 0.000000 1.000000
vn 1.000000 0.000000 0.000006
vn 1.000000 0.000000 0.000006
vn 1.000000 0.000000 0.000006
vn 1.000000 0.000000 0.000006
vn 1.000000 0.000000 0.000006
vn 1.000000 0.000000 0.000006
vn 1.000000 0.000000 -0.000000
vn 1.000000 0.000000 -0.000000
vn 1.000000 0.000000 -0.000000
vn 1.000000 0.000000 -0.000000
vn 1.000000 0.000000 -0.000000
vn 1.000000 0.000000 -0.000000
vn 0.000000 0.000000 -1.000000
vn 0.000000 0.000000 -1.000000
vn 0.000000 0.000000 -1.000000
vn 0.000000 0.000000 -1.000000
vn 0.000000 0.000000 -1.000000
vn 0.000000 0.000000 -1.000000
vn 0.000000 0.000000 -1.000000
vn 0.000000 0.000000 -1.000000
vn 0.000000 0.000000 -1.000000
vn 0.000000 0.000000 -1.000000
vn 0.000000 0.000000 -1.000000
vn 0.000000 0.000000 -1.000000
vn 0.000000 0.000000 -1.000000
vn 0.000000 0.000000 -1.000000
vn 0.024374 0.999703 0.000000
vn 0.382699 0.923873 0.000000
vn 0.382699 0.923873 0.000000
vn 0.034706 0.999393 -0.002997
vn 0.923864 0.382720 0.000000
vn 0.999685 0.025083 0.000000
vn 0.999809 0.019524 0.000000
vn 0.923864 0.382720 0.000000
vn -0.034706 0.999393 -0.002997
vn -0.024374 0.999703 0.000000
vn 1.000000 0.000000 0.000000
vn 1.000000 0.000000 0.000000
vn 0.000000 0.019132 -0.999817
vn 0.000000 0.019132 -0.999817
vn -1.000000 0.000000 0.000000
vn -1.000000 0.000000 0.000000
vn -0.999686 0.025080 0.000000
vn -0.999809 0.019522 0.000000
vn 0.000000 0.923878 -0.382687
vn 0.000000 0.923878 -0.382687
vn 0.000000 0.382685 -0.923879
vn 0.000000 0.382685 -0.923879
vn -0.382682 0.923880 0.000000
vn -0.382682 0.923880 0.000000
vn -0.923881 0.382680 0.000000
vn -0.923881 0.382680 0.000000
vn 0.000000 0.000000 -1.000000
vn 0.000000 0.000000 -1.000000
vn 0.000000 0.000000 -1.000000
vn 0.000000 0.000000 -1.000000
s 1
g ThePitB polySurface73
usemtl lambert13SG
f 12/111/1 9/112/2 16/113/3 13/114/4
s off
f 65/49/5 66/50/6 67/51/7 68/52/8
f 10/143/9 11/144/10 14/145/11 15/146/12
f 29/71/13 30/72/14 10/73/15 15/74/16
f 25/1/17 26/2/18 8/3/19 6/4/20
f 7/13/21 31/14/22 32/15/23 5/16/24
f 37/83/25 38/84/26 41/78/27 42/77/28
f 38/153/29 39/154/30 46/148/31 41/147/32
f 69/57/33 70/58/34 71/54/35 72/53/36
f 40/121/37 36/122/38 43/116/39 44/115/40
f 68/52/41 67/51/42 73/55/43 74/56/44
f 15/146/45 14/145/46 18/151/47 19/152/48
f 28/79/49 29/71/50 15/74/51 19/80/52
f 13/114/53 16/113/54 20/117/55 17/118/56
f 74/56/57 73/55/58 75/59/59 76/60/60
f 19/152/61 18/151/62 22/159/63 23/160/64
f 27/85/65 28/79/66 19/80/67 23/86/68
f 17/118/69 20/117/70 24/123/71 21/124/72
f 76/60/73 75/59/74 77/67/75 78/68/76
f 23/160/77 22/159/78 6/167/79 8/168/80
f 26/91/81 27/85/82 23/86/83 8/92/84
f 21/124/85 24/123/86 2/131/87 4/132/88
f 2/5/89 26/2/90 25/1/91 4/6/92
f 24/88/93 27/85/94 26/91/95 2/94/96
f 20/82/97 28/79/98 27/85/99 24/88/100
f 16/76/101 29/71/102 28/79/103 20/82/104
f 9/75/105 30/72/106 29/71/107 16/76/108
f 36/87/109 37/83/110 42/77/111 43/81/112
f 32/15/113 31/14/114 1/17/115 3/18/116
f 70/58/117 79/63/118 80/64/119 71/54/120
f 35/95/121 34/96/122 13/97/123 17/98/124
f 75/59/125 73/55/126 81/65/127 82/66/128
f 77/67/129 75/59/130 82/66/131 83/70/132
f 31/90/133 37/83/134 36/87/135 1/93/136
f 7/89/137 38/84/138 37/83/139 31/90/140
f 5/161/141 39/154/142 38/153/143 7/162/144
f 84/61/145 70/58/146 69/57/147 85/62/148
f 86/69/149 79/63/150 70/58/151 84/61/152
f 1/127/153 36/122/154 40/121/155 3/128/156
f 42/77/157 41/78/158 10/73/159 30/72/160
f 43/81/161 42/77/162 30/72/163 9/75/164
f 44/115/165 43/116/166 9/112/167 12/111/168
f 45/99/169 44/100/170 12/101/171 33/102/172
f 72/53/173 71/54/174 66/50/175 65/49/176
f 41/147/177 46/148/178 11/144/179 10/143/180
f 14/145/181 11/144/182 47/149/183 48/150/184
f 46/148/185 39/154/186 49/163/187 51/155/188
s 2
f 34/175/189 35/176/190 52/177/191 102/178/192 101/179/193
s off
f 18/151/194 14/145/195 48/150/196 53/158/197
f 22/159/198 18/151/199 53/158/200 54/166/201
f 40/121/202 44/115/203 58/129/204 57/130/205
f 44/25/206 45/26/207 50/27/208 58/28/209
f 35/31/210 17/32/211 59/33/212 52/34/213
f 17/118/214 21/124/215 60/133/216 59/134/217
s 2
f 45/195/218 33/196/219 89/194/220 88/192/221 50/191/222
s off
f 11/144/223 46/148/224 51/155/225 47/149/226
f 48/150/227 47/149/228 65/156/229 68/157/230
f 51/155/231 49/163/232 69/170/233 72/164/234
f 53/158/235 48/150/236 68/157/237 74/165/238
f 54/166/239 53/158/240 74/165/241 76/171/242
f 57/130/243 58/129/244 80/136/245 79/137/246
f 58/28/247 50/27/248 71/29/249 80/30/250
f 52/34/251 59/33/252 81/35/253 73/36/254
f 59/134/255 60/133/256 82/139/257 81/140/258
s 2
f 50/191/259 88/192/221 87/185/260 66/188/261 71/193/262
s off
f 47/149/263 51/155/264 72/164/265 65/156/266
s 5
f 77/10/267 83/12/268 61/9/269 55/8/270
f 55/8/270 61/9/269 4/6/271 25/1/272
s 6
f 82/139/273 60/133/274 61/138/275 83/142/276
f 61/138/275 60/133/274 21/124/277 4/132/278
s 7
f 77/10/279 55/8/280 56/7/281 78/11/282
f 56/7/281 55/8/280 25/1/283 6/4/284
s 8
f 76/171/285 78/174/286 56/172/287 54/166/288
f 54/166/288 56/172/287 6/167/289 22/159/290
s 9
f 69/170/291 49/163/292 63/169/293 85/173/294
f 63/169/293 49/163/292 39/154/295 5/161/296
s 10
f 84/22/297 85/23/298 63/20/299 62/19/300
f 62/19/300 63/20/299 5/16/301 32/15/302
s 11
f 84/22/303 62/19/304 64/21/305 86/24/306
f 64/21/305 62/19/304 32/15/307 3/18/308
s 12
f 79/137/309 86/141/310 64/135/311 57/130/312
f 57/130/312 64/135/311 3/128/313 40/121/314
s 2
f 87/185/260 91/186/315 99/187/316 98/180/317 67/182/318 66/188/319
f 98/180/317 102/178/192 52/177/320 73/181/321 67/182/322
s 15
f 91/103/323 90/104/324 93/105/325 92/106/326
s 16
f 90/37/327 89/38/328 94/39/329 93/40/330
s 15
f 95/108/331 99/109/332 91/103/323 92/106/326
s 16
f 33/41/333 12/42/334 94/39/329 89/38/328
s 1
f 12/111/1 13/114/4 97/119/335 94/120/336
s 17
f 13/43/337 34/44/338 101/45/339 97/46/340
s 15
f 92/106/326 93/105/341 96/107/342 95/108/331
s 1
f 93/125/343 94/120/336 97/119/335 96/126/344
s 15
f 95/108/331 96/107/345 100/110/346 99/109/332
s 17
f 96/47/347 97/46/340 101/45/339 100/48/348
s 2
f 89/194/220 90/190/349 103/189/350 88/192/221
f 88/192/221 103/189/350 87/185/260
f 87/185/260 103/189/350 90/190/349 91/186/315
f 99/187/316 100/184/351 104/183/352 98/180/317
f 98/180/317 104/183/352 102/178/192
f 102/178/192 104/183/352 100/184/351 101/179/193
