# This file uses centimeters as units for non-parametric coordinates.

mtllib ThePitB1.mtl
g default
v -163.888822 -28.868780 -27.454782
v -311.116178 -28.868780 -27.454782
v -163.888822 -28.068780 -27.454782
v -311.116178 -28.068780 -27.454782
v -163.888822 -28.068780 36.737556
v -311.116178 -28.068780 36.737556
v -163.888822 -28.868780 36.737556
v -311.116178 -28.868780 36.737556
v -216.155866 -28.868782 -27.454782
v -216.155851 -28.868780 36.737571
v -216.155851 -28.068780 36.737571
v -216.155851 -28.068780 -27.454782
v -222.012540 -28.068780 -27.454782
v -222.012540 -28.068780 36.737571
v -222.012540 -28.868780 36.737571
v -222.012540 -28.868782 -27.454782
v -285.566678 -28.068780 -27.454782
v -285.566678 -28.068780 36.737556
v -285.566678 -28.868780 36.737556
v -285.566678 -28.868780 -27.454782
v -308.554044 -28.068780 -27.454782
v -308.554044 -28.068780 36.737556
v -308.554044 -28.868780 36.737556
v -308.554044 -28.868780 -27.454782
v -311.116178 -28.068780 34.070182
v -311.116178 -28.868780 34.070182
v -308.554044 -28.868780 34.070182
v -285.566678 -28.868780 34.070182
v -222.012540 -28.868780 34.070182
v -216.155851 -28.868780 34.070182
v -163.888822 -28.868780 34.070182
v -163.888807 -28.068780 34.070182
v -216.155851 -28.068780 34.070182
v -222.012540 -28.068780 34.070182
v -285.566678 -28.068780 34.070182
v -167.044706 -28.868780 -27.454782
v -167.044706 -28.868780 34.070182
v -167.044706 -28.868780 36.737556
v -167.044706 -28.068780 36.737556
v -167.044706 -28.068780 -27.454782
v -194.815488 -28.868780 36.737556
v -194.815488 -28.868780 34.070182
v -194.815488 -28.868780 -27.454782
v -194.815488 -28.068780 -27.454782
v -194.815473 -28.068780 34.070182
v -194.815488 -28.068780 36.737556
v -216.155851 -22.817598 36.737571
v -216.155851 -22.817598 34.070182
v -222.012540 -22.817598 34.070182
v -222.012540 -22.817598 36.737571
v -167.044706 -22.817598 36.737556
v -194.815473 -22.817598 34.070182
v -194.815488 -22.817598 36.737556
v -285.566678 -22.817598 34.070182
v -285.566678 -22.817598 36.737556
v -308.554044 -22.817598 36.737556
v -311.116178 -22.817598 34.070182
v -311.116178 -22.817598 36.737556
v -167.044706 -22.817598 -27.454782
v -194.815488 -22.817598 -27.454782
v -216.155851 -22.817598 -27.454782
v -222.012540 -22.817598 -27.454782
v -285.566678 -22.817598 -27.454782
v -308.554044 -22.817598 -27.454782
v -311.116178 -22.817598 -27.454782
v -163.888807 -22.817598 34.070182
v -163.888822 -22.817598 36.737556
v -163.888822 -22.817598 -27.454782
v -216.155851 -1.015091 36.737571
v -216.155851 -1.015091 34.070182
v -222.012540 -1.015092 34.070182
v -222.012540 -1.015092 36.737571
v -167.044706 -1.015092 36.737556
v -167.044691 -1.015092 34.070182
v -194.815473 -1.015091 34.070182
v -194.815488 -1.015091 36.737556
v -285.566678 -1.015091 34.070182
v -285.566678 -1.015091 36.737556
v -308.554044 -1.015092 34.070182
v -308.554044 -1.015091 36.737556
v -311.116178 -1.015092 34.070182
v -311.116178 -1.015092 36.737556
v -167.044706 -1.015092 -27.454782
v -194.815488 -1.015092 -27.454782
v -285.566678 -1.015090 -27.454782
v -308.554044 -1.015091 -27.454782
v -311.116178 -1.015092 -27.454782
v -163.888807 -1.015092 34.070182
v -163.888822 -1.015092 36.737556
v -163.888822 -1.015092 -27.454782
vt 0.463752 0.250000
vt 0.463752 0.000000
vt 0.473697 0.000000
vt 0.473697 0.250000
vt 0.463752 0.500000
vt 0.463752 0.488446
vt 0.473697 0.488446
vt 0.473697 0.500000
vt 0.463752 0.750000
vt 0.463752 0.500000
vt 0.473697 0.500000
vt 0.473697 0.750000
vt 0.473697 0.761554
vt 0.463752 0.761554
vt 0.863446 0.250000
vt 0.863446 0.000000
vt 0.875000 0.000000
vt 0.875000 0.250000
vt 0.125000 0.000000
vt 0.136554 0.000000
vt 0.136554 0.250000
vt 0.125000 0.250000
vt 0.380359 0.761554
vt 0.380359 0.750000
vt 0.427515 0.750000
vt 0.427515 0.761554
vt 0.380359 0.500000
vt 0.427515 0.500000
vt 0.380359 0.500000
vt 0.380359 0.488446
vt 0.427515 0.488446
vt 0.427515 0.500000
vt 0.380359 0.250000
vt 0.380359 0.000000
vt 0.427515 0.000000
vt 0.427515 0.250000
vt 0.581616 0.488446
vt 0.581616 0.500000
vt 0.581616 0.500000
vt 0.581616 0.750000
vt 0.581616 0.761554
vt 0.581616 0.000000
vt 0.581616 0.250000
vt 0.620649 0.488446
vt 0.620649 0.500000
vt 0.620649 0.500000
vt 0.620649 0.750000
vt 0.620649 0.761554
vt 0.620649 0.000000
vt 0.620649 0.250000
vt 0.625000 0.488446
vt 0.625000 0.500000
vt 0.625000 0.500000
vt 0.625000 0.750000
vt 0.625000 0.761554
vt 0.625000 0.000000
vt 0.625000 0.250000
vt 0.620649 1.000000
vt 0.625000 1.000000
vt 0.581616 1.000000
vt 0.473697 1.000000
vt 0.463752 1.000000
vt 0.380359 1.000000
vt 0.427515 1.000000
vt 0.375000 0.000000
vt 0.375000 0.250000
vt 0.380359 0.250000
vt 0.427515 0.250000
vt 0.473697 0.488446
vt 0.463752 0.488446
vt 0.463752 0.250000
vt 0.473697 0.250000
vt 0.581616 0.488446
vt 0.473697 0.488446
vt 0.581616 0.250000
vt 0.620649 0.250000
vt 0.625000 0.250000
vt 0.375000 0.761554
vt 0.375000 1.000000
vt 0.375000 0.750000
vt 0.375000 0.500000
vt 0.375000 0.488446
vt 0.375000 0.500000
vt 0.375000 0.250000
vt 0.427515 0.488446
vt 0.463752 0.488446
vt 0.463752 0.500000
vt 0.473697 0.500000
vt 0.380359 0.500000
vt 0.427515 0.500000
vt 0.581616 0.488446
vt 0.581616 0.500000
vt 0.620649 0.500000
vt 0.625000 0.488446
vt 0.625000 0.500000
vt 0.625000 0.488446
vt 0.427515 0.250000
vt 0.380359 0.250000
vt 0.427515 0.488446
vt 0.581616 0.250000
vt 0.620649 0.250000
vt 0.625000 0.250000
vt 0.375000 0.500000
vt 0.375000 0.488446
vt 0.375000 0.488446
vt 0.375000 0.250000
vn 0.000000 0.000000 -1.000000
vn 0.000000 0.000000 -1.000000
vn 0.000000 0.000000 -1.000000
vn 0.000000 0.000000 -1.000000
vn -0.000000 1.000000 0.000000
vn -0.000000 1.000000 0.000000
vn -0.000000 1.000000 0.000000
vn -0.000000 1.000000 0.000000
vn 0.000000 0.000000 1.000000
vn 0.000000 0.000000 1.000000
vn 0.000000 0.000000 1.000000
vn 0.000000 0.000000 1.000000
vn 0.000000 -1.000000 0.000000
vn 0.000000 -1.000000 0.000000
vn 0.000000 -1.000000 0.000000
vn 0.000000 -1.000000 0.000000
vn -1.000000 0.000000 0.000000
vn -1.000000 0.000000 0.000000
vn -1.000000 0.000000 -0.000000
vn -1.000000 0.000000 -0.000000
vn 1.000000 0.000000 0.000000
vn 1.000000 0.000000 0.000003
vn 1.000000 0.000000 0.000003
vn 1.000000 0.000000 0.000000
vn 0.000000 -1.000000 0.000000
vn 0.000000 -1.000000 0.000000
vn 0.000000 -1.000000 0.000000
vn 0.000000 -1.000000 0.000000
vn 0.000000 0.000000 1.000000
vn 0.000000 0.000000 1.000000
vn 0.000000 0.000000 1.000000
vn 0.000000 0.000000 1.000000
vn 0.000000 1.000000 0.000000
vn 0.000000 1.000000 0.000000
vn 0.000000 1.000000 0.000000
vn 0.000000 1.000000 0.000000
vn 0.000000 0.000000 -1.000000
vn 0.000000 0.000000 -1.000000
vn 0.000000 0.000000 -1.000000
vn 0.000000 0.000000 -1.000000
vn 0.000000 1.000000 0.000000
vn 0.000000 1.000000 0.000000
vn 0.000000 1.000000 0.000000
vn 0.000000 1.000000 0.000000
vn -0.000000 0.000000 1.000000
vn -0.000000 0.000000 1.000000
vn -0.000000 0.000000 1.000000
vn -0.000000 0.000000 1.000000
vn 0.000000 -1.000000 0.000000
vn 0.000000 -1.000000 0.000000
vn 0.000000 -1.000000 0.000000
vn 0.000000 -1.000000 0.000000
vn -0.000000 0.000000 -1.000000
vn -0.000000 0.000000 -1.000000
vn -0.000000 0.000000 -1.000000
vn -0.000000 0.000000 -1.000000
vn -0.000000 1.000000 -0.000000
vn -0.000000 1.000000 -0.000000
vn -0.000000 1.000000 -0.000000
vn -0.000000 1.000000 -0.000000
vn 0.000000 0.000000 1.000000
vn 0.000000 0.000000 1.000000
vn 0.000000 0.000000 1.000000
vn 0.000000 0.000000 1.000000
vn 0.000000 -1.000000 0.000000
vn 0.000000 -1.000000 0.000000
vn 0.000000 -1.000000 0.000000
vn 0.000000 -1.000000 0.000000
vn 0.000000 0.000000 -1.000000
vn 0.000000 0.000000 -1.000000
vn 0.000000 0.000000 -1.000000
vn 0.000000 0.000000 -1.000000
vn -0.000000 1.000000 -0.000000
vn -0.000000 1.000000 -0.000000
vn -0.000000 1.000000 -0.000000
vn 0.000000 1.000000 0.000000
vn 0.000000 0.000000 1.000000
vn 0.000000 0.000000 1.000000
vn -0.000000 0.000000 1.000000
vn -0.000000 0.000000 1.000000
vn 0.000000 -1.000000 0.000000
vn 0.000000 -1.000000 0.000000
vn 0.000000 -1.000000 0.000000
vn 0.000000 -1.000000 0.000000
vn 0.000000 0.000000 -1.000000
vn 0.000000 0.000000 -1.000000
vn 0.000000 0.000000 -1.000000
vn 0.000000 0.000000 -1.000000
vn -1.000000 0.000000 -0.000000
vn -1.000000 0.000000 0.000000
vn -1.000000 0.000000 0.000000
vn -1.000000 0.000000 -0.000000
vn 0.000000 -1.000000 0.000000
vn 0.000000 -1.000000 0.000000
vn 0.000000 -1.000000 0.000000
vn 0.000000 -1.000000 0.000000
vn 0.000000 -1.000000 0.000000
vn 0.000000 -1.000000 0.000000
vn 0.000000 -1.000000 0.000000
vn 0.000000 -1.000000 0.000000
vn -0.000000 -1.000000 0.000000
vn -0.000000 -1.000000 0.000000
vn -0.000000 -1.000000 0.000000
vn -0.000000 -1.000000 0.000000
vn 0.000000 -1.000000 0.000000
vn 0.000000 -1.000000 0.000000
vn 0.000000 -1.000000 0.000000
vn 0.000000 -1.000000 0.000000
vn 0.000000 -1.000000 0.000000
vn 0.000000 -1.000000 0.000000
vn 0.000000 -1.000000 0.000000
vn 0.000000 -1.000000 0.000000
vn 1.000000 0.000000 -0.000000
vn 1.000000 0.000000 -0.000000
vn 1.000000 0.000000 0.000000
vn 1.000000 0.000000 0.000000
vn 0.000000 1.000000 -0.000000
vn 0.000000 1.000000 -0.000000
vn 0.000000 1.000000 -0.000000
vn 0.000000 1.000000 -0.000000
vn 0.000000 1.000000 0.000000
vn 0.000000 1.000000 0.000000
vn 0.000000 1.000000 0.000000
vn 0.000000 1.000000 0.000000
vn 0.000000 1.000000 0.000000
vn 0.000000 1.000000 0.000000
vn 0.000000 1.000000 0.000000
vn 0.000000 1.000000 0.000000
vn -0.000000 1.000000 0.000000
vn -0.000000 1.000000 0.000000
vn -0.000000 1.000000 0.000000
vn -0.000000 1.000000 0.000000
vn -0.000000 1.000000 0.000000
vn -0.000000 1.000000 0.000000
vn -0.000000 1.000000 0.000000
vn 0.000000 1.000000 0.000000
vn 0.000000 -1.000000 0.000000
vn 0.000000 -1.000000 0.000000
vn 0.000000 -1.000000 0.000000
vn 0.000000 -1.000000 0.000000
vn 0.000000 -1.000000 0.000000
vn 0.000000 -1.000000 0.000000
vn 0.000000 -1.000000 0.000000
vn 0.000000 -1.000000 0.000000
vn -0.000000 0.000000 1.000000
vn 0.000000 0.000000 1.000000
vn 0.000000 0.000000 1.000000
vn -0.000000 0.000000 1.000000
vn 0.000000 1.000000 -0.000000
vn 0.000000 1.000000 -0.000000
vn 0.000000 1.000000 -0.000000
vn 0.000000 1.000000 0.000000
vn 0.000000 1.000000 0.000000
vn 0.000000 1.000000 0.000000
vn 0.000000 1.000000 0.000000
vn 0.000000 1.000000 0.000000
vn 0.000000 0.000000 -1.000000
vn 0.000000 0.000000 -1.000000
vn 0.000000 0.000000 -1.000000
vn 0.000000 0.000000 -1.000000
vn 0.000000 -1.000000 0.000000
vn 0.000000 -1.000000 0.000000
vn 0.000000 -1.000000 0.000000
vn 0.000000 -1.000000 0.000000
vn 0.000000 -1.000000 0.000000
vn 0.000000 -1.000000 0.000000
vn 0.000000 -1.000000 0.000000
vn 0.000000 -1.000000 0.000000
vn 0.000001 0.000000 -1.000000
vn 0.000001 0.000000 -1.000000
vn 0.000001 0.000000 -1.000000
vn 0.000001 0.000000 -1.000000
vn 0.000000 1.000000 0.000000
vn 0.000000 1.000000 0.000000
vn 0.000000 1.000000 0.000000
vn 0.000000 1.000000 0.000000
vn 0.000000 1.000000 0.000000
vn 0.000000 1.000000 0.000000
vn 0.000000 1.000000 0.000000
vn 0.000000 1.000000 0.000000
vn 0.000001 0.000000 1.000000
vn 0.000001 0.000000 1.000000
vn 0.000001 0.000000 1.000000
vn 0.000001 0.000000 1.000000
vn 0.000000 0.000000 1.000000
vn 0.000000 0.000000 1.000000
vn 0.000000 0.000000 1.000000
vn 0.000000 0.000000 1.000000
vn 0.000000 0.000000 1.000000
vn 0.000000 0.000000 1.000000
vn 0.000000 0.000000 1.000000
vn 0.000000 0.000000 1.000000
vn 0.000000 0.000000 -1.000000
vn 0.000000 0.000000 -1.000000
vn 0.000000 0.000000 -1.000000
vn 0.000000 0.000000 -1.000000
vn -0.000000 0.000000 1.000000
vn -0.000000 0.000000 1.000000
vn -0.000000 0.000000 1.000000
vn -0.000000 0.000000 1.000000
vn 0.000000 0.000000 1.000000
vn 0.000000 0.000000 1.000000
vn 0.000000 0.000000 1.000000
vn 0.000000 0.000000 1.000000
vn -1.000000 0.000000 0.000000
vn -1.000000 0.000000 -0.000000
vn 0.000000 1.000000 0.000000
vn -1.000000 0.000000 0.000000
vn -0.000000 0.000000 1.000000
vn 0.000000 0.000000 1.000000
vn 0.000000 0.000000 1.000000
vn 0.000000 1.000000 0.000000
vn 0.000000 0.000000 -1.000000
vn 0.000000 0.000000 -1.000000
vn 0.000000 0.000000 -1.000000
vn 0.000000 0.000000 -1.000000
vn -1.000000 0.000000 0.000000
vn -1.000000 0.000000 0.000000
vn -1.000000 0.000000 0.000000
vn -1.000000 0.000000 0.000000
vn 1.000000 0.000000 0.000000
vn 1.000000 0.000000 0.000000
vn 1.000000 0.000000 0.000000
vn 1.000000 0.000000 0.000000
vn 0.000000 0.000000 -1.000000
vn 0.000000 0.000000 -1.000000
vn 0.000000 0.000000 -1.000000
vn 0.000000 0.000000 -1.000000
vn -1.000000 0.000000 0.000000
vn -1.000000 0.000000 0.000000
vn -1.000000 0.000000 0.000000
vn -1.000000 0.000000 0.000000
vn 1.000000 0.000000 0.000000
vn 1.000000 0.000000 0.000000
vn 1.000000 0.000000 0.000000
vn 1.000000 0.000000 0.000000
vn 0.000000 0.000000 -1.000000
vn 0.000000 0.000000 -1.000000
vn 0.000000 0.000000 -1.000000
vn 0.000000 0.000000 -1.000000
vn 0.000000 0.000000 -1.000000
vn 0.000000 0.000000 -1.000000
vn 0.000000 1.000000 0.000000
vn 0.000000 0.000000 -1.000000
vn -1.000000 0.000000 -0.000000
vn -1.000000 0.000000 0.000000
vn -1.000000 0.000000 0.000000
vn 0.000000 1.000000 0.000000
vn 0.000000 0.000000 1.000000
vn -0.000000 0.000000 1.000000
vn 0.000000 1.000000 0.000000
vn 0.000000 0.000000 1.000000
vn 1.000000 0.000000 0.000000
vn 1.000000 0.000000 0.000006
vn 1.000000 0.000000 0.000006
vn 0.000000 1.000000 0.000000
vn 0.000000 0.000000 -1.000000
vn 0.000000 0.000000 -1.000000
vn 0.000000 0.000000 -1.000000
vn 0.000000 1.000000 0.000000
vn 1.000000 0.000000 -0.000000
vn 1.000000 0.000000 0.000000
vn 0.000000 1.000000 0.000000
vn 1.000000 0.000000 -0.000000
vn 0.000000 0.000000 -1.000000
vn 0.000000 0.000000 -1.000000
vn 0.000000 0.000000 -1.000000
vn 0.000000 0.000000 -1.000000
vn 0.000001 0.000000 1.000000
vn 0.000001 0.000000 1.000000
vn 0.000001 0.000000 1.000000
vn 0.000001 0.000000 1.000000
vn 0.000000 0.000000 -1.000000
vn 0.000000 0.000000 -1.000000
vn 0.000000 0.000000 -1.000000
vn 0.000000 0.000000 -1.000000
vn 0.000000 0.000000 1.000000
vn 0.000000 0.000000 1.000000
vn 0.000000 0.000000 1.000000
vn 0.000000 0.000000 1.000000
vn 0.000000 0.000000 1.000000
vn 0.000000 0.000000 1.000000
vn 0.000000 0.000000 1.000000
vn 0.000000 0.000000 1.000000
vn 0.000000 0.000000 -1.000000
vn 0.000000 0.000000 -1.000000
vn 0.000000 0.000000 -1.000000
vn 0.000000 0.000000 -1.000000
vn -0.000000 0.000000 1.000000
vn -0.000000 0.000000 1.000000
vn -0.000000 0.000000 1.000000
vn -0.000000 0.000000 1.000000
vn 0.000000 0.000000 1.000000
vn 0.000000 0.000000 1.000000
vn 0.000000 0.000000 1.000000
vn 0.000000 0.000000 1.000000
vn -1.000000 0.000000 0.000000
vn 0.000000 1.000000 0.000000
vn 0.000000 1.000000 0.000000
vn -1.000000 0.000000 0.000000
vn 0.000000 1.000000 0.000000
vn 0.000000 0.000000 1.000000
vn 0.000000 0.000000 1.000000
vn 0.000000 1.000000 0.000000
vn 0.000000 0.000000 -1.000000
vn 0.000000 0.000000 -1.000000
vn 0.000000 0.000000 -1.000000
vn 0.000000 0.000000 -1.000000
vn -1.000000 0.000000 0.000000
vn -1.000000 0.000000 0.000000
vn -1.000000 0.000000 0.000000
vn -1.000000 0.000000 0.000000
vn 1.000000 0.000000 0.000000
vn 1.000000 0.000000 0.000000
vn 1.000000 0.000000 0.000000
vn 1.000000 0.000000 0.000000
vn 0.000000 0.000000 -1.000000
vn 0.000000 0.000000 -1.000000
vn 0.000000 0.000000 -1.000000
vn 0.000000 0.000000 -1.000000
vn 0.000009 0.000000 -1.000000
vn 0.000000 1.000000 0.000000
vn 0.000000 1.000000 0.000000
vn 0.000009 0.000000 -1.000000
vn 0.000000 1.000000 0.000000
vn -1.000000 0.000000 0.000000
vn -1.000000 0.000000 0.000000
vn 0.000000 1.000000 0.000000
vn 0.000000 0.000000 1.000000
vn 0.000000 1.000000 0.000000
vn 0.000000 1.000000 0.000000
vn 0.000000 0.000000 1.000000
vn 0.000000 1.000000 0.000000
vn 1.000000 0.000000 0.000006
vn 1.000000 0.000000 0.000006
vn 0.000000 1.000000 0.000000
vn 0.000000 1.000000 0.000000
vn 0.000000 0.000000 -1.000000
vn 0.000000 0.000000 -1.000000
vn 0.000000 1.000000 0.000000
vn 1.000000 0.000000 -0.000000
vn 0.000000 1.000000 0.000000
vn 0.000000 1.000000 0.000000
vn 1.000000 0.000000 -0.000000
vn 0.000000 0.000000 -1.000000
vn 0.000000 0.000000 -1.000000
vn 0.000000 0.000000 -1.000000
vn 0.000000 0.000000 -1.000000
vn 0.000001 0.000000 1.000000
vn 0.000001 0.000000 1.000000
vn 0.000001 0.000000 1.000000
vn 0.000001 0.000000 1.000000
s off
g ThePitB polySurface23
usemtl test3:initialShadingGroup
f 12/1/1 9/2/2 16/3/3 13/4/4
f 69/5/5 70/6/6 71/7/7 72/8/8
f 10/9/9 11/10/10 14/11/11 15/12/12
f 29/13/13 30/14/14 10/9/15 15/12/16
f 25/15/17 26/16/18 8/17/19 6/18/20
f 7/19/21 31/20/22 32/21/23 5/22/24
f 37/23/25 38/24/26 41/25/27 42/26/28
f 38/24/29 39/27/30 46/28/31 41/25/32
f 73/29/33 74/30/34 75/31/35 76/32/36
f 40/33/37 36/34/38 43/35/39 44/36/40
f 72/8/41 71/7/42 77/37/43 78/38/44
f 15/12/45 14/11/46 18/39/47 19/40/48
f 28/41/49 29/13/50 15/12/51 19/40/52
f 13/4/53 16/3/54 20/42/55 17/43/56
f 78/38/57 77/37/58 79/44/59 80/45/60
f 19/40/61 18/39/62 22/46/63 23/47/64
f 27/48/65 28/41/66 19/40/67 23/47/68
f 17/43/69 20/42/70 24/49/71 21/50/72
f 80/45/73 79/44/74 81/51/75 82/52/76
f 23/47/77 22/46/78 6/53/79 8/54/80
f 26/55/81 27/48/82 23/47/83 8/54/84
f 21/50/85 24/49/86 2/56/87 4/57/88
f 2/56/89 26/16/90 25/15/91 4/57/92
f 24/58/93 27/48/94 26/55/95 2/59/96
f 20/60/97 28/41/98 27/48/99 24/58/100
f 16/61/101 29/13/102 28/41/103 20/60/104
f 9/62/105 30/14/106 29/13/107 16/61/108
f 36/63/109 37/23/110 42/26/111 43/64/112
f 32/21/113 31/20/114 1/65/115 3/66/116
f 74/30/117 83/67/118 84/68/119 75/31/120
f 49/69/121 48/70/122 61/71/123 62/72/124
f 35/73/125 34/74/126 13/4/127 17/43/128
f 79/44/129 77/37/130 85/75/131 86/76/132
f 81/51/133 79/44/134 86/76/135 87/77/136
f 31/78/137 37/23/138 36/63/139 1/79/140
f 7/80/141 38/24/142 37/23/143 31/78/144
f 5/81/145 39/27/146 38/24/147 7/80/148
f 88/82/149 74/30/150 73/29/151 89/83/152
f 90/84/153 83/67/154 74/30/155 88/82/156
f 1/65/157 36/34/158 40/33/159 3/66/160
f 42/26/161 41/25/162 10/9/163 30/14/164
f 43/64/165 42/26/166 30/14/167 9/62/168
f 44/36/169 43/35/170 9/2/171 12/1/172
f 45/85/173 44/36/174 12/1/175 33/86/176
f 76/32/177 75/31/178 70/6/179 69/5/180
f 41/25/181 46/28/182 11/10/183 10/9/184
f 14/11/185 11/10/186 47/87/187 50/88/188
f 46/28/189 39/27/190 51/89/191 53/90/192
f 34/74/193 35/73/194 54/91/195 49/69/196
f 18/39/197 14/11/198 50/88/199 55/92/200
f 22/46/201 18/39/202 55/92/203 56/93/204
f 25/94/205 6/53/206 58/95/207 57/96/208
f 6/53/209 22/46/210 56/93/211 58/95/212
f 40/33/213 44/36/214 60/97/215 59/98/216
f 44/36/217 45/85/218 52/99/219 60/97/220
f 33/86/221 12/1/222 61/71/223 48/70/224
f 12/1/225 13/4/226 62/72/227 61/71/228
f 13/4/229 34/74/230 49/69/231 62/72/232
f 35/73/233 17/43/234 63/100/235 54/91/236
f 17/43/237 21/50/238 64/101/239 63/100/240
f 21/50/241 4/57/242 65/102/243 64/101/244
f 4/57/245 25/94/246 57/96/247 65/102/248
f 39/27/249 5/81/250 67/103/251 51/89/252
f 5/81/253 32/104/254 66/105/255 67/103/256
f 3/66/257 40/33/258 59/98/259 68/106/260
f 32/104/261 3/66/262 68/106/263 66/105/264
f 45/85/265 33/86/266 48/70/267 52/99/268
f 11/10/269 46/28/270 53/90/271 47/87/272
f 48/70/273 49/69/274 71/7/275 70/6/276
f 50/88/277 47/87/278 69/5/279 72/8/280
f 53/90/281 51/89/282 73/29/283 76/32/284
f 49/69/285 54/91/286 77/37/287 71/7/288
f 55/92/289 50/88/290 72/8/291 78/38/292
f 56/93/293 55/92/294 78/38/295 80/45/296
f 57/96/297 58/95/298 82/52/299 81/51/300
f 58/95/301 56/93/302 80/45/303 82/52/304
f 59/98/305 60/97/306 84/68/307 83/67/308
f 60/97/309 52/99/310 75/31/311 84/68/312
f 54/91/313 63/100/314 85/75/315 77/37/316
f 63/100/317 64/101/318 86/76/319 85/75/320
f 64/101/321 65/102/322 87/77/323 86/76/324
f 65/102/325 57/96/326 81/51/327 87/77/328
f 51/89/329 67/103/330 89/83/331 73/29/332
f 67/103/333 66/105/334 88/82/335 89/83/336
f 68/106/337 59/98/338 83/67/339 90/84/340
f 66/105/341 68/106/342 90/84/343 88/82/344
f 52/99/345 48/70/346 70/6/347 75/31/348
f 47/87/349 53/90/350 76/32/351 69/5/352
