# This file uses centimeters as units for non-parametric coordinates.

mtllib ThePit1.mtl
g default
v -163.888824 -0.754407 36.737564
v -163.888824 -0.754407 -27.454773
v -163.888824 0.045593 -27.454773
v -163.888824 0.045593 36.737564
v -205.391220 -0.754407 1.591888
v -205.391220 -0.754407 8.326935
v -212.126266 -0.754407 8.326935
v -311.116180 0.045593 36.737564
v -311.116180 -0.754407 36.737564
v -212.126266 -0.754407 1.591888
v -233.907532 -0.754407 23.334534
v -270.657776 -0.754407 23.334534
v -311.116180 -0.754407 -27.454773
v -311.116180 0.045593 -27.454773
v -270.657776 -0.754407 22.373108
v -270.657776 -0.754407 -13.415710
v -233.907532 -0.754407 -13.415710
v -233.907532 -0.754407 9.325165
v -205.391220 -0.354367 8.326935
v -205.274078 -0.071553 8.444080
v -204.991257 0.045593 8.726894
v -205.391220 -0.354367 1.591888
v -205.274078 -0.071553 1.474743
v -204.991257 0.045593 1.191929
v -212.126266 -0.354367 8.326935
v -212.243408 -0.071553 8.444080
v -212.526230 0.045593 8.726894
v -212.126266 -0.354367 1.591888
v -212.243408 -0.071553 1.474743
v -212.526230 0.045593 1.191929
v -270.657776 -0.354367 23.334534
v -270.774933 -0.071553 23.451679
v -271.057739 0.045593 23.734493
v -233.907532 -0.354367 23.334534
v -233.790390 -0.071553 23.451679
v -233.507568 0.045593 23.734493
v -270.657776 -0.354367 -13.415710
v -270.774933 -0.071553 -13.532856
v -271.057739 0.045593 -13.815670
v -233.907532 -0.354367 -13.415710
v -233.790390 -0.071553 -13.532856
v -233.507568 0.045593 -13.815670
v -259.451263 0.028278 -13.415710
v -259.850830 0.040521 -13.581302
v -260.016357 0.045593 -13.981074
v -233.907532 0.016603 -5.678474
v -233.742081 0.037102 -6.077382
v -233.342651 0.045593 -6.242615
vt 0.125000 0.000000
vt 0.375000 0.000000
vt 0.125000 0.250000
vt 0.625000 0.750000
vt 0.375000 0.750000
vt 0.625000 0.000000
vt 0.875000 0.000000
vt 0.875000 0.250000
vt 0.456910 0.886876
vt 0.456910 0.860647
vt 0.493896 0.856759
vt 0.556299 0.805943
vt 0.556299 0.802199
vt 0.493896 0.802199
vt 0.445473 0.860647
vt 0.375000 1.000000
vt 0.445473 0.886876
vt 0.493896 0.945324
vt 0.625000 1.000000
vt 0.556299 0.945324
vt 0.125000 0.120967
vt 0.375000 0.135816
vt 0.375000 0.614184
vt 0.375000 0.629033
vt 0.625000 0.629033
vt 0.375000 0.120967
vt 0.625000 0.135816
vt 0.875000 0.120967
vt 0.625000 0.120967
vt 0.875000 0.135816
vt 0.375000 0.623018
vt 0.375000 0.625739
vt 0.625000 0.625739
vt 0.875000 0.124261
vt 0.875000 0.126982
vt 0.868460 0.124261
vt 0.625000 0.124261
vt 0.625000 0.126982
vt 0.375000 0.124261
vt 0.548766 0.129585
vt 0.375000 0.126982
vt 0.322366 0.129506
vt 0.220301 0.124261
vt 0.125000 0.124261
vt 0.125000 0.126982
vt 0.538230 0.302474
vt 0.493217 0.303118
vt 0.375000 0.250000
vt 0.444794 0.361566
vt 0.492937 0.332612
vt 0.625000 0.250000
vt 0.556978 0.303118
vt 0.625000 0.500000
vt 0.556978 0.449359
vt 0.375000 0.500000
vt 0.444794 0.390911
vt 0.457589 0.390911
vt 0.493235 0.446287
vt 0.457589 0.361566
vt 0.125000 0.135816
vt 0.625000 0.614184
vt 0.625000 0.623018
vt 0.493217 0.449359
vt 0.375000 0.599338
vt 0.445473 0.389353
vt 0.125000 0.150662
vt 0.445473 0.363124
vt 0.375000 0.150662
vt 0.875000 0.150662
vt 0.456910 0.389353
vt 0.625000 0.599338
vt 0.456910 0.363124
vt 0.625000 0.150662
vt 0.875000 0.129703
vt 0.556299 0.447801
vt 0.625000 0.620297
vt 0.493896 0.447801
vt 0.125000 0.129703
vt 0.375000 0.620297
vt 0.625000 0.129703
vt 0.556299 0.304676
vt 0.375000 0.129703
vt 0.493896 0.304676
vt 0.538230 0.304676
vt 0.552610 0.129703
vt 0.493896 0.332612
vt 0.326204 0.129703
vn 1.000000 0.000000 0.000000
vn 1.000000 0.000000 0.000000
vn 1.000000 0.000000 0.000000
vn 1.000000 0.000000 0.000000
vn -0.000000 0.000000 1.000000
vn -0.000000 0.000000 1.000000
vn -0.000000 0.000000 1.000000
vn -0.000000 0.000000 1.000000
vn 0.000000 0.000000 -1.000000
vn 0.000000 0.000000 -1.000000
vn 0.000000 0.000000 -1.000000
vn 0.000000 0.000000 -1.000000
vn -1.000000 0.000000 -0.000000
vn -1.000000 0.000000 -0.000000
vn -1.000000 0.000000 -0.000000
vn -1.000000 0.000000 -0.000000
vn 0.000000 -1.000000 0.000000
vn 0.000000 -1.000000 0.000000
vn 0.000000 -1.000000 0.000000
vn 0.000000 -1.000000 0.000000
vn 0.000000 -1.000000 0.000000
vn 0.000000 -1.000000 0.000000
vn 0.000000 -1.000000 0.000000
vn 0.000000 -1.000000 0.000000
vn 0.000000 -1.000000 0.000000
vn 0.000000 -1.000000 0.000000
vn 0.000000 -1.000000 0.000000
vn 0.000000 -1.000000 0.000000
vn 0.000000 -1.000000 0.000000
vn 0.000000 -1.000000 0.000000
vn 0.000000 -1.000000 0.000000
vn 0.000000 -1.000000 0.000000
vn 0.000000 -1.000000 0.000000
vn 0.000000 -1.000000 0.000000
vn 0.000000 -1.000000 0.000000
vn 0.000000 -1.000000 0.000000
vn -1.000000 0.000000 0.000000
vn -1.000000 0.000000 0.000000
vn -0.981575 0.191080 0.000000
vn -0.981575 0.191080 0.000000
vn 0.000000 0.191074 -0.981576
vn 0.000000 0.191074 -0.981576
vn 0.000000 0.000000 -1.000000
vn 0.000000 0.000000 -1.000000
vn 0.000000 0.000000 1.000000
vn 0.000000 0.000000 1.000000
vn 0.000000 0.191074 0.981576
vn 0.000000 0.191074 0.981576
vn 1.000000 0.000000 0.000000
vn 1.000000 0.000000 0.000000
vn 0.981585 0.191026 0.000000
vn 0.981585 0.191026 0.000000
vn 0.000000 0.189703 -0.981842
vn 0.000000 0.189701 -0.981842
vn 0.000000 0.000000 -1.000000
vn 0.000000 0.000000 -1.000000
vn 1.000000 0.000000 0.000000
vn 1.000000 -0.000132 0.000000
vn 0.941246 0.337721 0.000000
vn 0.966369 0.257160 0.000000
vn 1.000000 0.000000 0.000000
vn 0.000000 0.000000 1.000000
vn 0.000000 0.000000 1.000000
vn 0.000000 0.000000 1.000000
vn 0.000000 0.000000 1.000000
vn 0.000000 0.000000 1.000000
vn -1.000000 0.000000 0.000000
vn -1.000000 0.000000 0.000000
vn -1.000000 0.000002 0.000000
vn -1.000000 0.000042 0.000000
vn -1.000000 0.000000 0.000000
vn -1.000000 0.000000 0.000000
vn 0.000000 1.000000 0.000000
vn -0.000004 0.999999 0.001154
vn 0.000000 1.000000 0.000000
vn -0.000391 0.999999 0.001301
vn 0.000000 1.000000 -0.000000
vn -0.000209 1.000000 -0.000209
vn -0.000433 1.000000 0.000433
vn -0.002967 0.999996 -0.000009
vn 0.001388 0.999998 0.001388
vn 0.001551 0.999999 0.000248
vn 0.000000 1.000000 -0.000000
vn 0.000888 0.999999 -0.000888
vn -0.001058 0.999997 -0.002445
vn 0.002196 0.999995 -0.002196
vn -0.923874 0.382696 0.000000
vn -0.923874 0.382696 0.000000
vn -0.382682 0.923880 0.000000
vn -0.382682 0.923880 0.000000
vn 0.000000 0.382684 0.923879
vn 0.000000 0.382684 0.923879
vn 0.000000 0.923880 0.382683
vn 0.000000 0.923880 0.382683
vn 0.000000 0.923880 -0.382683
vn 0.000000 0.923880 -0.382683
vn 0.000000 0.382684 -0.923879
vn 0.000000 0.382684 -0.923879
vn 0.382662 0.923888 0.000000
vn 0.382662 0.923888 0.000000
vn 0.923916 0.382596 0.000000
vn 0.923916 0.382596 0.000000
vn 0.000000 0.382683 -0.923880
vn 0.000000 0.382683 -0.923880
vn 0.000000 0.923879 -0.382684
vn -0.088124 0.974746 -0.205193
vn -0.729298 0.684178 0.005003
vn -0.729298 0.684178 0.005003
vn -0.741010 0.671414 -0.010376
vn -0.729994 0.683442 0.004104
vn -0.181652 0.983363 0.000394
vn 0.382705 0.923871 0.000000
vn 0.290954 0.955653 0.045537
vn 0.923834 0.382794 0.000000
vn 0.923834 0.382794 0.000000
vn 0.005986 0.694840 0.719140
vn 0.005986 0.694839 0.719140
vn -0.008792 0.683161 0.730215
vn 0.004813 0.693924 0.720032
vn -0.040250 0.989773 0.136856
vn 0.000439 0.984237 0.176852
vn -0.013579 0.679307 0.733729
vn -0.013579 0.679307 0.733729
vn -0.747111 0.664439 -0.018600
vn -0.747111 0.664439 -0.018600
s off
g polySurface104 polySurface73
usemtl test3:initialShadingGroup
f 1/1/1 2/2/2 3/48/3 4/3/4
f 4/55/5 8/53/6 9/4/7 1/5/8
f 2/2/9 13/6/10 14/51/11 3/48/12
f 13/6/13 9/7/14 8/8/15 14/51/16
s 1
f 10/9/17 7/10/18 18/11/19
f 15/12/20 12/13/21 9/4/22
f 9/4/22 12/13/21 1/5/23
f 12/13/21 11/14/24 1/5/23
f 18/11/19 7/10/18 11/14/24
f 1/5/23 11/14/24 6/15/25
f 7/10/18 6/15/25 11/14/24
s 3
f 1/5/26 6/15/27 2/16/28
f 6/15/27 5/17/29 2/16/28
f 18/11/30 17/18/31 10/9/32
f 9/4/33 13/19/34 15/12/35
f 15/12/35 13/19/34 16/20/36
f 13/19/34 2/16/28 16/20/36
f 16/20/36 2/16/28 17/18/31
f 2/16/28 5/17/29 17/18/31
f 5/17/29 10/9/32 17/18/31
s 6
f 5/26/37 6/21/38 19/60/39 22/22/40
s 7
f 25/61/41 19/23/42 6/24/43 7/25/44
s 8
f 10/29/45 5/26/46 22/22/47 28/27/48
s 9
f 7/28/49 10/29/50 28/27/51 25/30/52
s 10
f 31/62/53 34/31/54 11/32/55 12/33/56
s 11
f 12/34/57 15/36/58 31/35/59
f 31/35/59 15/36/58 37/38/60
f 15/36/58 16/37/61 37/38/60
s 12
f 16/37/62 17/39/63 37/38/64
f 37/38/64 17/39/63 43/40/65
f 17/39/63 40/41/66 43/40/65
s 13
f 17/39/67 18/43/68 40/41/69
f 40/41/69 18/43/68 46/42/70
f 46/42/70 18/43/68 34/45/71
f 18/43/68 11/44/72 34/45/71
s 14
f 14/51/73 45/46/74 3/48/75
f 45/46/74 42/47/76 3/48/75
f 4/55/77 3/48/75 21/56/78
f 21/56/78 3/48/75 24/49/79
f 42/47/76 48/50/80 3/48/75
f 3/48/75 48/50/80 24/49/79
f 24/49/79 48/50/80 30/59/81
f 45/46/74 14/51/73 39/52/82
f 14/51/73 8/53/83 39/52/82
f 39/52/82 8/53/83 33/54/84
f 8/53/83 4/55/77 33/54/84
f 33/54/84 4/55/77 36/63/85
f 4/55/77 21/56/78 36/63/85
f 21/56/78 27/57/86 36/63/85
f 48/50/80 36/58/85 30/59/81
f 27/57/86 30/59/81 36/63/85
s 6
f 19/60/39 20/66/87 23/68/88 22/22/40
s 14
f 20/65/89 21/56/78 24/49/79 23/67/90
s 8
f 22/22/47 23/68/91 29/73/92 28/27/48
s 14
f 23/67/93 24/49/79 30/59/81 29/72/94
f 21/56/78 20/65/95 26/70/96 27/57/86
s 7
f 20/64/97 19/23/42 25/61/41 26/71/98
s 14
f 27/57/86 26/70/99 29/72/100 30/59/81
s 9
f 26/69/101 25/30/52 28/27/51 29/73/102
s 10
f 31/62/53 32/76/103 35/79/104 34/31/54
s 14
f 32/75/105 33/54/84 36/63/85 35/77/106
s 16
f 34/45/107 35/78/108 47/87/109 46/42/110
s 14
f 35/77/106 36/58/85 48/50/80 47/86/111
f 33/54/84 32/75/112 38/81/113 39/52/82
s 11
f 32/74/114 31/35/59 37/38/60 38/80/115
s 17
f 40/41/116 41/82/117 44/85/118 43/40/119
s 14
f 41/83/120 42/47/76 45/46/74 44/84/121
f 39/52/82 38/81/113 44/84/121 45/46/74
s 17
f 38/80/122 37/38/123 43/40/119 44/85/118
s 14
f 42/47/76 41/83/120 47/86/111 48/50/80
s 16
f 41/82/124 40/41/125 46/42/110 47/87/109
