# This file uses centimeters as units for non-parametric coordinates.

mtllib torch.mtl
g default
v 0.087453 -0.053780 -0.151473
v -0.087453 -0.053780 -0.151473
v -0.174906 -0.053780 -0.000000
v -0.087453 -0.053780 0.151473
v 0.087453 -0.053780 0.151473
v 0.174906 -0.053780 0.000000
v 0.087453 1.946220 -0.151473
v -0.087453 1.946220 -0.151473
v -0.174906 1.946220 -0.000000
v -0.087453 1.946220 0.151473
v 0.087453 1.946220 0.151473
v 0.174906 1.946220 0.000000
v 0.000000 -0.053780 0.000000
v 0.000000 1.946220 0.000000
v 0.130661 1.932584 -0.226311
v -0.130661 1.932584 -0.226311
v -0.261321 1.932584 -0.000000
v -0.130661 1.932584 0.226311
v 0.130661 1.932584 0.226311
v 0.261321 1.932584 0.000000
v 0.130661 2.125432 -0.226311
v -0.130661 2.125432 -0.226311
v -0.261321 2.125432 -0.000000
v -0.130661 2.125432 0.226311
v 0.130661 2.125432 0.226311
v 0.261321 2.125432 0.000000
v 0.000000 1.932584 0.000000
v 0.000000 2.125432 0.000000
v 0.315352 2.269900 -0.120250
v 0.262731 2.269900 -0.211392
v 0.210110 2.269900 -0.120250
v 0.249207 2.270097 0.202252
v 0.291648 2.270097 0.128743
v 0.206767 2.270097 0.128743
v -0.046597 2.270665 0.303837
v 0.046597 2.270665 0.303837
v -0.000000 2.270665 0.223129
v 0.051279 2.269001 -0.313402
v -0.051279 2.269001 -0.313402
v 0.000000 2.269001 -0.224584
v -0.315765 2.268968 0.114183
v -0.263407 2.268968 0.204871
v -0.211048 2.268968 0.114183
v -0.257360 2.270173 -0.207129
v -0.305496 2.270173 -0.123755
v -0.209225 2.270173 -0.123755
vt 0.375000 0.312500
vt 0.416667 0.312500
vt 0.416667 0.688440
vt 0.375000 0.688440
vt 0.458333 0.312500
vt 0.458333 0.688440
vt 0.500000 0.312500
vt 0.500000 0.688440
vt 0.541667 0.312500
vt 0.541667 0.688440
vt 0.583333 0.312500
vt 0.583333 0.688440
vt 0.625000 0.312500
vt 0.625000 0.688440
vt 0.421875 0.020934
vt 0.578125 0.020934
vt 0.500000 0.150000
vt 0.343750 0.156250
vt 0.421875 0.291566
vt 0.578125 0.291566
vt 0.656250 0.156250
vt 0.578125 0.979066
vt 0.421875 0.979066
vt 0.500000 0.837500
vt 0.343750 0.843750
vt 0.421875 0.708434
vt 0.578125 0.708434
vt 0.656250 0.843750
vt 0.375000 0.312500
vt 0.416667 0.312500
vt 0.416667 0.688440
vt 0.375000 0.688440
vt 0.458333 0.312500
vt 0.458333 0.688440
vt 0.500000 0.312500
vt 0.500000 0.688440
vt 0.541667 0.312500
vt 0.541667 0.688440
vt 0.583333 0.312500
vt 0.583333 0.688440
vt 0.625000 0.312500
vt 0.625000 0.688440
vt 0.421875 0.020934
vt 0.578125 0.020934
vt 0.500000 0.150000
vt 0.343750 0.156250
vt 0.421875 0.291566
vt 0.578125 0.291566
vt 0.656250 0.156250
vt 0.578125 0.979066
vt 0.421875 0.979066
vt 0.500000 0.837500
vt 0.421875 0.979066
vt 0.343750 0.843750
vt 0.500000 0.837500
vt 0.343750 0.843750
vt 0.421875 0.708434
vt 0.500000 0.837500
vt 0.421875 0.708434
vt 0.578125 0.708434
vt 0.500000 0.837500
vt 0.578125 0.708434
vt 0.656250 0.843750
vt 0.500000 0.837500
vt 0.656250 0.843750
vt 0.578125 0.979066
vt 0.500000 0.837500
vt 0.656250 0.843750
vt 0.578125 0.979066
vt 0.500000 0.837500
vt 0.578125 0.708434
vt 0.421875 0.708434
vt 0.421875 0.979066
vt 0.343750 0.843750
vn 0.500000 0.000000 -0.866025
vn -0.500000 0.000000 -0.866026
vn -0.500000 0.000000 -0.866026
vn 0.500000 0.000000 -0.866025
vn -1.000000 0.000000 -0.000000
vn -1.000000 0.000000 -0.000000
vn -0.500000 0.000000 0.866025
vn -0.500000 0.000000 0.866025
vn 0.500000 0.000000 0.866025
vn 0.500000 0.000000 0.866025
vn 1.000000 0.000000 0.000000
vn 1.000000 0.000000 0.000000
vn 0.000000 -1.000000 0.000000
vn 0.000000 -1.000000 0.000000
vn 0.000000 -1.000000 -0.000000
vn 0.000000 -1.000000 -0.000000
vn 0.000000 -1.000000 -0.000000
vn 0.000000 -1.000000 0.000000
vn 0.000000 -1.000000 0.000000
vn 0.000000 1.000000 0.000001
vn 0.000000 1.000000 0.000001
vn 0.000000 1.000000 0.000000
vn 0.000000 1.000000 0.000000
vn 0.000000 1.000000 0.000000
vn 0.000000 1.000000 0.000000
vn 0.000000 1.000000 0.000000
vn 0.500000 0.000000 -0.866025
vn -0.500000 0.000000 -0.866026
vn -0.490195 -0.199719 -0.848423
vn 0.491430 -0.209644 -0.845308
vn -1.000000 0.000000 -0.000000
vn -0.975452 -0.220139 0.005623
vn -0.500000 0.000000 0.866025
vn -0.493567 -0.191627 0.848334
vn 0.500000 0.000000 0.866025
vn 0.492535 -0.173826 0.852757
vn 1.000000 0.000000 0.000000
vn 0.978375 -0.206519 -0.011496
vn 0.000000 -1.000000 0.000001
vn 0.000000 -1.000000 0.000001
vn 0.000000 -1.000000 0.000000
vn 0.000000 -1.000000 0.000001
vn 0.000000 -1.000000 -0.000001
vn 0.000000 -1.000000 0.000000
vn 0.000000 -1.000000 0.000001
vn 0.000000 1.000000 0.000002
vn 0.000000 1.000000 0.000002
vn 0.000000 1.000000 0.000002
vn 0.000000 1.000000 0.000000
vn 0.000000 1.000000 0.000000
vn 0.000000 1.000000 0.000000
vn 0.000000 1.000000 0.000000
vn 0.000000 1.000000 0.000000
vn 0.000000 1.000000 0.000000
vn 0.000000 1.000000 0.000004
vn 0.000000 1.000000 0.000004
vn 0.000000 1.000000 0.000004
vn 0.000000 1.000000 0.000000
vn 0.000000 1.000000 0.000000
vn 0.000000 1.000000 0.000000
vn 0.000000 1.000000 0.000000
vn 0.000000 1.000000 0.000000
vn 0.000000 1.000000 0.000000
vn 0.696123 -0.594881 -0.401906
vn 0.696123 -0.594881 -0.401906
vn -0.662029 0.644689 -0.382222
vn -0.662029 0.644689 -0.382222
vn -0.662029 0.644689 -0.382222
vn -0.662029 0.644689 -0.382222
vn 0.000000 0.639745 0.768587
vn 0.000000 0.639745 0.768587
vn 0.000000 0.639745 0.768587
vn 0.000000 0.639745 0.768587
vn 0.733888 -0.530923 0.423710
vn 0.733888 -0.530923 0.423710
vn 0.000000 0.664803 -0.747019
vn 0.000000 0.664803 -0.747019
vn 0.000000 0.664803 -0.747019
vn 0.000000 0.664803 -0.747019
vn -0.678621 0.621260 0.391802
vn -0.678621 0.621261 0.391802
vn -0.678621 0.621260 0.391802
vn -0.678621 0.621261 0.391802
vn 0.000000 -0.470915 0.882179
vn 0.000000 -0.470915 0.882179
vn 0.686782 0.609186 -0.396514
vn 0.686782 0.609186 -0.396514
vn 0.686782 0.609185 -0.396514
vn 0.686782 0.609185 -0.396514
vn -0.686782 0.609185 -0.396514
vn -0.686782 0.609185 -0.396514
vn -0.686782 0.609185 -0.396514
vn -0.686782 0.609185 -0.396514
vn 0.000000 -0.518652 -0.854986
vn 0.000000 -0.518652 -0.854986
vn -0.682151 0.616084 0.393840
vn -0.682151 0.616084 0.393840
vn -0.682151 0.616084 0.393840
vn -0.682151 0.616084 0.393840
vn 0.682151 0.616085 0.393840
vn 0.682151 0.616085 0.393840
vn 0.682151 0.616085 0.393840
vn 0.682151 0.616085 0.393840
vn -0.700729 -0.587627 0.404565
vn -0.700729 -0.587627 0.404565
vn 0.651552 0.658767 0.376174
vn 0.651552 0.658767 0.376174
vn 0.651552 0.658767 0.376174
vn 0.651552 0.658767 0.376174
vn 0.000000 0.622549 -0.782581
vn 0.000000 0.622549 -0.782581
vn 0.000000 0.622549 -0.782581
vn 0.000000 0.622549 -0.782581
vn -0.712201 -0.568940 -0.411190
vn -0.712201 -0.568940 -0.411190
vn -0.000000 0.649860 0.760054
vn -0.000000 0.649860 0.760054
vn -0.000000 0.649860 0.760054
vn -0.000000 0.649860 0.760054
vn 0.668243 0.636083 -0.385810
vn 0.668243 0.636083 -0.385810
vn 0.668243 0.636083 -0.385810
vn 0.668243 0.636083 -0.385810
s 1
g polySurface1
usemtl lambert2SG
f 1/1/1 2/2/2 8/3/3 7/4/4
f 2/2/2 3/5/5 9/6/6 8/3/3
f 3/5/5 4/7/7 10/8/8 9/6/6
f 4/7/7 5/9/9 11/10/10 10/8/8
f 5/9/9 6/11/11 12/12/12 11/10/10
f 6/11/11 1/13/1 7/14/4 12/12/12
s 2
f 2/15/13 1/16/14 13/17/15
f 3/18/16 2/15/13 13/17/15
f 4/19/17 3/18/16 13/17/15
f 5/20/18 4/19/17 13/17/15
f 6/21/19 5/20/18 13/17/15
f 1/16/14 6/21/19 13/17/15
s 3
f 7/22/20 8/23/21 14/24/22
f 8/23/21 9/25/23 14/24/22
f 9/25/23 10/26/24 14/24/22
f 10/26/24 11/27/25 14/24/22
f 11/27/25 12/28/26 14/24/22
f 12/28/26 7/22/20 14/24/22
s 4
usemtl initialShadingGroup
f 15/29/27 16/30/28 22/31/29 21/32/30
f 16/30/28 17/33/31 23/34/32 22/31/29
f 17/33/31 18/35/33 24/36/34 23/34/32
f 18/35/33 19/37/35 25/38/36 24/36/34
f 19/37/35 20/39/37 26/40/38 25/38/36
f 20/39/37 15/41/27 21/42/30 26/40/38
s 5
f 16/43/39 15/44/40 27/45/41
f 17/46/42 16/43/39 27/45/41
f 18/47/43 17/46/42 27/45/41
f 19/48/44 18/47/43 27/45/41
f 20/49/45 19/48/44 27/45/41
f 15/44/40 20/49/45 27/45/41
s off
f 38/50/46 39/51/47 40/52/48
f 44/53/49 45/54/50 46/55/51
f 41/56/52 42/57/53 43/58/54
f 35/59/55 36/60/56 37/61/57
f 32/62/58 33/63/59 34/64/60
f 29/65/61 30/66/62 31/67/63
s 4
f 26/68/38 21/69/30 30/66/64 29/65/65
s off
f 21/69/66 28/70/67 31/67/68 30/66/69
f 28/70/70 26/68/71 29/65/72 31/67/73
s 4
f 25/71/36 26/68/38 33/63/74 32/62/75
s off
f 26/68/76 28/70/77 34/64/78 33/63/79
f 28/70/80 25/71/81 32/62/82 34/64/83
s 4
f 24/72/34 25/71/36 36/60/84 35/59/85
s off
f 25/71/86 28/70/87 37/61/88 36/60/89
f 28/70/90 24/72/91 35/59/92 37/61/93
s 4
f 21/69/30 22/73/29 39/51/94 38/50/95
s off
f 22/73/96 28/70/97 40/52/98 39/51/99
f 28/70/100 21/69/101 38/50/102 40/52/103
s 4
f 23/74/32 24/72/34 42/57/104 41/56/105
s off
f 24/72/106 28/70/107 43/58/108 42/57/109
f 28/70/110 23/74/111 41/56/112 43/58/113
s 4
f 22/73/29 23/74/32 45/54/114 44/53/115
s off
f 23/74/116 28/70/117 46/55/118 45/54/119
f 28/70/120 22/73/121 44/53/122 46/55/123
