# This file uses centimeters as units for non-parametric coordinates.

mtllib tree1.mtl
g default
v 16.642401 5.272257 -1.538014
v 15.876410 5.272257 -2.306803
v 14.791157 5.272257 -2.308782
v 14.022367 5.272257 -1.542791
v 14.020388 5.272257 -0.457537
v 14.786379 5.272257 0.311252
v 15.871633 5.272257 0.313231
v 16.640423 5.272257 -0.452760
v 15.331394 9.974092 -0.997775
v 16.723297 2.216678 -2.389678
v 15.331394 2.216678 -2.966222
v 13.939492 2.216678 -2.389678
v 13.362947 2.216678 -0.997775
v 13.939492 2.216678 0.394127
v 15.331394 2.216678 0.970672
v 16.723297 2.216678 0.394127
v 17.299841 2.216678 -0.997775
v 15.331394 8.933083 -0.997775
v 15.539616 -0.083368 -1.358424
v 15.123174 -0.083368 -1.358425
v 14.914953 -0.083368 -0.997775
v 15.123174 -0.083368 -0.637126
v 15.539616 -0.083368 -0.637126
v 15.747836 -0.083368 -0.997775
v 15.539616 2.401486 -1.358424
v 15.123174 2.401486 -1.358425
v 14.914953 2.401486 -0.997775
v 15.123174 2.401486 -0.637126
v 15.539616 2.401486 -0.637126
v 15.747836 2.401486 -0.997775
v 15.331394 -0.083368 -0.997775
v 15.331394 2.401486 -0.997775
vt 0.676777 0.073223
vt 0.500000 0.000000
vt 0.323223 0.073223
vt 0.250000 0.250000
vt 0.323223 0.426777
vt 0.500000 0.500000
vt 0.676777 0.426777
vt 0.750000 0.250000
vt 0.250000 0.500000
vt 0.312500 0.500000
vt 0.375000 0.500000
vt 0.437500 0.500000
vt 0.500000 0.500000
vt 0.562500 0.500000
vt 0.625000 0.500000
vt 0.687500 0.500000
vt 0.750000 0.500000
vt 0.500000 1.000000
vt 0.676777 0.073223
vt 0.750000 0.250000
vt 0.676777 0.426777
vt 0.500000 0.500000
vt 0.323223 0.426777
vt 0.250000 0.250000
vt 0.323223 0.073223
vt 0.500000 0.000000
vt 0.250000 0.500000
vt 0.312500 0.500000
vt 0.500000 1.000000
vt 0.375000 0.500000
vt 0.437500 0.500000
vt 0.500000 0.500000
vt 0.562500 0.500000
vt 0.625000 0.500000
vt 0.687500 0.500000
vt 0.750000 0.500000
vt 0.375000 0.312500
vt 0.416667 0.312500
vt 0.416667 0.688440
vt 0.375000 0.688440
vt 0.458333 0.312500
vt 0.458333 0.688440
vt 0.500000 0.312500
vt 0.500000 0.688440
vt 0.541667 0.312500
vt 0.541667 0.688440
vt 0.583333 0.312500
vt 0.583333 0.688440
vt 0.625000 0.312500
vt 0.625000 0.688440
vt 0.421875 0.020934
vt 0.578125 0.020934
vt 0.500000 0.150000
vt 0.343750 0.156250
vt 0.421875 0.291566
vt 0.578125 0.291566
vt 0.656250 0.156250
vt 0.578125 0.979066
vt 0.421875 0.979066
vt 0.500000 0.837500
vt 0.343750 0.843750
vt 0.421875 0.708434
vt 0.578125 0.708434
vt 0.656250 0.843750
vn 0.000000 -1.000000 0.000000
vn 0.000000 -1.000000 0.000000
vn 0.000000 -1.000000 0.000000
vn 0.000000 -1.000000 0.000000
vn 0.000000 -1.000000 0.000000
vn 0.000000 -1.000000 0.000000
vn 0.000000 -1.000000 0.000000
vn 0.000000 -1.000000 0.000000
vn 0.885198 0.288730 -0.364772
vn 0.367997 0.288731 -0.883862
vn 0.000001 1.000000 -0.000000
vn -0.364772 0.288731 -0.885198
vn -0.883862 0.288731 -0.367998
vn -0.885199 0.288731 0.364771
vn -0.367997 0.288731 0.883862
vn 0.364772 0.288731 0.885199
vn 0.883862 0.288731 0.367997
vn 0.000000 -1.000000 -0.000000
vn 0.000000 -1.000000 -0.000000
vn 0.000000 -1.000000 -0.000000
vn 0.000000 -1.000000 -0.000000
vn 0.000000 -1.000000 -0.000000
vn 0.000000 -1.000000 -0.000000
vn 0.000000 -1.000000 -0.000000
vn 0.000000 -1.000000 -0.000000
vn 0.678564 0.281250 -0.678564
vn 0.000000 0.281250 -0.959635
vn 0.000001 1.000000 -0.000000
vn -0.678564 0.281250 -0.678564
vn -0.959635 0.281250 0.000000
vn -0.678564 0.281250 0.678564
vn 0.000000 0.281250 0.959635
vn 0.678564 0.281250 0.678564
vn 0.959635 0.281250 -0.000000
vn 0.500000 0.000000 -0.866025
vn -0.500000 0.000000 -0.866026
vn -0.500000 0.000000 -0.866026
vn 0.500000 0.000000 -0.866025
vn -1.000000 0.000000 0.000000
vn -1.000000 0.000000 0.000000
vn -0.500000 0.000000 0.866025
vn -0.500000 0.000000 0.866025
vn 0.500000 0.000000 0.866025
vn 0.500000 0.000000 0.866025
vn 1.000000 0.000000 0.000000
vn 1.000000 0.000000 0.000000
vn 0.000000 -1.000000 0.000000
vn 0.000000 -1.000000 -0.000000
vn 0.000000 -1.000000 -0.000000
vn 0.000000 -1.000000 0.000000
vn 0.000000 -1.000000 -0.000000
vn 0.000000 -1.000000 -0.000000
vn 0.000000 -1.000000 -0.000000
vn 0.000000 1.000000 0.000000
vn 0.000000 1.000000 0.000000
vn 0.000000 1.000000 0.000000
vn 0.000000 1.000000 0.000000
vn 0.000000 1.000000 0.000000
vn 0.000000 1.000000 0.000000
vn 0.000000 1.000000 0.000000
s off
g Tree
usemtl initialShadingGroup
f 1/1/1 8/8/2 7/7/3 6/6/4 5/5/5 4/4/6 3/3/7 2/2/8
s 1
f 1/9/9 2/10/10 9/18/11
f 2/10/10 3/11/12 9/18/11
f 3/11/12 4/12/13 9/18/11
f 4/12/13 5/13/14 9/18/11
f 5/13/14 6/14/15 9/18/11
f 6/14/15 7/15/16 9/18/11
f 7/15/16 8/16/17 9/18/11
f 8/16/17 1/17/9 9/18/11
s off
f 10/19/18 17/20/19 16/21/20 15/22/21 14/23/22 13/24/23 12/25/24 11/26/25
s 2
f 10/27/26 11/28/27 18/29/28
f 11/28/27 12/30/29 18/29/28
f 12/30/29 13/31/30 18/29/28
f 13/31/30 14/32/31 18/29/28
f 14/32/31 15/33/32 18/29/28
f 15/33/32 16/34/33 18/29/28
f 16/34/33 17/35/34 18/29/28
f 17/35/34 10/36/26 18/29/28
s 3
f 19/37/35 20/38/36 26/39/37 25/40/38
f 20/38/36 21/41/39 27/42/40 26/39/37
f 21/41/39 22/43/41 28/44/42 27/42/40
f 22/43/41 23/45/43 29/46/44 28/44/42
f 23/45/43 24/47/45 30/48/46 29/46/44
f 24/47/45 19/49/35 25/50/38 30/48/46
s 4
f 20/51/47 19/52/48 31/53/49
f 21/54/50 20/51/47 31/53/49
f 22/55/51 21/54/50 31/53/49
f 23/56/52 22/55/51 31/53/49
f 24/57/53 23/56/52 31/53/49
f 19/52/48 24/57/53 31/53/49
s 5
f 25/58/54 26/59/55 32/60/56
f 26/59/55 27/61/57 32/60/56
f 27/61/57 28/62/58 32/60/56
f 28/62/58 29/63/59 32/60/56
f 29/63/59 30/64/60 32/60/56
f 30/64/60 25/58/54 32/60/56
