# This file uses centimeters as units for non-parametric coordinates.

mtllib tree2.mtl
g default
v 6.789182 4.552257 0.635248
v 6.789182 6.116994 -0.997373
v 6.789182 4.552257 -2.629992
v 6.789182 2.482831 -0.997373
v 8.421802 4.552257 -0.997373
v 5.156561 4.552257 -0.997373
v 6.992035 0.356162 -1.358424
v 6.575593 0.356162 -1.358425
v 6.367373 0.356162 -0.997775
v 6.575593 0.356162 -0.637126
v 6.992035 0.356162 -0.637126
v 7.200255 0.356162 -0.997775
v 6.992035 2.852413 -1.358424
v 6.575593 2.852413 -1.358425
v 6.367373 2.852413 -0.997775
v 6.575593 2.852413 -0.637126
v 6.992035 2.852413 -0.637126
v 7.200255 2.852413 -0.997775
v 6.783813 0.356162 -0.997775
v 6.783813 2.852413 -0.997775
v 5.440245 3.109676 0.351564
v 5.441913 3.209958 0.450177
v 5.341631 3.209958 0.349895
v 6.789182 3.195270 0.635248
v 6.789182 3.078916 0.555133
v 8.236732 3.209958 0.349895
v 8.135845 3.210646 0.450260
v 8.138119 3.109676 0.351564
v 5.341631 5.894557 0.349895
v 5.442518 5.893868 0.450260
v 5.440245 5.994839 0.351564
v 6.789182 5.898780 0.635248
v 6.789182 6.002070 0.538594
v 8.138119 5.994839 0.351564
v 8.136451 5.894557 0.450177
v 8.236732 5.894557 0.349895
v 5.341548 5.893868 -2.344035
v 5.440245 5.994839 -2.346309
v 5.442518 5.893868 -2.445006
v 6.789182 6.002070 -2.533339
v 6.789182 5.898780 -2.629992
v 8.135845 5.893868 -2.445006
v 8.138119 5.994839 -2.346309
v 8.236815 5.893868 -2.344035
v 5.341631 3.209958 -2.344640
v 5.442518 3.210646 -2.445006
v 5.440245 3.109676 -2.346309
v 6.789182 3.195270 -2.629992
v 6.789182 3.078916 -2.549878
v 8.138119 3.109676 -2.346309
v 8.136451 3.209958 -2.444922
v 8.236732 3.209958 -2.344640
v 5.441308 4.552257 0.450094
v 5.341714 4.552257 0.350501
v 8.137055 4.552257 0.450094
v 8.236650 4.552257 0.350500
v 5.253214 6.002070 -0.997373
v 5.156561 5.898780 -0.997373
v 8.325148 6.002070 -0.997373
v 8.421802 5.898780 -0.997373
v 5.441308 4.552257 -2.444839
v 5.341714 4.552257 -2.345246
v 8.137055 4.552257 -2.444839
v 8.236650 4.552257 -2.345246
v 5.236676 3.078916 -0.997373
v 5.156561 3.195270 -0.997373
v 8.341687 3.078916 -0.997373
v 8.421802 3.195270 -0.997373
vt 0.375000 0.312500
vt 0.416667 0.312500
vt 0.416667 0.688440
vt 0.375000 0.688440
vt 0.458333 0.312500
vt 0.458333 0.688440
vt 0.500000 0.312500
vt 0.500000 0.688440
vt 0.541667 0.312500
vt 0.541667 0.688440
vt 0.583333 0.312500
vt 0.583333 0.688440
vt 0.625000 0.312500
vt 0.625000 0.688440
vt 0.421875 0.020934
vt 0.578125 0.020934
vt 0.500000 0.150000
vt 0.343750 0.156250
vt 0.421875 0.291566
vt 0.578125 0.291566
vt 0.656250 0.156250
vt 0.578125 0.979066
vt 0.421875 0.979066
vt 0.500000 0.837500
vt 0.343750 0.843750
vt 0.421875 0.708434
vt 0.578125 0.708434
vt 0.656250 0.843750
vt 0.381549 0.992618
vt 0.375000 0.990313
vt 0.375000 0.875336
vt 0.381378 -0.000000
vt 0.499086 0.000914
vt 0.382678 0.008689
vt 0.500921 -0.000000
vt 0.625000 0.990313
vt 0.617618 0.993451
vt 0.625000 0.875336
vt 0.632678 0.008689
vt 0.375000 0.258133
vt 0.375000 0.374915
vt 0.367322 0.241311
vt 0.382731 0.241251
vt 0.625000 0.258133
vt 0.625000 0.374915
vt 0.617322 0.241311
vt 0.375000 0.508606
vt 0.375000 0.625000
vt 0.375000 0.491812
vt 0.375000 0.375085
vt 0.382526 0.492510
vt 0.625000 0.510656
vt 0.617510 0.492474
vt 0.625000 0.375085
vt 0.375000 0.759687
vt 0.375000 0.874664
vt 0.375000 0.739416
vt 0.382731 0.741251
vt 0.625000 0.759687
vt 0.625000 0.874664
vt 0.617322 0.741311
vt 0.625000 0.625000
vt 0.500000 0.007417
vt 0.617269 0.008749
vt 0.617375 0.125000
vt 0.382625 0.125000
vt 0.500000 0.125000
vt 0.500000 0.241677
vt 0.382490 0.257526
vt 0.500000 0.257400
vt 0.617510 0.257526
vt 0.617600 0.375000
vt 0.382400 0.375000
vt 0.500000 0.375000
vt 0.500000 0.492600
vt 0.382731 0.508749
vt 0.500000 0.508323
vt 0.617269 0.508749
vt 0.617375 0.625000
vt 0.382625 0.625000
vt 0.500000 0.625000
vt 0.500000 0.742583
vt 0.381549 0.757382
vt 0.500000 0.756134
vt 0.618451 0.757382
vt 0.618866 0.875000
vt 0.381134 0.875000
vt 0.500000 0.875000
vt 0.500000 0.993866
vt 0.867322 0.008689
vt 0.867375 0.125000
vt 0.750000 0.007417
vt 0.867269 0.241251
vt 0.750000 0.241677
vt 0.632625 0.125000
vt 0.750000 0.125000
vt 0.632678 0.241311
vt 0.132678 0.008689
vt 0.250000 0.007417
vt 0.367322 0.008689
vt 0.367375 0.125000
vt 0.132625 0.125000
vt 0.250000 0.125000
vt 0.132731 0.241251
vt 0.250000 0.241677
vt 0.618622 0.000000
vt 0.625000 0.491812
vt 0.625000 0.741452
vn 0.499229 -0.055523 -0.864689
vn -0.499229 -0.055523 -0.864690
vn -0.499229 0.055523 -0.864690
vn 0.499229 0.055523 -0.864689
vn -0.998457 -0.055523 0.000000
vn -0.998457 0.055523 0.000000
vn -0.499229 -0.055523 0.864689
vn -0.499229 0.055523 0.864689
vn 0.499229 -0.055523 0.864690
vn 0.499229 0.055523 0.864690
vn 0.998457 -0.055523 -0.000000
vn 0.998457 0.055523 -0.000000
vn 0.000000 -1.000000 -0.000000
vn 0.000000 1.000000 0.000000
vn -0.254074 -0.933216 0.254074
vn -0.979772 -0.060515 0.190750
vn -0.998256 -0.059034 -0.000000
vn -0.280778 -0.959773 -0.000000
vn -0.190750 -0.060514 0.979772
vn 0.000023 -0.959743 0.280879
vn -0.000027 -0.059050 0.998255
vn -0.193071 0.000007 0.981185
vn -0.981170 0.000007 0.193146
vn 0.254110 -0.933191 0.254131
vn 0.190849 -0.060578 0.979749
vn 0.979763 -0.060541 0.190786
vn 0.280778 -0.959773 -0.000000
vn 0.998256 -0.059034 -0.000000
vn 0.981170 -0.000007 0.193146
vn 0.193071 -0.000007 0.981185
vn -0.979454 0.066989 0.190216
vn -0.095984 0.990742 0.096007
vn -0.113029 0.993592 -0.000024
vn -0.997961 0.063820 0.000028
vn -0.190278 0.067033 0.979439
vn 0.000028 0.063820 0.997961
vn -0.000024 0.993592 0.113029
vn 0.190180 0.066961 0.979463
vn 0.095955 0.990750 0.095954
vn 0.979463 0.066961 0.190179
vn 0.997961 0.063820 0.000028
vn 0.113029 0.993592 -0.000024
vn -0.979430 0.067061 -0.190315
vn -0.190315 0.067061 -0.979430
vn -0.193173 0.000007 -0.981165
vn -0.981150 0.000007 -0.193249
vn -0.096037 0.990734 -0.096037
vn 0.000000 0.993579 -0.113141
vn 0.000000 0.063837 -0.997960
vn 0.096037 0.990734 -0.096037
vn 0.190315 0.067061 -0.979430
vn 0.979430 0.067062 -0.190314
vn 0.981167 0.000013 -0.193159
vn 0.193160 0.000013 -0.981167
vn -0.979763 -0.060541 -0.190786
vn -0.254110 -0.933191 -0.254131
vn -0.190848 -0.060578 -0.979749
vn 0.000027 -0.059050 -0.998255
vn -0.000023 -0.959743 -0.280879
vn 0.190750 -0.060514 -0.979772
vn 0.254074 -0.933216 -0.254074
vn 0.979772 -0.060514 -0.190749
vn -0.000000 -0.000000 1.000000
vn 0.000000 1.000000 -0.000000
vn 0.000017 0.000000 -1.000000
vn -0.000000 -1.000000 -0.000000
vn 1.000000 0.000000 0.000016
vn -1.000000 -0.000000 0.000016
s 1
g Tree2
usemtl initialShadingGroup
f 7/1/1 8/2/2 14/3/3 13/4/4
f 8/2/2 9/5/5 15/6/6 14/3/3
f 9/5/5 10/7/7 16/8/8 15/6/6
f 10/7/7 11/9/9 17/10/10 16/8/8
f 11/9/9 12/11/11 18/12/12 17/10/10
f 12/11/11 7/13/1 13/14/4 18/12/12
f 8/15/2 7/16/1 19/17/13
f 9/18/5 8/15/2 19/17/13
f 10/19/7 9/18/5 19/17/13
f 11/20/9 10/19/7 19/17/13
f 12/21/11 11/20/9 19/17/13
f 7/16/1 12/21/11 19/17/13
f 13/22/4 14/23/3 20/24/14
f 14/23/3 15/25/6 20/24/14
f 15/25/6 16/26/8 20/24/14
f 16/26/8 17/27/10 20/24/14
f 17/27/10 18/28/12 20/24/14
f 18/28/12 13/22/4 20/24/14
s 2
f 21/29/15 23/30/16 66/31/17 65/87/18
f 22/34/19 21/32/15 25/33/20 24/63/21
f 23/100/16 22/34/19 53/66/22 54/101/23
f 24/63/21 25/35/20 28/106/24 27/64/25
f 26/36/26 28/37/24 67/86/27 68/38/28
f 27/64/25 26/39/26 56/95/29 55/65/30
f 29/40/31 31/69/32 57/73/33 58/41/34
f 30/43/35 29/42/31 54/101/23 53/66/22
f 31/69/32 30/43/35 32/68/36 33/70/37
f 33/70/37 32/68/36 35/46/38 34/71/39
f 34/71/39 36/44/40 60/45/41 59/72/42
f 36/97/40 35/46/38 55/65/30 56/95/29
f 37/47/43 39/76/44 61/80/45 62/48/46
f 38/51/47 37/49/43 58/50/34 57/73/33
f 39/76/44 38/51/47 40/75/48 41/77/49
f 41/77/49 40/75/48 43/53/50 42/78/51
f 42/78/51 44/52/52 64/62/53 63/79/54
f 44/107/52 43/53/50 59/72/42 60/54/41
f 45/55/55 47/83/56 65/87/18 66/56/17
f 46/58/57 45/57/55 62/48/46 61/80/45
f 47/83/56 46/58/57 48/82/58 49/84/59
f 49/84/59 48/82/58 51/61/60 50/85/61
f 50/85/61 52/59/62 68/60/28 67/86/27
f 52/108/62 51/61/60 63/79/54 64/62/53
f 22/34/19 24/63/21 1/67/63 53/66/22
f 24/63/21 27/64/25 55/65/30 1/67/63
f 53/66/22 1/67/63 32/68/36 30/43/35
f 1/67/63 55/65/30 35/46/38 32/68/36
f 31/69/32 33/70/37 2/74/64 57/73/33
f 33/70/37 34/71/39 59/72/42 2/74/64
f 57/73/33 2/74/64 40/75/48 38/51/47
f 2/74/64 59/72/42 43/53/50 40/75/48
f 39/76/44 41/77/49 3/81/65 61/80/45
f 41/77/49 42/78/51 63/79/54 3/81/65
f 61/80/45 3/81/65 48/82/58 46/58/57
f 3/81/65 63/79/54 51/61/60 48/82/58
f 47/83/56 49/84/59 4/88/66 65/87/18
f 49/84/59 50/85/61 67/86/27 4/88/66
f 65/87/18 4/88/66 25/89/20 21/29/15
f 4/88/66 67/86/27 28/37/24 25/89/20
f 68/92/28 52/90/62 64/91/53 5/96/67
f 26/39/26 68/92/28 5/96/67 56/95/29
f 5/96/67 64/91/53 44/93/52 60/94/41
f 56/95/29 5/96/67 60/94/41 36/97/40
f 45/98/55 66/99/17 6/103/68 62/102/46
f 66/99/17 23/100/16 54/101/23 6/103/68
f 62/102/46 6/103/68 58/105/34 37/104/43
f 6/103/68 54/101/23 29/42/31 58/105/34
f 21/32/15 22/34/19 23/100/16
f 26/39/26 27/64/25 28/106/24
f 29/42/31 30/43/35 31/69/32
f 34/71/39 35/46/38 36/97/40
f 37/49/43 38/51/47 39/76/44
f 42/78/51 43/53/50 44/107/52
f 45/57/55 46/58/57 47/83/56
f 50/85/61 51/61/60 52/108/62
