# This file uses centimeters as units for non-parametric coordinates.

mtllib minibosseye.mtl
g default
v -0.132943 0.751592 0.428090
v -0.187792 0.751663 0.428090
v -0.226601 0.731851 0.427606
v -0.226691 0.662183 0.427335
v -0.187996 0.593684 0.427335
v -0.133148 0.593613 0.427335
v -0.094276 0.662012 0.427335
v -0.094185 0.731679 0.427606
v -0.160411 0.718123 0.484141
v -0.132943 0.751932 0.476093
v -0.135094 0.743132 0.484752
v -0.187791 0.752003 0.476093
v -0.185660 0.743182 0.484752
v -0.226601 0.732191 0.475688
v -0.217777 0.726844 0.484425
v -0.226691 0.662183 0.475466
v -0.217938 0.664479 0.484210
v -0.187996 0.593684 0.475472
v -0.182889 0.602423 0.484212
v -0.133148 0.593613 0.475472
v -0.138233 0.602365 0.484212
v -0.094276 0.662012 0.475471
v -0.103019 0.664329 0.484210
v -0.094185 0.732020 0.475688
v -0.102953 0.726738 0.484425
vt 0.625000 0.629777
vt 0.623468 0.687148
vt 0.597593 0.687639
vt 0.376219 0.686988
vt 0.405029 0.686986
vt 0.407784 0.687146
vt 0.433627 0.687633
vt 0.439907 0.688184
vt 0.467721 0.688330
vt 0.469666 0.688388
vt 0.497976 0.688404
vt 0.502904 0.688404
vt 0.528346 0.688404
vt 0.533274 0.688404
vt 0.561584 0.688388
vt 0.563528 0.688330
vt 0.591362 0.688187
vt 0.375000 0.312500
vt 0.375000 0.629777
vt 0.406250 0.312500
vt 0.406250 0.629777
vt 0.437500 0.312500
vt 0.437500 0.630299
vt 0.468750 0.312500
vt 0.468750 0.630605
vt 0.500000 0.312500
vt 0.500000 0.630642
vt 0.531250 0.312500
vt 0.531250 0.630642
vt 0.562500 0.312500
vt 0.562500 0.630634
vt 0.593750 0.312501
vt 0.625000 0.312500
vt 0.593750 0.630299
vt 0.489848 0.961981
vt 0.401949 0.933108
vt 0.362098 0.837546
vt 0.403662 0.737943
vt 0.493615 0.700683
vt 0.593587 0.741660
vt 0.633289 0.837409
vt 0.591732 0.919852
vt 0.500000 0.837500
vn 0.143467 0.677037 0.721830
vn 0.083183 0.386527 0.918519
vn 0.289129 0.117173 0.950092
vn 0.604720 0.245719 0.757585
vn -0.141820 0.676570 0.722593
vn -0.082347 0.386570 0.918577
vn -0.602700 0.246654 0.758891
vn -0.288578 0.117770 0.950186
vn -0.668340 -0.188015 0.719702
vn -0.227979 -0.064661 0.971517
vn -0.395155 -0.523746 0.754680
vn -0.142507 -0.188738 0.971633
vn 0.393732 -0.524816 0.754682
vn 0.141973 -0.189095 0.971641
vn 0.668482 -0.190065 0.719032
vn 0.227744 -0.065297 0.971529
vn 0.209898 0.977699 -0.006926
vn -0.207363 0.978240 -0.006926
vn -0.205373 0.978659 -0.006929
vn 0.207909 0.978124 -0.006929
vn -0.919309 0.393526 -0.002778
vn -0.915858 0.401492 -0.002835
vn -0.963090 -0.269180 0.000000
vn -0.963247 -0.268619 0.000000
vn -0.591191 -0.806532 0.000000
vn -0.591180 -0.806540 0.000000
vn 0.589109 -0.808053 0.000000
vn 0.589107 -0.808055 0.000000
vn 0.962389 -0.271674 0.000000
vn 0.962548 -0.271113 0.000000
vn 0.920331 0.391131 -0.002778
vn 0.916905 0.399095 -0.002834
vn -0.000009 -0.005417 0.999985
s 1
g pCylinder1
usemtl initialShadingGroup
f 10/1/1 11/2/2 25/3/3 24/34/4
f 11/4/2 10/19/1 12/21/5 13/5/6
f 13/6/6 12/21/5 14/23/7 15/7/8
f 15/8/8 14/23/7 16/25/9 17/9/10
f 17/10/10 16/25/9 18/27/11 19/11/12
f 19/12/12 18/27/11 20/29/13 21/13/14
f 21/14/14 20/29/13 22/31/15 23/15/16
f 23/16/16 22/31/15 24/34/4 25/17/3
s 2
f 1/18/17 2/20/18 12/21/19 10/19/20
f 2/20/18 3/22/21 14/23/22 12/21/19
f 3/22/21 4/24/23 16/25/24 14/23/22
f 4/24/23 5/26/25 18/27/26 16/25/24
f 5/26/25 6/28/27 20/29/28 18/27/26
f 6/28/27 7/30/29 22/31/30 20/29/28
f 7/30/29 8/32/31 24/34/32 22/31/30
f 8/32/31 1/33/17 10/1/20 24/34/32
s 1
f 11/42/2 13/35/6 9/43/33
f 13/35/6 15/36/8 9/43/33
f 15/36/8 17/37/10 9/43/33
f 17/37/10 19/38/12 9/43/33
f 19/38/12 21/39/14 9/43/33
f 21/39/14 23/40/16 9/43/33
f 23/40/16 25/41/3 9/43/33
f 25/41/3 11/42/2 9/43/33
