# This file uses centimeters as units for non-parametric coordinates.

mtllib minibossmouthinside.mtl
g default
v -0.181306 0.312588 0.458944
v -0.093875 0.312588 0.458944
v -0.100604 0.343571 0.458944
v -0.194302 0.343571 0.458944
v 0.093875 0.312588 0.458944
v 0.100604 0.343571 0.458944
v 0.181306 0.312588 0.458944
v 0.194302 0.343571 0.458944
v -0.100604 0.368066 0.458944
v -0.194302 0.368066 0.458944
v 0.100604 0.368066 0.458944
v 0.194302 0.368066 0.458944
v -0.100604 0.389521 0.458944
v -0.194302 0.389521 0.458944
v 0.100604 0.389521 0.458944
v 0.194302 0.389521 0.458944
v -0.267412 0.295759 0.458944
v -0.191421 0.268332 0.458944
v -0.287572 0.320666 0.458944
v -0.100604 0.268332 0.458944
v 0.100604 0.268332 0.458944
v 0.191421 0.268332 0.458944
v 0.267412 0.295759 0.458944
v 0.287572 0.320666 0.458944
v -0.308387 0.368316 0.458944
v 0.308387 0.368316 0.458944
v -0.309117 0.423624 0.458944
v 0.309117 0.423624 0.458944
v -0.310287 0.479334 0.458944
v 0.310287 0.479334 0.458944
v -0.200523 0.455384 0.458944
v -0.306904 0.519369 0.458944
v -0.102400 0.433778 0.458944
v 0.102400 0.433778 0.458944
v 0.200523 0.455384 0.458944
v 0.306904 0.519369 0.458944
vt 0.425000 0.050000
vt 0.475000 0.050000
vt 0.475000 0.100000
vt 0.425000 0.100000
vt 0.525000 0.050000
vt 0.525000 0.100000
vt 0.575000 0.050000
vt 0.575000 0.100000
vt 0.475000 0.150000
vt 0.425000 0.150000
vt 0.525000 0.150000
vt 0.575000 0.150000
vt 0.475000 0.200000
vt 0.425000 0.200000
vt 0.525000 0.200000
vt 0.575000 0.200000
vt 0.386146 0.022071
vt 0.426538 0.012545
vt 0.381041 0.059710
vt 0.475000 0.012545
vt 0.525000 0.012545
vt 0.573462 0.012545
vt 0.613854 0.022071
vt 0.618959 0.059710
vt 0.380964 0.100000
vt 0.619036 0.100000
vt 0.380682 0.150000
vt 0.619318 0.150000
vt 0.380230 0.200000
vt 0.619770 0.200000
vt 0.422599 0.238292
vt 0.381536 0.233817
vt 0.474042 0.237455
vt 0.525958 0.237455
vt 0.577401 0.238292
vt 0.618464 0.233817
vn -0.000000 0.000000 1.000000
vn 0.000000 0.000000 1.000000
vn 0.000000 0.000000 1.000000
vn 0.000000 0.000000 1.000000
vn 0.000000 0.000000 1.000000
vn 0.000000 0.000000 1.000000
vn 0.000000 0.000000 1.000000
vn 0.000000 0.000000 1.000000
vn 0.000000 0.000000 1.000000
vn 0.000000 0.000000 1.000000
vn 0.000000 0.000000 1.000000
vn -0.000000 0.000000 1.000000
vn 0.000000 0.000000 1.000000
vn 0.000000 0.000000 1.000000
vn 0.000000 0.000000 1.000000
vn -0.000000 0.000000 1.000000
vn -0.000000 0.000000 1.000000
vn -0.000000 0.000000 1.000000
vn -0.000000 0.000000 1.000000
vn 0.000000 0.000000 1.000000
vn 0.000000 0.000000 1.000000
vn 0.000000 0.000000 1.000000
vn 0.000000 0.000000 1.000000
vn 0.000000 0.000000 1.000000
vn 0.000000 0.000000 1.000000
vn 0.000000 0.000000 1.000000
vn 0.000000 0.000000 1.000000
vn -0.000000 0.000000 1.000000
vn 0.000000 0.000000 1.000000
vn -0.000000 0.000000 1.000000
vn 0.000000 0.000000 1.000000
vn 0.000000 0.000000 1.000000
vn 0.000000 0.000000 1.000000
vn 0.000000 0.000000 1.000000
vn 0.000000 0.000000 1.000000
vn 0.000000 0.000000 1.000000
s 1
g polySurface1 pCube2
usemtl initialShadingGroup
f 1/1/1 2/2/2 3/3/3 4/4/4
f 2/2/2 5/5/5 6/6/6 3/3/3
f 5/5/5 7/7/7 8/8/8 6/6/6
f 4/4/4 3/3/3 9/9/9 10/10/10
f 3/3/3 6/6/6 11/11/11 9/9/9
f 6/6/6 8/8/8 12/12/12 11/11/11
f 10/10/10 9/9/9 13/13/13 14/14/14
f 9/9/9 11/11/11 15/15/15 13/13/13
f 11/11/11 12/12/12 16/16/16 15/15/15
f 17/17/17 18/18/18 1/1/1 19/19/19
f 18/18/18 20/20/20 2/2/2 1/1/1
f 20/20/20 21/21/21 5/5/5 2/2/2
f 21/21/21 22/22/22 7/7/7 5/5/5
f 22/22/22 23/23/23 24/24/24 7/7/7
f 19/19/19 1/1/1 4/4/4 25/25/25
f 7/7/7 24/24/24 26/26/26 8/8/8
f 25/25/25 4/4/4 10/10/10 27/27/27
f 8/8/8 26/26/26 28/28/28 12/12/12
f 27/27/27 10/10/10 14/14/14 29/29/29
f 12/12/12 28/28/28 30/30/30 16/16/16
f 29/29/29 14/14/14 31/31/31 32/32/32
f 14/14/14 13/13/13 33/33/33 31/31/31
f 13/13/13 15/15/15 34/34/34 33/33/33
f 15/15/15 16/16/16 35/35/35 34/34/34
f 16/16/16 30/30/30 36/36/36 35/35/35
