# This file uses centimeters as units for non-parametric coordinates.

mtllib minibosstail.mtl
g default
v -0.177026 0.190457 -0.518862
v -0.097481 0.180368 -0.505602
v 0.000000 0.177140 -0.501360
v 0.097481 0.180368 -0.505602
v 0.177026 0.190457 -0.518862
v -0.194961 0.235206 -0.505602
v -0.112993 0.226479 -0.482662
v 0.000000 0.226479 -0.482662
v 0.112993 0.226479 -0.482662
v 0.194961 0.235206 -0.505602
v -0.202165 0.290044 -0.500276
v -0.112993 0.290044 -0.482662
v 0.000000 0.290044 -0.482662
v 0.112993 0.290044 -0.482662
v 0.202165 0.290044 -0.500276
v -0.194961 0.344882 -0.505602
v -0.112993 0.353609 -0.482662
v 0.000000 0.353609 -0.482662
v 0.112993 0.353609 -0.482662
v 0.194961 0.344882 -0.505602
v -0.177026 0.389631 -0.518862
v -0.097481 0.399720 -0.505602
v 0.000000 0.402948 -0.501360
v 0.097481 0.399720 -0.505602
v 0.177026 0.389631 -0.518862
v -0.194961 0.399720 -0.577676
v -0.124548 0.423998 -0.557663
v 0.000000 0.423998 -0.557663
v 0.124548 0.423998 -0.557663
v 0.194961 0.399720 -0.577676
v -0.200698 0.402948 -0.649751
v -0.124548 0.423998 -0.649751
v 0.000000 0.423998 -0.649751
v 0.124548 0.423998 -0.649751
v 0.200698 0.402948 -0.649751
v -0.194961 0.383661 -0.711091
v -0.124548 0.407939 -0.731104
v 0.000000 0.407939 -0.731104
v 0.124548 0.407939 -0.731104
v 0.194961 0.383661 -0.711091
v -0.177026 0.371969 -0.755712
v -0.103324 0.388632 -0.777613
v 0.000000 0.385286 -0.773215
v 0.097481 0.382058 -0.768973
v 0.177026 0.371969 -0.755712
v -0.194961 0.321100 -0.783192
v -0.112993 0.329827 -0.806131
v 0.000000 0.329827 -0.806131
v 0.112993 0.329827 -0.806131
v 0.194961 0.321100 -0.783192
v -0.202165 0.274866 -0.799227
v -0.112993 0.290044 -0.816840
v 0.000000 0.290044 -0.816840
v 0.112993 0.290044 -0.816840
v 0.202165 0.274866 -0.799227
v -0.194961 0.235206 -0.793901
v -0.112993 0.226479 -0.816840
v 0.000000 0.226479 -0.816840
v 0.112993 0.226479 -0.816840
v 0.194961 0.235206 -0.793901
v -0.177026 0.190457 -0.780640
v -0.097481 0.180368 -0.793901
v 0.000000 0.177140 -0.798143
v 0.097481 0.180368 -0.793901
v 0.177026 0.190457 -0.780640
v -0.194961 0.180368 -0.721826
v -0.124548 0.156090 -0.741839
v 0.000000 0.156090 -0.741839
v 0.124548 0.156090 -0.741839
v 0.194961 0.180368 -0.721826
v -0.200698 0.177140 -0.649751
v -0.124548 0.156090 -0.649751
v 0.000000 0.156090 -0.649751
v 0.124548 0.156090 -0.649751
v 0.200698 0.177140 -0.649751
v -0.194961 0.180368 -0.577676
v -0.124548 0.156090 -0.557663
v 0.000000 0.156090 -0.557663
v 0.124548 0.156090 -0.557663
v 0.194961 0.180368 -0.577676
v 0.225986 0.226479 -0.733296
v 0.225986 0.226479 -0.649751
v 0.225986 0.226479 -0.566207
v 0.225986 0.290044 -0.733296
v 0.225986 0.290044 -0.649751
v 0.225986 0.290044 -0.566207
v 0.213487 0.336670 -0.733296
v 0.225986 0.353609 -0.649751
v 0.225986 0.353609 -0.566207
v -0.225986 0.226479 -0.733296
v -0.225986 0.226479 -0.649751
v -0.225986 0.226479 -0.566207
v -0.225986 0.290044 -0.733296
v -0.225986 0.290044 -0.649751
v -0.225986 0.290044 -0.566207
v -0.213487 0.336670 -0.733296
v -0.225986 0.353609 -0.649751
v -0.225986 0.353609 -0.566207
vt 0.375000 0.000000
vt 0.437500 0.000000
vt 0.500000 0.000000
vt 0.562500 0.000000
vt 0.625000 0.000000
vt 0.375000 0.062500
vt 0.437500 0.062500
vt 0.500000 0.062500
vt 0.562500 0.062500
vt 0.625000 0.062500
vt 0.375000 0.125000
vt 0.437500 0.125000
vt 0.500000 0.125000
vt 0.562500 0.125000
vt 0.625000 0.125000
vt 0.375000 0.187500
vt 0.437500 0.187500
vt 0.500000 0.187500
vt 0.562500 0.187500
vt 0.625000 0.187500
vt 0.375000 0.250000
vt 0.437500 0.250000
vt 0.500000 0.250000
vt 0.562500 0.250000
vt 0.625000 0.250000
vt 0.375000 0.312500
vt 0.437500 0.312500
vt 0.500000 0.312500
vt 0.562500 0.312500
vt 0.625000 0.312500
vt 0.375000 0.375000
vt 0.437500 0.375000
vt 0.500000 0.375000
vt 0.562500 0.375000
vt 0.625000 0.375000
vt 0.375000 0.437500
vt 0.437500 0.437500
vt 0.500000 0.437500
vt 0.562500 0.437500
vt 0.625000 0.437500
vt 0.375000 0.500000
vt 0.437500 0.500000
vt 0.500000 0.500000
vt 0.562500 0.500000
vt 0.625000 0.500000
vt 0.375000 0.562500
vt 0.437500 0.562500
vt 0.500000 0.562500
vt 0.562500 0.562500
vt 0.625000 0.562500
vt 0.375000 0.625000
vt 0.437500 0.625000
vt 0.500000 0.625000
vt 0.562500 0.625000
vt 0.625000 0.625000
vt 0.375000 0.687500
vt 0.437500 0.687500
vt 0.500000 0.687500
vt 0.562500 0.687500
vt 0.625000 0.687500
vt 0.375000 0.750000
vt 0.437500 0.750000
vt 0.500000 0.750000
vt 0.562500 0.750000
vt 0.625000 0.750000
vt 0.375000 0.812500
vt 0.437500 0.812500
vt 0.500000 0.812500
vt 0.562500 0.812500
vt 0.625000 0.812500
vt 0.375000 0.875000
vt 0.437500 0.875000
vt 0.500000 0.875000
vt 0.562500 0.875000
vt 0.625000 0.875000
vt 0.375000 0.937500
vt 0.437500 0.937500
vt 0.500000 0.937500
vt 0.562500 0.937500
vt 0.625000 0.937500
vt 0.375000 1.000000
vt 0.437500 1.000000
vt 0.500000 1.000000
vt 0.562500 1.000000
vt 0.625000 1.000000
vt 0.875000 0.000000
vt 0.812500 0.000000
vt 0.750000 0.000000
vt 0.687500 0.000000
vt 0.875000 0.062500
vt 0.812500 0.062500
vt 0.750000 0.062500
vt 0.687500 0.062500
vt 0.875000 0.125000
vt 0.812500 0.125000
vt 0.750000 0.125000
vt 0.687500 0.125000
vt 0.875000 0.187500
vt 0.812500 0.187500
vt 0.750000 0.187500
vt 0.687500 0.187500
vt 0.875000 0.250000
vt 0.812500 0.250000
vt 0.750000 0.250000
vt 0.687500 0.250000
vt 0.125000 0.000000
vt 0.187500 0.000000
vt 0.250000 0.000000
vt 0.312500 0.000000
vt 0.125000 0.062500
vt 0.187500 0.062500
vt 0.250000 0.062500
vt 0.312500 0.062500
vt 0.125000 0.125000
vt 0.187500 0.125000
vt 0.250000 0.125000
vt 0.312500 0.125000
vt 0.125000 0.187500
vt 0.187500 0.187500
vt 0.250000 0.187500
vt 0.312500 0.187500
vt 0.125000 0.250000
vt 0.187500 0.250000
vt 0.250000 0.250000
vt 0.312500 0.250000
vn -0.434199 -0.671023 0.600999
vn -0.099632 -0.732193 0.673771
vn -0.116163 -0.200096 0.972866
vn -0.581468 -0.244017 0.776112
vn 0.000000 -0.734327 0.678796
vn 0.000000 -0.178143 0.984005
vn 0.099632 -0.732193 0.673771
vn 0.116163 -0.200096 0.972866
vn 0.434199 -0.671023 0.600999
vn 0.581468 -0.244017 0.776112
vn -0.098597 0.000000 0.995127
vn -0.602743 0.000000 0.797935
vn 0.000000 0.000000 1.000000
vn 0.098597 0.000000 0.995127
vn 0.602743 -0.000000 0.797935
vn -0.116163 0.200096 0.972866
vn -0.581468 0.244017 0.776112
vn 0.000000 0.178144 0.984005
vn 0.116163 0.200096 0.972866
vn 0.581468 0.244017 0.776112
vn -0.099632 0.732193 0.673771
vn -0.434199 0.671023 0.600999
vn 0.000000 0.734327 0.678795
vn 0.099632 0.732193 0.673771
vn 0.434199 0.671023 0.600999
vn -0.125280 0.979248 0.159304
vn -0.560796 0.811730 0.163101
vn 0.000000 0.989596 0.143877
vn 0.125280 0.979248 0.159304
vn 0.560796 0.811731 0.163101
vn -0.109549 0.989430 -0.095016
vn -0.566959 0.818114 -0.096166
vn 0.000000 0.995741 -0.092196
vn 0.109549 0.989430 -0.095016
vn 0.566959 0.818114 -0.096167
vn -0.133031 0.945998 -0.295619
vn -0.594139 0.744914 -0.303485
vn 0.007596 0.956331 -0.292189
vn 0.132665 0.936232 -0.325377
vn 0.588014 0.743598 -0.318279
vn -0.092707 0.696433 -0.711609
vn -0.457223 0.633699 -0.623998
vn 0.024700 0.697917 -0.715752
vn 0.098785 0.696180 -0.711038
vn 0.403062 0.651685 -0.642532
vn -0.127975 0.404821 -0.905396
vn -0.544793 0.400183 -0.736922
vn 0.015206 0.412540 -0.910813
vn 0.128968 0.448240 -0.884561
vn 0.525001 0.429416 -0.734831
vn -0.102840 0.113497 -0.988202
vn -0.592540 0.074935 -0.802048
vn 0.000000 0.103072 -0.994674
vn 0.102840 0.113497 -0.988202
vn 0.592540 0.074935 -0.802048
vn -0.111425 -0.205932 -0.972202
vn -0.577392 -0.263309 -0.772843
vn 0.000000 -0.178144 -0.984004
vn 0.111425 -0.205932 -0.972202
vn 0.577392 -0.263309 -0.772843
vn -0.099632 -0.732193 -0.673771
vn -0.434199 -0.671023 -0.600999
vn 0.000000 -0.734328 -0.678795
vn 0.099632 -0.732193 -0.673771
vn 0.434199 -0.671023 -0.600999
vn -0.125280 -0.979248 -0.159304
vn -0.560795 -0.811731 -0.163102
vn 0.000000 -0.989596 -0.143877
vn 0.125280 -0.979248 -0.159304
vn 0.560795 -0.811730 -0.163102
vn -0.106882 -0.994272 -0.000000
vn -0.568963 -0.822363 0.000000
vn 0.000000 -1.000000 0.000000
vn 0.106882 -0.994272 0.000000
vn 0.568963 -0.822363 0.000000
vn -0.125280 -0.979248 0.159304
vn -0.560795 -0.811731 0.163102
vn 0.000000 -0.989596 0.143877
vn 0.125280 -0.979248 0.159304
vn 0.560795 -0.811731 0.163102
vn 0.945373 -0.266440 -0.187829
vn 0.971307 -0.237829 -0.000000
vn 0.945731 -0.258835 0.196464
vn 0.981523 0.067006 -0.179226
vn 0.999490 0.025415 -0.019337
vn 0.983970 -0.000000 0.178336
vn 0.913830 0.308303 -0.264317
vn 0.963602 0.260139 -0.061637
vn 0.945731 0.258835 0.196464
vn -0.945373 -0.266440 -0.187829
vn -0.971307 -0.237829 0.000000
vn -0.945731 -0.258835 0.196464
vn -0.981523 0.067006 -0.179226
vn -0.999490 0.025415 -0.019337
vn -0.983970 -0.000000 0.178336
vn -0.913830 0.308304 -0.264317
vn -0.963602 0.260139 -0.061637
vn -0.945731 0.258835 0.196464
s 1
g pCube3
usemtl initialShadingGroup
f 1/1/1 2/2/2 7/7/3 6/6/4
f 2/2/2 3/3/5 8/8/6 7/7/3
f 3/3/5 4/4/7 9/9/8 8/8/6
f 4/4/7 5/5/9 10/10/10 9/9/8
f 6/6/4 7/7/3 12/12/11 11/11/12
f 7/7/3 8/8/6 13/13/13 12/12/11
f 8/8/6 9/9/8 14/14/14 13/13/13
f 9/9/8 10/10/10 15/15/15 14/14/14
f 11/11/12 12/12/11 17/17/16 16/16/17
f 12/12/11 13/13/13 18/18/18 17/17/16
f 13/13/13 14/14/14 19/19/19 18/18/18
f 14/14/14 15/15/15 20/20/20 19/19/19
f 16/16/17 17/17/16 22/22/21 21/21/22
f 17/17/16 18/18/18 23/23/23 22/22/21
f 18/18/18 19/19/19 24/24/24 23/23/23
f 19/19/19 20/20/20 25/25/25 24/24/24
f 21/21/22 22/22/21 27/27/26 26/26/27
f 22/22/21 23/23/23 28/28/28 27/27/26
f 23/23/23 24/24/24 29/29/29 28/28/28
f 24/24/24 25/25/25 30/30/30 29/29/29
f 26/26/27 27/27/26 32/32/31 31/31/32
f 27/27/26 28/28/28 33/33/33 32/32/31
f 28/28/28 29/29/29 34/34/34 33/33/33
f 29/29/29 30/30/30 35/35/35 34/34/34
f 31/31/32 32/32/31 37/37/36 36/36/37
f 32/32/31 33/33/33 38/38/38 37/37/36
f 33/33/33 34/34/34 39/39/39 38/38/38
f 34/34/34 35/35/35 40/40/40 39/39/39
f 36/36/37 37/37/36 42/42/41 41/41/42
f 37/37/36 38/38/38 43/43/43 42/42/41
f 38/38/38 39/39/39 44/44/44 43/43/43
f 39/39/39 40/40/40 45/45/45 44/44/44
f 41/41/42 42/42/41 47/47/46 46/46/47
f 42/42/41 43/43/43 48/48/48 47/47/46
f 43/43/43 44/44/44 49/49/49 48/48/48
f 44/44/44 45/45/45 50/50/50 49/49/49
f 46/46/47 47/47/46 52/52/51 51/51/52
f 47/47/46 48/48/48 53/53/53 52/52/51
f 48/48/48 49/49/49 54/54/54 53/53/53
f 49/49/49 50/50/50 55/55/55 54/54/54
f 51/51/52 52/52/51 57/57/56 56/56/57
f 52/52/51 53/53/53 58/58/58 57/57/56
f 53/53/53 54/54/54 59/59/59 58/58/58
f 54/54/54 55/55/55 60/60/60 59/59/59
f 56/56/57 57/57/56 62/62/61 61/61/62
f 57/57/56 58/58/58 63/63/63 62/62/61
f 58/58/58 59/59/59 64/64/64 63/63/63
f 59/59/59 60/60/60 65/65/65 64/64/64
f 61/61/62 62/62/61 67/67/66 66/66/67
f 62/62/61 63/63/63 68/68/68 67/67/66
f 63/63/63 64/64/64 69/69/69 68/68/68
f 64/64/64 65/65/65 70/70/70 69/69/69
f 66/66/67 67/67/66 72/72/71 71/71/72
f 67/67/66 68/68/68 73/73/73 72/72/71
f 68/68/68 69/69/69 74/74/74 73/73/73
f 69/69/69 70/70/70 75/75/75 74/74/74
f 71/71/72 72/72/71 77/77/76 76/76/77
f 72/72/71 73/73/73 78/78/78 77/77/76
f 73/73/73 74/74/74 79/79/79 78/78/78
f 74/74/74 75/75/75 80/80/80 79/79/79
f 76/76/77 77/77/76 2/82/2 1/81/1
f 77/77/76 78/78/78 3/83/5 2/82/2
f 78/78/78 79/79/79 4/84/7 3/83/5
f 79/79/79 80/80/80 5/85/9 4/84/7
f 70/87/70 65/86/65 60/90/60 81/91/81
f 75/88/75 70/87/70 81/91/81 82/92/82
f 80/89/80 75/88/75 82/92/82 83/93/83
f 5/5/9 80/89/80 83/93/83 10/10/10
f 81/91/81 60/90/60 55/94/55 84/95/84
f 82/92/82 81/91/81 84/95/84 85/96/85
f 83/93/83 82/92/82 85/96/85 86/97/86
f 10/10/10 83/93/83 86/97/86 15/15/15
f 84/95/84 55/94/55 50/98/50 87/99/87
f 85/96/85 84/95/84 87/99/87 88/100/88
f 86/97/86 85/96/85 88/100/88 89/101/89
f 15/15/15 86/97/86 89/101/89 20/20/20
f 87/99/87 50/98/50 45/102/45 40/103/40
f 88/100/88 87/99/87 40/103/40 35/104/35
f 89/101/89 88/100/88 35/104/35 30/105/30
f 20/20/20 89/101/89 30/105/30 25/25/25
f 61/106/62 66/107/67 90/111/90 56/110/57
f 66/107/67 71/108/72 91/112/91 90/111/90
f 71/108/72 76/109/77 92/113/92 91/112/91
f 76/109/77 1/1/1 6/6/4 92/113/92
f 56/110/57 90/111/90 93/115/93 51/114/52
f 90/111/90 91/112/91 94/116/94 93/115/93
f 91/112/91 92/113/92 95/117/95 94/116/94
f 92/113/92 6/6/4 11/11/12 95/117/95
f 51/114/52 93/115/93 96/119/96 46/118/47
f 93/115/93 94/116/94 97/120/97 96/119/96
f 94/116/94 95/117/95 98/121/98 97/120/97
f 95/117/95 11/11/12 16/16/17 98/121/98
f 46/118/47 96/119/96 36/123/37 41/122/42
f 96/119/96 97/120/97 31/124/32 36/123/37
f 97/120/97 98/121/98 26/125/27 31/124/32
f 98/121/98 16/16/17 21/21/22 26/125/27
