# This file uses centimeters as units for non-parametric coordinates.

mtllib minibossbody.mtl
g default
v -0.355337 0.256351 0.355337
v -0.195669 0.225904 0.391338
v 0.000000 0.216164 0.402854
v 0.195669 0.225904 0.391338
v 0.355337 0.256351 0.355337
v -0.391338 0.391390 0.391338
v -0.226806 0.365055 0.453613
v 0.000000 0.365055 0.453613
v 0.226806 0.365055 0.453613
v 0.391338 0.391390 0.391338
v -0.405796 0.556876 0.405796
v -0.226806 0.556876 0.453613
v 0.000000 0.556876 0.453613
v 0.226806 0.556876 0.453613
v 0.405796 0.556876 0.405796
v -0.391338 0.722362 0.391338
v -0.226806 0.748696 0.453613
v 0.000000 0.748696 0.453613
v 0.226806 0.748696 0.453613
v 0.391338 0.722362 0.391338
v -0.355337 0.857400 0.355337
v -0.195669 0.887848 0.391338
v 0.000000 0.897587 0.402854
v 0.195669 0.887848 0.391338
v 0.355337 0.857400 0.355337
v -0.391338 0.887848 0.195669
v -0.250000 0.961111 0.250000
v 0.000000 0.961111 0.250000
v 0.250000 0.961111 0.250000
v 0.391338 0.887848 0.195669
v -0.402854 0.897587 0.000000
v -0.250000 0.961111 0.000000
v 0.000000 0.961111 0.000000
v 0.250000 0.961111 0.000000
v 0.402854 0.897587 0.000000
v -0.391338 0.887848 -0.195669
v -0.250000 0.961111 -0.250000
v 0.000000 0.961111 -0.250000
v 0.250000 0.961111 -0.250000
v 0.391338 0.887848 -0.195669
v -0.355337 0.857400 -0.355337
v -0.207397 0.907686 -0.414794
v 0.000000 0.897587 -0.402854
v 0.195669 0.887848 -0.391338
v 0.355337 0.857400 -0.355337
v -0.391338 0.722362 -0.391338
v -0.226806 0.748696 -0.453613
v 0.000000 0.748696 -0.453613
v 0.226806 0.748696 -0.453613
v 0.391338 0.722362 -0.391338
v -0.405796 0.556876 -0.405796
v -0.226806 0.556876 -0.453613
v 0.000000 0.556876 -0.453613
v 0.226806 0.556876 -0.453613
v 0.405796 0.556876 -0.405796
v -0.391338 0.391390 -0.391338
v -0.226806 0.365055 -0.453613
v 0.000000 0.365055 -0.453613
v 0.226806 0.365055 -0.453613
v 0.391338 0.391390 -0.391338
v -0.355337 0.256351 -0.355337
v -0.195669 0.225904 -0.391338
v 0.000000 0.216164 -0.402854
v 0.195669 0.225904 -0.391338
v 0.355337 0.256351 -0.355337
v -0.391338 0.225904 -0.195669
v -0.250000 0.152640 -0.250000
v 0.000000 0.152640 -0.250000
v 0.250000 0.152640 -0.250000
v 0.391338 0.225904 -0.195669
v -0.402854 0.216164 0.000000
v -0.250000 0.152640 0.000000
v 0.000000 0.152640 0.000000
v 0.250000 0.152640 0.000000
v 0.402854 0.216164 0.000000
v -0.391338 0.225904 0.195669
v -0.250000 0.152640 0.250000
v 0.000000 0.152640 0.250000
v 0.250000 0.152640 0.250000
v 0.391338 0.225904 0.195669
v 0.453613 0.365055 -0.226806
v 0.453613 0.365055 0.000000
v 0.453613 0.365055 0.226806
v 0.453613 0.556876 -0.226806
v 0.453613 0.556876 0.000000
v 0.453613 0.556876 0.226806
v 0.453613 0.748696 -0.226806
v 0.453613 0.748696 0.000000
v 0.453613 0.748696 0.226806
v -0.453613 0.365055 -0.226806
v -0.453613 0.365055 0.000000
v -0.453613 0.365055 0.226806
v -0.453613 0.556876 -0.226806
v -0.453613 0.556876 0.000000
v -0.453613 0.556876 0.226806
v -0.453613 0.748696 -0.226806
v -0.453613 0.748696 0.000000
v -0.453613 0.748696 0.226806
vt 0.375000 0.000000
vt 0.437500 0.000000
vt 0.500000 0.000000
vt 0.562500 0.000000
vt 0.625000 0.000000
vt 0.375000 0.062500
vt 0.437500 0.062500
vt 0.500000 0.062500
vt 0.562500 0.062500
vt 0.625000 0.062500
vt 0.375000 0.125000
vt 0.437500 0.125000
vt 0.500000 0.125000
vt 0.562500 0.125000
vt 0.625000 0.125000
vt 0.375000 0.187500
vt 0.437500 0.187500
vt 0.500000 0.187500
vt 0.562500 0.187500
vt 0.625000 0.187500
vt 0.375000 0.250000
vt 0.437500 0.250000
vt 0.500000 0.250000
vt 0.562500 0.250000
vt 0.625000 0.250000
vt 0.375000 0.312500
vt 0.437500 0.312500
vt 0.500000 0.312500
vt 0.562500 0.312500
vt 0.625000 0.312500
vt 0.375000 0.375000
vt 0.437500 0.375000
vt 0.500000 0.375000
vt 0.562500 0.375000
vt 0.625000 0.375000
vt 0.375000 0.437500
vt 0.437500 0.437500
vt 0.500000 0.437500
vt 0.562500 0.437500
vt 0.625000 0.437500
vt 0.375000 0.500000
vt 0.437500 0.500000
vt 0.500000 0.500000
vt 0.562500 0.500000
vt 0.625000 0.500000
vt 0.375000 0.562500
vt 0.437500 0.562500
vt 0.500000 0.562500
vt 0.562500 0.562500
vt 0.625000 0.562500
vt 0.375000 0.625000
vt 0.437500 0.625000
vt 0.500000 0.625000
vt 0.562500 0.625000
vt 0.625000 0.625000
vt 0.375000 0.687500
vt 0.437500 0.687500
vt 0.500000 0.687500
vt 0.562500 0.687500
vt 0.625000 0.687500
vt 0.375000 0.750000
vt 0.437500 0.750000
vt 0.500000 0.750000
vt 0.562500 0.750000
vt 0.625000 0.750000
vt 0.375000 0.812500
vt 0.437500 0.812500
vt 0.500000 0.812500
vt 0.562500 0.812500
vt 0.625000 0.812500
vt 0.375000 0.875000
vt 0.437500 0.875000
vt 0.500000 0.875000
vt 0.562500 0.875000
vt 0.625000 0.875000
vt 0.375000 0.937500
vt 0.437500 0.937500
vt 0.500000 0.937500
vt 0.562500 0.937500
vt 0.625000 0.937500
vt 0.375000 1.000000
vt 0.437500 1.000000
vt 0.500000 1.000000
vt 0.562500 1.000000
vt 0.625000 1.000000
vt 0.875000 0.000000
vt 0.812500 0.000000
vt 0.750000 0.000000
vt 0.687500 0.000000
vt 0.875000 0.062500
vt 0.812500 0.062500
vt 0.750000 0.062500
vt 0.687500 0.062500
vt 0.875000 0.125000
vt 0.812500 0.125000
vt 0.750000 0.125000
vt 0.687500 0.125000
vt 0.875000 0.187500
vt 0.812500 0.187500
vt 0.750000 0.187500
vt 0.687500 0.187500
vt 0.875000 0.250000
vt 0.812500 0.250000
vt 0.750000 0.250000
vt 0.687500 0.250000
vt 0.125000 0.000000
vt 0.187500 0.000000
vt 0.250000 0.000000
vt 0.312500 0.000000
vt 0.125000 0.062500
vt 0.187500 0.062500
vt 0.250000 0.062500
vt 0.312500 0.062500
vt 0.125000 0.125000
vt 0.187500 0.125000
vt 0.250000 0.125000
vt 0.312500 0.125000
vt 0.125000 0.187500
vt 0.187500 0.187500
vt 0.250000 0.187500
vt 0.312500 0.187500
vt 0.125000 0.250000
vt 0.187500 0.250000
vt 0.250000 0.250000
vt 0.312500 0.250000
vn -0.575229 -0.581569 0.575229
vn -0.150820 -0.691158 0.706792
vn -0.152186 -0.181559 0.971533
vn -0.693759 -0.193386 0.693759
vn 0.000000 -0.698035 0.716064
vn 0.000000 -0.160749 0.986995
vn 0.150820 -0.691158 0.706792
vn 0.152186 -0.181559 0.971533
vn 0.575229 -0.581569 0.575229
vn 0.693759 -0.193386 0.693759
vn -0.132818 0.000000 0.991141
vn -0.707107 0.000000 0.707107
vn 0.000000 -0.000000 1.000000
vn 0.132818 0.000000 0.991141
vn 0.707107 0.000000 0.707107
vn -0.152186 0.181559 0.971533
vn -0.693759 0.193386 0.693759
vn 0.000000 0.160749 0.986995
vn 0.152186 0.181559 0.971533
vn 0.693759 0.193386 0.693759
vn -0.150820 0.691158 0.706792
vn -0.575229 0.581569 0.575229
vn 0.000000 0.698035 0.716064
vn 0.150820 0.691158 0.706792
vn 0.575229 0.581569 0.575229
vn -0.177122 0.968120 0.177122
vn -0.706792 0.691158 0.150820
vn 0.000000 0.987191 0.159542
vn 0.177122 0.968120 0.177122
vn 0.706792 0.691158 0.150820
vn -0.159542 0.987191 0.000000
vn -0.716064 0.698035 -0.000000
vn 0.000000 1.000000 0.000000
vn 0.159542 0.987191 0.000000
vn 0.716064 0.698035 0.000000
vn -0.177594 0.972397 -0.151340
vn -0.713250 0.687124 -0.138329
vn 0.011526 0.989221 -0.145975
vn 0.177122 0.968120 -0.177122
vn 0.706792 0.691158 -0.150820
vn -0.139249 0.693170 -0.707196
vn -0.625114 0.553713 -0.550122
vn 0.034798 0.700261 -0.713038
vn 0.150820 0.691158 -0.706792
vn 0.575229 0.581569 -0.575229
vn -0.150330 0.145180 -0.977918
vn -0.702757 0.174104 -0.689797
vn 0.014762 0.142352 -0.989706
vn 0.152186 0.181559 -0.971533
vn 0.693759 0.193386 -0.693759
vn -0.132818 -0.000000 -0.991141
vn -0.707107 -0.000000 -0.707107
vn 0.000000 -0.000000 -1.000000
vn 0.132818 0.000000 -0.991140
vn 0.707107 0.000000 -0.707107
vn -0.152186 -0.181559 -0.971533
vn -0.693759 -0.193386 -0.693759
vn 0.000000 -0.160749 -0.986995
vn 0.152186 -0.181559 -0.971533
vn 0.693759 -0.193386 -0.693759
vn -0.150820 -0.691158 -0.706792
vn -0.575229 -0.581569 -0.575229
vn 0.000000 -0.698035 -0.716064
vn 0.150820 -0.691158 -0.706792
vn 0.575229 -0.581569 -0.575229
vn -0.177122 -0.968120 -0.177122
vn -0.706792 -0.691158 -0.150820
vn 0.000000 -0.987191 -0.159542
vn 0.177122 -0.968120 -0.177122
vn 0.706792 -0.691158 -0.150820
vn -0.159542 -0.987191 -0.000000
vn -0.716064 -0.698035 0.000000
vn 0.000000 -1.000000 0.000000
vn 0.159542 -0.987191 0.000000
vn 0.716064 -0.698035 0.000000
vn -0.177122 -0.968120 0.177122
vn -0.706792 -0.691158 0.150820
vn 0.000000 -0.987191 0.159542
vn 0.177122 -0.968120 0.177122
vn 0.706792 -0.691158 0.150820
vn 0.971533 -0.181559 -0.152186
vn 0.986995 -0.160749 0.000000
vn 0.971533 -0.181559 0.152186
vn 0.991140 0.000000 -0.132818
vn 1.000000 0.000000 0.000000
vn 0.991141 0.000000 0.132818
vn 0.971533 0.181559 -0.152186
vn 0.986995 0.160749 0.000000
vn 0.971533 0.181559 0.152186
vn -0.971533 -0.181559 -0.152186
vn -0.986995 -0.160749 0.000000
vn -0.971533 -0.181559 0.152186
vn -0.991140 0.000000 -0.132818
vn -1.000000 0.000000 0.000000
vn -0.991141 0.000000 0.132818
vn -0.971533 0.181559 -0.152186
vn -0.986995 0.160749 -0.000000
vn -0.971533 0.181559 0.152186
s 1
g pCube1
usemtl initialShadingGroup
f 1/1/1 2/2/2 7/7/3 6/6/4
f 2/2/2 3/3/5 8/8/6 7/7/3
f 3/3/5 4/4/7 9/9/8 8/8/6
f 4/4/7 5/5/9 10/10/10 9/9/8
f 6/6/4 7/7/3 12/12/11 11/11/12
f 7/7/3 8/8/6 13/13/13 12/12/11
f 8/8/6 9/9/8 14/14/14 13/13/13
f 9/9/8 10/10/10 15/15/15 14/14/14
f 11/11/12 12/12/11 17/17/16 16/16/17
f 12/12/11 13/13/13 18/18/18 17/17/16
f 13/13/13 14/14/14 19/19/19 18/18/18
f 14/14/14 15/15/15 20/20/20 19/19/19
f 16/16/17 17/17/16 22/22/21 21/21/22
f 17/17/16 18/18/18 23/23/23 22/22/21
f 18/18/18 19/19/19 24/24/24 23/23/23
f 19/19/19 20/20/20 25/25/25 24/24/24
f 21/21/22 22/22/21 27/27/26 26/26/27
f 22/22/21 23/23/23 28/28/28 27/27/26
f 23/23/23 24/24/24 29/29/29 28/28/28
f 24/24/24 25/25/25 30/30/30 29/29/29
f 26/26/27 27/27/26 32/32/31 31/31/32
f 27/27/26 28/28/28 33/33/33 32/32/31
f 28/28/28 29/29/29 34/34/34 33/33/33
f 29/29/29 30/30/30 35/35/35 34/34/34
f 31/31/32 32/32/31 37/37/36 36/36/37
f 32/32/31 33/33/33 38/38/38 37/37/36
f 33/33/33 34/34/34 39/39/39 38/38/38
f 34/34/34 35/35/35 40/40/40 39/39/39
f 36/36/37 37/37/36 42/42/41 41/41/42
f 37/37/36 38/38/38 43/43/43 42/42/41
f 38/38/38 39/39/39 44/44/44 43/43/43
f 39/39/39 40/40/40 45/45/45 44/44/44
f 41/41/42 42/42/41 47/47/46 46/46/47
f 42/42/41 43/43/43 48/48/48 47/47/46
f 43/43/43 44/44/44 49/49/49 48/48/48
f 44/44/44 45/45/45 50/50/50 49/49/49
f 46/46/47 47/47/46 52/52/51 51/51/52
f 47/47/46 48/48/48 53/53/53 52/52/51
f 48/48/48 49/49/49 54/54/54 53/53/53
f 49/49/49 50/50/50 55/55/55 54/54/54
f 51/51/52 52/52/51 57/57/56 56/56/57
f 52/52/51 53/53/53 58/58/58 57/57/56
f 53/53/53 54/54/54 59/59/59 58/58/58
f 54/54/54 55/55/55 60/60/60 59/59/59
f 56/56/57 57/57/56 62/62/61 61/61/62
f 57/57/56 58/58/58 63/63/63 62/62/61
f 58/58/58 59/59/59 64/64/64 63/63/63
f 59/59/59 60/60/60 65/65/65 64/64/64
f 61/61/62 62/62/61 67/67/66 66/66/67
f 62/62/61 63/63/63 68/68/68 67/67/66
f 63/63/63 64/64/64 69/69/69 68/68/68
f 64/64/64 65/65/65 70/70/70 69/69/69
f 66/66/67 67/67/66 72/72/71 71/71/72
f 67/67/66 68/68/68 73/73/73 72/72/71
f 68/68/68 69/69/69 74/74/74 73/73/73
f 69/69/69 70/70/70 75/75/75 74/74/74
f 71/71/72 72/72/71 77/77/76 76/76/77
f 72/72/71 73/73/73 78/78/78 77/77/76
f 73/73/73 74/74/74 79/79/79 78/78/78
f 74/74/74 75/75/75 80/80/80 79/79/79
f 76/76/77 77/77/76 2/82/2 1/81/1
f 77/77/76 78/78/78 3/83/5 2/82/2
f 78/78/78 79/79/79 4/84/7 3/83/5
f 79/79/79 80/80/80 5/85/9 4/84/7
f 70/87/70 65/86/65 60/90/60 81/91/81
f 75/88/75 70/87/70 81/91/81 82/92/82
f 80/89/80 75/88/75 82/92/82 83/93/83
f 5/5/9 80/89/80 83/93/83 10/10/10
f 81/91/81 60/90/60 55/94/55 84/95/84
f 82/92/82 81/91/81 84/95/84 85/96/85
f 83/93/83 82/92/82 85/96/85 86/97/86
f 10/10/10 83/93/83 86/97/86 15/15/15
f 84/95/84 55/94/55 50/98/50 87/99/87
f 85/96/85 84/95/84 87/99/87 88/100/88
f 86/97/86 85/96/85 88/100/88 89/101/89
f 15/15/15 86/97/86 89/101/89 20/20/20
f 87/99/87 50/98/50 45/102/45 40/103/40
f 88/100/88 87/99/87 40/103/40 35/104/35
f 89/101/89 88/100/88 35/104/35 30/105/30
f 20/20/20 89/101/89 30/105/30 25/25/25
f 61/106/62 66/107/67 90/111/90 56/110/57
f 66/107/67 71/108/72 91/112/91 90/111/90
f 71/108/72 76/109/77 92/113/92 91/112/91
f 76/109/77 1/1/1 6/6/4 92/113/92
f 56/110/57 90/111/90 93/115/93 51/114/52
f 90/111/90 91/112/91 94/116/94 93/115/93
f 91/112/91 92/113/92 95/117/95 94/116/94
f 92/113/92 6/6/4 11/11/12 95/117/95
f 51/114/52 93/115/93 96/119/96 46/118/47
f 93/115/93 94/116/94 97/120/97 96/119/96
f 94/116/94 95/117/95 98/121/98 97/120/97
f 95/117/95 11/11/12 16/16/17 98/121/98
f 46/118/47 96/119/96 36/123/37 41/122/42
f 96/119/96 97/120/97 31/124/32 36/123/37
f 97/120/97 98/121/98 26/125/27 31/124/32
f 98/121/98 16/16/17 21/21/22 26/125/27
