# This file uses centimeters as units for non-parametric coordinates.

mtllib MBridges1.mtl
g default
v -106.286560 -1.642768 174.233627
v -163.936966 -1.642768 174.233627
v -106.286560 -0.842768 174.233627
v -163.936966 -0.842768 174.233627
v -106.286560 -0.842768 280.597015
v -163.936966 -0.842768 280.597015
v -106.286560 -1.642768 280.597015
v -163.936966 -1.642768 280.597015
v -112.810349 -1.642768 174.233643
v -112.810349 -1.642768 280.597046
v -112.834763 -0.842768 280.597046
v -112.834763 -0.842768 174.233643
v -157.725800 -1.642768 174.233627
v -157.572220 -0.842768 174.233627
v -157.572220 -0.842768 280.597015
v -157.725800 -1.642768 280.597015
v -106.286560 3.818874 174.233627
v -112.834763 0.057122 174.233643
v -112.834763 0.057122 280.597046
v -106.286560 3.818874 280.597015
v -157.572220 0.057122 174.233627
v -157.572220 0.057122 280.597015
v -163.936966 3.818874 174.233627
v -163.936966 3.818874 280.597015
v -155.281143 12.904371 193.105881
v -163.911270 12.904371 193.105881
v -155.281143 13.904371 193.105881
v -163.911270 13.904371 193.105881
v -155.281143 13.904371 201.736008
v -163.911270 13.904371 201.736008
v -155.281143 12.904371 201.736008
v -163.911270 12.904371 201.736008
v -131.949921 12.904371 193.116455
v -140.580048 12.904371 193.116455
v -131.949921 13.904371 193.116455
v -140.580048 13.904371 193.116455
v -131.949921 13.904371 213.364990
v -140.580048 13.904371 213.364990
v -131.949921 12.904371 213.364990
v -140.580048 12.904371 213.364990
v -131.949921 13.904371 201.809326
v -140.580048 13.904371 201.809326
v -140.580048 12.904371 201.809326
v -131.949921 12.904371 201.809326
v -131.949921 12.904371 204.708145
v -140.580048 12.904371 204.708145
v -140.580048 13.904371 204.708145
v -131.949921 13.904371 204.708145
v -128.775848 12.904371 213.364990
v -128.775848 12.904371 204.708145
v -128.775848 13.904371 204.708145
v -128.775848 13.904371 213.364990
v -142.988220 12.904371 201.809326
v -142.988220 12.904371 193.116455
v -142.988220 13.904371 201.809326
v -142.988220 13.904371 193.116455
v -106.278320 12.904371 181.533951
v -114.908447 12.904371 181.533951
v -106.278320 13.904371 181.533951
v -114.908447 13.904371 181.533951
v -106.278320 13.904371 190.164078
v -114.908447 13.904371 190.164078
v -106.278320 12.904371 190.164078
v -114.908447 12.904371 190.164078
v -106.283554 12.904371 204.709763
v -114.913681 12.904371 204.709763
v -106.283554 13.904371 204.709763
v -114.913681 13.904371 204.709763
v -106.283554 13.904371 213.339890
v -114.913681 13.904371 213.339890
v -106.283554 12.904371 213.339890
v -114.913681 12.904371 213.339890
v -114.912155 23.289232 215.534607
v -123.542282 23.289232 215.534607
v -114.912155 24.289232 215.534607
v -123.542282 24.289232 215.534607
v -114.912155 24.289232 224.164734
v -123.542282 24.289232 224.164734
v -114.912155 23.289232 224.164734
v -123.542282 23.289232 224.164734
v -106.274292 23.289232 238.183105
v -123.542282 23.289232 238.183105
v -106.274292 24.289232 238.183105
v -123.542282 24.289232 238.183105
v -106.274292 24.289232 246.813232
v -123.542282 24.289232 246.813232
v -106.274292 23.289232 246.813232
v -123.542282 23.289232 246.813232
v -135.950256 23.289232 248.951172
v -144.580383 23.289232 248.951172
v -135.950256 24.289232 248.951172
v -144.580383 24.289232 248.951172
v -135.950256 24.289232 257.581299
v -144.580383 24.289232 257.581299
v -135.950256 23.289232 257.581299
v -144.580383 23.289232 257.581299
v -135.950256 23.289232 215.534607
v -144.580383 23.289232 215.534607
v -135.950256 24.289232 215.534607
v -144.580383 24.289232 215.534607
v -135.950256 24.289232 224.164734
v -144.580383 24.289232 224.164734
v -135.950256 23.289232 224.164734
v -144.580383 23.289232 224.164734
v -155.266510 23.289232 248.951172
v -163.896637 23.289232 248.951172
v -155.266510 24.289232 248.951172
v -163.896637 24.289232 248.951172
v -155.266510 24.289232 257.581299
v -163.896637 24.289232 257.581299
v -155.266510 23.289232 257.581299
v -163.896637 23.289232 257.581299
vt 0.403290 0.250000
vt 0.403290 0.000000
vt 0.598065 0.000000
vt 0.598065 0.250000
vt 0.403290 0.500000
vt 0.598065 0.500000
vt 0.403290 0.750000
vt 0.598065 0.750000
vt 0.403290 1.000000
vt 0.598065 1.000000
vt 0.625000 0.000000
vt 0.875000 0.000000
vt 0.875000 0.250000
vt 0.625000 0.250000
vt 0.125000 0.000000
vt 0.375000 0.000000
vt 0.375000 0.250000
vt 0.125000 0.250000
vt 0.375000 0.750000
vt 0.375000 1.000000
vt 0.375000 0.500000
vt 0.375000 0.250000
vt 0.403290 0.250000
vt 0.403290 0.500000
vt 0.375000 0.500000
vt 0.598065 0.500000
vt 0.598065 0.250000
vt 0.625000 0.250000
vt 0.625000 0.500000
vt 0.625000 0.500000
vt 0.625000 0.750000
vt 0.625000 1.000000
vt 0.375000 0.000000
vt 0.625000 0.000000
vt 0.625000 0.250000
vt 0.375000 0.250000
vt 0.625000 0.500000
vt 0.375000 0.500000
vt 0.625000 0.750000
vt 0.375000 0.750000
vt 0.625000 1.000000
vt 0.375000 1.000000
vt 0.875000 0.000000
vt 0.875000 0.250000
vt 0.125000 0.000000
vt 0.125000 0.250000
vt 0.375000 0.000000
vt 0.625000 0.000000
vt 0.625000 0.250000
vt 0.375000 0.250000
vt 0.375000 0.357327
vt 0.625000 0.357327
vt 0.625000 0.393118
vt 0.375000 0.393118
vt 0.375000 0.500000
vt 0.625000 0.500000
vt 0.625000 0.750000
vt 0.375000 0.750000
vt 0.375000 0.856882
vt 0.625000 0.856882
vt 0.625000 0.892673
vt 0.375000 0.892673
vt 0.732327 0.250000
vt 0.732327 0.000000
vt 0.768118 0.000000
vt 0.768118 0.250000
vt 0.231882 0.250000
vt 0.231882 0.000000
vt 0.267673 0.000000
vt 0.267673 0.250000
vt 0.625000 0.000000
vt 0.732327 0.000000
vt 0.732327 0.250000
vt 0.625000 0.250000
vt 0.625000 1.000000
vt 0.375000 1.000000
vt 0.875000 0.000000
vt 0.875000 0.250000
vt 0.125000 0.000000
vt 0.231882 0.000000
vt 0.231882 0.250000
vt 0.125000 0.250000
vt 0.125000 0.000000
vt 0.125000 0.250000
vt 0.375000 0.000000
vt 0.625000 0.000000
vt 0.625000 0.250000
vt 0.375000 0.250000
vt 0.625000 0.500000
vt 0.375000 0.500000
vt 0.625000 0.750000
vt 0.375000 0.750000
vt 0.625000 1.000000
vt 0.375000 1.000000
vt 0.875000 0.000000
vt 0.875000 0.250000
vt 0.125000 0.000000
vt 0.125000 0.250000
vt 0.375000 0.000000
vt 0.625000 0.000000
vt 0.625000 0.250000
vt 0.375000 0.250000
vt 0.625000 0.500000
vt 0.375000 0.500000
vt 0.625000 0.750000
vt 0.375000 0.750000
vt 0.625000 1.000000
vt 0.375000 1.000000
vt 0.875000 0.000000
vt 0.875000 0.250000
vt 0.125000 0.000000
vt 0.125000 0.250000
vt 0.375000 0.000000
vt 0.625000 0.000000
vt 0.625000 0.250000
vt 0.375000 0.250000
vt 0.625000 0.500000
vt 0.375000 0.500000
vt 0.625000 0.750000
vt 0.375000 0.750000
vt 0.625000 1.000000
vt 0.375000 1.000000
vt 0.875000 0.000000
vt 0.875000 0.250000
vt 0.125000 0.000000
vt 0.125000 0.250000
vt 0.375000 0.000000
vt 0.625000 0.000000
vt 0.625000 0.250000
vt 0.375000 0.250000
vt 0.625000 0.500000
vt 0.375000 0.500000
vt 0.625000 0.750000
vt 0.375000 0.750000
vt 0.625000 1.000000
vt 0.375000 1.000000
vt 0.875000 0.000000
vt 0.875000 0.250000
vt 0.125000 0.000000
vt 0.125000 0.250000
vt 0.375000 0.000000
vt 0.625000 0.000000
vt 0.625000 0.250000
vt 0.375000 0.250000
vt 0.625000 0.500000
vt 0.375000 0.500000
vt 0.625000 0.750000
vt 0.375000 0.750000
vt 0.625000 1.000000
vt 0.375000 1.000000
vt 0.875000 0.000000
vt 0.875000 0.250000
vt 0.125000 0.000000
vt 0.125000 0.250000
vt 0.375000 0.000000
vt 0.625000 0.000000
vt 0.625000 0.250000
vt 0.375000 0.250000
vt 0.625000 0.500000
vt 0.375000 0.500000
vt 0.625000 0.750000
vt 0.375000 0.750000
vt 0.625000 1.000000
vt 0.375000 1.000000
vt 0.875000 0.000000
vt 0.875000 0.250000
vt 0.125000 0.000000
vt 0.125000 0.250000
vt 0.375000 0.000000
vt 0.625000 0.000000
vt 0.625000 0.250000
vt 0.375000 0.250000
vt 0.625000 0.500000
vt 0.375000 0.500000
vt 0.625000 0.750000
vt 0.375000 0.750000
vt 0.625000 1.000000
vt 0.375000 1.000000
vt 0.875000 0.000000
vt 0.875000 0.250000
vt 0.125000 0.000000
vt 0.125000 0.250000
vn 0.000000 0.000000 -1.000000
vn 0.000000 0.000000 -1.000000
vn 0.000000 0.000000 -1.000000
vn -0.000001 0.000000 -1.000000
vn 0.000000 1.000000 0.000000
vn 0.000000 1.000000 0.000000
vn 0.000000 1.000000 0.000000
vn 0.000000 1.000000 0.000000
vn -0.000000 0.000000 1.000000
vn 0.000001 0.000000 1.000000
vn 0.000002 0.000000 1.000000
vn -0.000001 0.000000 1.000000
vn 0.000000 -1.000000 0.000000
vn 0.000000 -1.000000 0.000000
vn 0.000000 -1.000000 0.000000
vn 0.000000 -1.000000 0.000000
vn -1.000000 0.000000 -0.000000
vn -1.000000 0.000000 -0.000000
vn -1.000000 0.000000 -0.000000
vn -1.000000 0.000000 -0.000000
vn 1.000000 0.000000 0.000000
vn 1.000000 0.000000 0.000000
vn 1.000000 0.000000 0.000000
vn 1.000000 0.000000 0.000000
vn 0.000000 -1.000000 0.000000
vn 0.000000 -1.000000 0.000000
vn 0.000000 -1.000000 0.000000
vn 0.000000 -1.000000 0.000000
vn 0.000005 0.000000 1.000000
vn 0.000001 0.000000 1.000000
vn -0.000000 0.000000 1.000000
vn 0.000003 0.000000 1.000000
vn -0.498127 0.867104 -0.000000
vn -0.498127 0.867104 -0.000000
vn -0.498127 0.867104 -0.000000
vn -0.498127 0.867104 -0.000000
vn -0.000003 0.000000 -1.000000
vn 0.000000 0.000000 -1.000000
vn 0.000000 0.000000 -1.000000
vn -0.000001 0.000000 -1.000000
vn -0.000001 0.000000 -1.000000
vn 0.000000 0.000000 -1.000000
vn 0.000000 0.000000 -1.000000
vn -0.000003 0.000000 -1.000000
vn 0.508806 0.860881 0.000000
vn 0.508806 0.860881 0.000000
vn 0.508806 0.860881 0.000000
vn 0.508806 0.860881 0.000000
vn -0.000001 0.000000 1.000000
vn 0.000002 0.000000 1.000000
vn 0.000005 0.000000 1.000000
vn -0.000000 0.000000 1.000000
vn 0.000000 -1.000000 0.000000
vn 0.000000 -1.000000 0.000000
vn 0.000000 -1.000000 0.000000
vn 0.000000 -1.000000 0.000000
vn -0.000001 0.000000 -1.000000
vn 0.000000 0.000000 -1.000000
vn 0.000000 0.000000 -1.000000
vn 0.000000 0.000000 -1.000000
vn -1.000000 0.000000 -0.000000
vn -1.000000 0.000000 -0.000000
vn -1.000000 0.000000 -0.000000
vn -1.000000 0.000000 -0.000000
vn 0.000001 0.000000 1.000000
vn 0.000005 0.000000 1.000000
vn 0.000005 0.000000 1.000000
vn 0.000005 0.000000 1.000000
vn 1.000000 0.000000 0.000000
vn 1.000000 0.000000 0.000000
vn 1.000000 0.000000 0.000000
vn 1.000000 0.000000 0.000000
vn 1.000000 0.000000 0.000000
vn 1.000000 0.000000 0.000000
vn 1.000000 0.000000 0.000000
vn 1.000000 0.000000 0.000000
vn -0.000001 0.000000 -1.000000
vn -0.000003 0.000000 -1.000000
vn -0.000004 0.000000 -1.000000
vn -0.000004 0.000000 -1.000000
vn -1.000000 0.000000 -0.000000
vn -1.000000 0.000000 -0.000000
vn -1.000000 0.000000 -0.000000
vn -1.000000 0.000000 -0.000000
vn 0.000005 0.000000 1.000000
vn 0.000002 0.000000 1.000000
vn 0.000007 0.000000 1.000000
vn 0.000007 0.000000 1.000000
vn 0.000000 0.000000 -1.000000
vn 0.000000 0.000000 -1.000000
vn 0.000000 0.000000 -1.000000
vn 0.000000 0.000000 -1.000000
vn 0.000000 1.000000 0.000000
vn 0.000000 1.000000 0.000000
vn 0.000000 1.000000 0.000000
vn 0.000000 1.000000 0.000000
vn -0.000000 0.000000 1.000000
vn -0.000000 0.000000 1.000000
vn -0.000000 0.000000 1.000000
vn -0.000000 0.000000 1.000000
vn 0.000000 -1.000000 0.000000
vn 0.000000 -1.000000 0.000000
vn 0.000000 -1.000000 0.000000
vn 0.000000 -1.000000 0.000000
vn -1.000000 0.000000 -0.000000
vn -1.000000 0.000000 -0.000000
vn -1.000000 0.000000 -0.000000
vn -1.000000 0.000000 -0.000000
vn 1.000000 0.000000 0.000000
vn 1.000000 0.000000 0.000000
vn 1.000000 0.000000 0.000000
vn 1.000000 0.000000 0.000000
vn 0.000000 0.000000 -1.000000
vn 0.000000 0.000000 -1.000000
vn 0.000000 0.000000 -1.000000
vn 0.000000 0.000000 -1.000000
vn 0.000000 1.000000 0.000000
vn 0.000000 1.000000 0.000000
vn 0.000000 1.000000 0.000000
vn 0.000000 1.000000 0.000000
vn -0.000000 0.000000 1.000000
vn -0.000000 0.000000 1.000000
vn -0.000000 0.000000 1.000000
vn -0.000000 0.000000 1.000000
vn 0.000000 -1.000000 0.000000
vn 0.000000 -1.000000 0.000000
vn 0.000000 -1.000000 0.000000
vn 0.000000 -1.000000 0.000000
vn -1.000000 0.000000 -0.000000
vn -1.000000 0.000000 -0.000000
vn -1.000000 0.000000 -0.000000
vn -1.000000 0.000000 -0.000000
vn 1.000000 0.000000 0.000000
vn 1.000000 0.000000 0.000000
vn 1.000000 0.000000 0.000000
vn 1.000000 0.000000 0.000000
vn 0.000000 1.000000 0.000000
vn 0.000000 1.000000 0.000000
vn 0.000000 1.000000 0.000000
vn 0.000000 1.000000 0.000000
vn -1.000000 0.000000 -0.000000
vn -1.000000 0.000000 -0.000000
vn -1.000000 0.000000 -0.000000
vn -1.000000 0.000000 -0.000000
vn 0.000000 -1.000000 0.000000
vn 0.000000 -1.000000 0.000000
vn 0.000000 -1.000000 0.000000
vn 0.000000 -1.000000 0.000000
vn 1.000000 0.000000 0.000000
vn 1.000000 0.000000 0.000000
vn 1.000000 0.000000 0.000000
vn 1.000000 0.000000 0.000000
vn 0.000000 -1.000000 0.000000
vn 0.000000 -1.000000 0.000000
vn 0.000000 -1.000000 0.000000
vn 0.000000 -1.000000 0.000000
vn -1.000000 0.000000 -0.000000
vn -1.000000 0.000000 -0.000000
vn -1.000000 0.000000 -0.000000
vn -1.000000 0.000000 -0.000000
vn 0.000000 1.000000 0.000000
vn 0.000000 1.000000 0.000000
vn 0.000000 1.000000 0.000000
vn 0.000000 1.000000 0.000000
vn 1.000000 0.000000 0.000000
vn 1.000000 0.000000 0.000000
vn 1.000000 0.000000 0.000000
vn 1.000000 0.000000 0.000000
vn 0.000000 -1.000000 0.000000
vn 0.000000 -1.000000 0.000000
vn 0.000000 -1.000000 0.000000
vn 0.000000 -1.000000 0.000000
vn 0.000000 0.000000 -1.000000
vn 0.000000 0.000000 -1.000000
vn 0.000000 0.000000 -1.000000
vn 0.000000 0.000000 -1.000000
vn 0.000000 1.000000 0.000000
vn 0.000000 1.000000 0.000000
vn 0.000000 1.000000 0.000000
vn 0.000000 1.000000 0.000000
vn -0.000000 0.000000 1.000000
vn -0.000000 0.000000 1.000000
vn -0.000000 0.000000 1.000000
vn -0.000000 0.000000 1.000000
vn 0.000000 -1.000000 0.000000
vn 0.000000 -1.000000 0.000000
vn 0.000000 -1.000000 0.000000
vn 0.000000 -1.000000 0.000000
vn -0.000000 0.000000 1.000000
vn -0.000000 0.000000 1.000000
vn -0.000000 0.000000 1.000000
vn -0.000000 0.000000 1.000000
vn 0.000000 1.000000 0.000000
vn 0.000000 1.000000 0.000000
vn 0.000000 1.000000 0.000000
vn 0.000000 1.000000 0.000000
vn 0.000000 0.000000 -1.000000
vn 0.000000 0.000000 -1.000000
vn 0.000000 0.000000 -1.000000
vn 0.000000 0.000000 -1.000000
vn 0.000000 0.000000 -1.000000
vn 0.000000 0.000000 -1.000000
vn 0.000000 0.000000 -1.000000
vn 0.000000 0.000000 -1.000000
vn 0.000000 1.000000 0.000000
vn 0.000000 1.000000 0.000000
vn 0.000000 1.000000 0.000000
vn 0.000000 1.000000 0.000000
vn -0.000000 0.000000 1.000000
vn -0.000000 0.000000 1.000000
vn -0.000000 0.000000 1.000000
vn -0.000000 0.000000 1.000000
vn 0.000000 -1.000000 0.000000
vn 0.000000 -1.000000 0.000000
vn 0.000000 -1.000000 0.000000
vn 0.000000 -1.000000 0.000000
vn -1.000000 0.000000 -0.000000
vn -1.000000 0.000000 -0.000000
vn -1.000000 0.000000 -0.000000
vn -1.000000 0.000000 -0.000000
vn 1.000000 0.000000 0.000000
vn 1.000000 0.000000 0.000000
vn 1.000000 0.000000 0.000000
vn 1.000000 0.000000 0.000000
vn 0.000000 0.000000 -1.000000
vn 0.000000 0.000000 -1.000000
vn 0.000000 0.000000 -1.000000
vn 0.000000 0.000000 -1.000000
vn 0.000000 1.000000 0.000000
vn 0.000000 1.000000 0.000000
vn 0.000000 1.000000 0.000000
vn 0.000000 1.000000 0.000000
vn -0.000000 0.000000 1.000000
vn -0.000000 0.000000 1.000000
vn -0.000000 0.000000 1.000000
vn -0.000000 0.000000 1.000000
vn 0.000000 -1.000000 0.000000
vn 0.000000 -1.000000 0.000000
vn 0.000000 -1.000000 0.000000
vn 0.000000 -1.000000 0.000000
vn -1.000000 0.000000 -0.000000
vn -1.000000 0.000000 -0.000000
vn -1.000000 0.000000 -0.000000
vn -1.000000 0.000000 -0.000000
vn 1.000000 0.000000 0.000000
vn 1.000000 0.000000 0.000000
vn 1.000000 0.000000 0.000000
vn 1.000000 0.000000 0.000000
vn 0.000000 0.000000 -1.000000
vn 0.000000 0.000000 -1.000000
vn 0.000000 0.000000 -1.000000
vn 0.000000 0.000000 -1.000000
vn 0.000000 1.000000 0.000000
vn 0.000000 1.000000 0.000000
vn 0.000000 1.000000 0.000000
vn 0.000000 1.000000 0.000000
vn -0.000000 0.000000 1.000000
vn -0.000000 0.000000 1.000000
vn -0.000000 0.000000 1.000000
vn -0.000000 0.000000 1.000000
vn 0.000000 -1.000000 0.000000
vn 0.000000 -1.000000 0.000000
vn 0.000000 -1.000000 0.000000
vn 0.000000 -1.000000 0.000000
vn -1.000000 0.000000 -0.000000
vn -1.000000 0.000000 -0.000000
vn -1.000000 0.000000 -0.000000
vn -1.000000 0.000000 -0.000000
vn 1.000000 0.000000 0.000000
vn 1.000000 0.000000 0.000000
vn 1.000000 0.000000 0.000000
vn 1.000000 0.000000 0.000000
vn 0.000000 0.000000 -1.000000
vn 0.000000 0.000000 -1.000000
vn 0.000000 0.000000 -1.000000
vn 0.000000 0.000000 -1.000000
vn 0.000000 1.000000 0.000000
vn 0.000000 1.000000 0.000000
vn 0.000000 1.000000 0.000000
vn 0.000000 1.000000 0.000000
vn -0.000000 0.000000 1.000000
vn -0.000000 0.000000 1.000000
vn -0.000000 0.000000 1.000000
vn -0.000000 0.000000 1.000000
vn 0.000000 -1.000000 0.000000
vn 0.000000 -1.000000 0.000000
vn 0.000000 -1.000000 0.000000
vn 0.000000 -1.000000 0.000000
vn -1.000000 0.000000 -0.000000
vn -1.000000 0.000000 -0.000000
vn -1.000000 0.000000 -0.000000
vn -1.000000 0.000000 -0.000000
vn 1.000000 0.000000 0.000000
vn 1.000000 0.000000 0.000000
vn 1.000000 0.000000 0.000000
vn 1.000000 0.000000 0.000000
vn 0.000000 0.000000 -1.000000
vn 0.000000 0.000000 -1.000000
vn 0.000000 0.000000 -1.000000
vn 0.000000 0.000000 -1.000000
vn 0.000000 1.000000 0.000000
vn 0.000000 1.000000 0.000000
vn 0.000000 1.000000 0.000000
vn 0.000000 1.000000 0.000000
vn -0.000000 0.000000 1.000000
vn -0.000000 0.000000 1.000000
vn -0.000000 0.000000 1.000000
vn -0.000000 0.000000 1.000000
vn 0.000000 -1.000000 0.000000
vn 0.000000 -1.000000 0.000000
vn 0.000000 -1.000000 0.000000
vn 0.000000 -1.000000 0.000000
vn -1.000000 0.000000 -0.000000
vn -1.000000 0.000000 -0.000000
vn -1.000000 0.000000 -0.000000
vn -1.000000 0.000000 -0.000000
vn 1.000000 0.000000 0.000000
vn 1.000000 0.000000 0.000000
vn 1.000000 0.000000 0.000000
vn 1.000000 0.000000 0.000000
vn 0.000000 0.000000 -1.000000
vn 0.000000 0.000000 -1.000000
vn 0.000000 0.000000 -1.000000
vn 0.000000 0.000000 -1.000000
vn 0.000000 1.000000 0.000000
vn 0.000000 1.000000 0.000000
vn 0.000000 1.000000 0.000000
vn 0.000000 1.000000 0.000000
vn -0.000000 0.000000 1.000000
vn -0.000000 0.000000 1.000000
vn -0.000000 0.000000 1.000000
vn -0.000000 0.000000 1.000000
vn 0.000000 -1.000000 0.000000
vn 0.000000 -1.000000 0.000000
vn 0.000000 -1.000000 0.000000
vn 0.000000 -1.000000 0.000000
vn -1.000000 0.000000 -0.000000
vn -1.000000 0.000000 -0.000000
vn -1.000000 0.000000 -0.000000
vn -1.000000 0.000000 -0.000000
vn 1.000000 0.000000 0.000000
vn 1.000000 0.000000 0.000000
vn 1.000000 0.000000 0.000000
vn 1.000000 0.000000 0.000000
vn 0.000000 0.000000 -1.000000
vn 0.000000 0.000000 -1.000000
vn 0.000000 0.000000 -1.000000
vn 0.000000 0.000000 -1.000000
vn 0.000000 1.000000 0.000000
vn 0.000000 1.000000 0.000000
vn 0.000000 1.000000 0.000000
vn 0.000000 1.000000 0.000000
vn -0.000000 0.000000 1.000000
vn -0.000000 0.000000 1.000000
vn -0.000000 0.000000 1.000000
vn -0.000000 0.000000 1.000000
vn 0.000000 -1.000000 0.000000
vn 0.000000 -1.000000 0.000000
vn 0.000000 -1.000000 0.000000
vn 0.000000 -1.000000 0.000000
vn -1.000000 0.000000 -0.000000
vn -1.000000 0.000000 -0.000000
vn -1.000000 0.000000 -0.000000
vn -1.000000 0.000000 -0.000000
vn 1.000000 0.000000 0.000000
vn 1.000000 0.000000 0.000000
vn 1.000000 0.000000 0.000000
vn 1.000000 0.000000 0.000000
s off
g polySurface95
usemtl test3:initialShadingGroup
f 12/1/1 9/2/2 13/3/3 14/4/4
f 11/5/5 12/1/6 14/4/7 15/6/8
f 10/7/9 11/5/10 15/6/11 16/8/12
f 9/9/13 10/7/14 16/8/15 13/10/16
f 2/11/17 8/12/18 6/13/19 4/14/20
f 7/15/21 1/16/22 3/17/23 5/18/24
f 7/19/25 10/7/26 9/9/27 1/20/28
f 5/21/29 11/5/30 10/7/31 7/19/32
f 17/22/33 18/23/34 19/24/35 20/25/36
f 1/16/37 9/2/38 12/1/39 3/17/40
f 14/4/41 13/3/42 2/11/43 4/14/44
f 22/26/45 21/27/46 23/28/47 24/29/48
f 16/8/49 15/6/50 6/30/51 8/31/52
f 13/10/53 16/8/54 8/31/55 2/32/56
f 3/17/57 12/1/58 18/23/59 17/22/60
f 12/1/61 11/5/62 19/24/63 18/23/64
f 11/5/65 5/21/66 20/25/67 19/24/68
f 5/21/69 3/17/70 17/22/71 20/25/72
f 15/6/73 14/4/74 21/27/75 22/26/76
f 14/4/77 4/14/78 23/28/79 21/27/80
f 4/14/81 6/30/82 24/29/83 23/28/84
f 6/30/85 15/6/86 22/26/87 24/29/88
f 25/33/89 26/34/90 28/35/91 27/36/92
f 27/36/93 28/35/94 30/37/95 29/38/96
f 29/38/97 30/37/98 32/39/99 31/40/100
f 31/40/101 32/39/102 26/41/103 25/42/104
f 26/34/105 32/43/106 30/44/107 28/35/108
f 31/45/109 25/33/110 27/36/111 29/46/112
f 33/47/113 34/48/114 36/49/115 35/50/116
f 41/51/117 42/52/118 47/53/119 48/54/120
f 37/55/121 38/56/122 40/57/123 39/58/124
f 45/59/125 46/60/126 43/61/127 44/62/128
f 42/63/129 43/64/130 46/65/131 47/66/132
f 48/67/133 45/68/134 44/69/135 41/70/136
f 35/50/137 36/49/138 42/52/139 41/51/140
f 54/71/141 53/72/142 55/73/143 56/74/144
f 44/62/145 43/61/146 34/75/147 33/76/148
f 41/70/149 44/69/150 33/47/151 35/50/152
f 39/58/153 40/57/154 46/60/155 45/59/156
f 47/66/157 46/65/158 40/77/159 38/78/160
f 48/54/161 47/53/162 38/56/163 37/55/164
f 49/79/165 50/80/166 51/81/167 52/82/168
f 39/83/169 45/68/170 50/80/171 49/79/172
f 45/68/173 48/67/174 51/81/175 50/80/176
f 48/67/177 37/84/178 52/82/179 51/81/180
f 37/84/181 39/83/182 49/79/183 52/82/184
f 34/48/185 43/64/186 53/72/187 54/71/188
f 43/64/189 42/63/190 55/73/191 53/72/192
f 42/63/193 36/49/194 56/74/195 55/73/196
f 36/49/197 34/48/198 54/71/199 56/74/200
f 57/85/201 58/86/202 60/87/203 59/88/204
f 59/88/205 60/87/206 62/89/207 61/90/208
f 61/90/209 62/89/210 64/91/211 63/92/212
f 63/92/213 64/91/214 58/93/215 57/94/216
f 58/86/217 64/95/218 62/96/219 60/87/220
f 63/97/221 57/85/222 59/88/223 61/98/224
f 65/99/225 66/100/226 68/101/227 67/102/228
f 67/102/229 68/101/230 70/103/231 69/104/232
f 69/104/233 70/103/234 72/105/235 71/106/236
f 71/106/237 72/105/238 66/107/239 65/108/240
f 66/100/241 72/109/242 70/110/243 68/101/244
f 71/111/245 65/99/246 67/102/247 69/112/248
f 73/113/249 74/114/250 76/115/251 75/116/252
f 75/116/253 76/115/254 78/117/255 77/118/256
f 77/118/257 78/117/258 80/119/259 79/120/260
f 79/120/261 80/119/262 74/121/263 73/122/264
f 74/114/265 80/123/266 78/124/267 76/115/268
f 79/125/269 73/113/270 75/116/271 77/126/272
f 81/127/273 82/128/274 84/129/275 83/130/276
f 83/130/277 84/129/278 86/131/279 85/132/280
f 85/132/281 86/131/282 88/133/283 87/134/284
f 87/134/285 88/133/286 82/135/287 81/136/288
f 82/128/289 88/137/290 86/138/291 84/129/292
f 87/139/293 81/127/294 83/130/295 85/140/296
f 89/141/297 90/142/298 92/143/299 91/144/300
f 91/144/301 92/143/302 94/145/303 93/146/304
f 93/146/305 94/145/306 96/147/307 95/148/308
f 95/148/309 96/147/310 90/149/311 89/150/312
f 90/142/313 96/151/314 94/152/315 92/143/316
f 95/153/317 89/141/318 91/144/319 93/154/320
f 97/155/321 98/156/322 100/157/323 99/158/324
f 99/158/325 100/157/326 102/159/327 101/160/328
f 101/160/329 102/159/330 104/161/331 103/162/332
f 103/162/333 104/161/334 98/163/335 97/164/336
f 98/156/337 104/165/338 102/166/339 100/157/340
f 103/167/341 97/155/342 99/158/343 101/168/344
f 105/169/345 106/170/346 108/171/347 107/172/348
f 107/172/349 108/171/350 110/173/351 109/174/352
f 109/174/353 110/173/354 112/175/355 111/176/356
f 111/176/357 112/175/358 106/177/359 105/178/360
f 106/170/361 112/179/362 110/180/363 108/171/364
f 111/181/365 105/169/366 107/172/367 109/182/368
