# This file uses centimeters as units for non-parametric coordinates.

mtllib MThePitB1.mtl
g default
v -163.888824 -28.868780 -27.454773
v -311.116180 -28.868780 -27.454773
v -163.888824 -28.068781 -27.454773
v -311.116180 -28.068781 -27.454773
v -163.888824 -28.068781 36.737564
v -311.116180 -28.068781 36.737564
v -163.888824 -28.868780 36.737564
v -311.116180 -28.868780 36.737564
v -216.155869 -28.868782 -27.454773
v -216.155853 -28.868780 36.737579
v -216.155853 -28.068781 36.737579
v -216.155853 -28.068781 -27.454773
v -222.012543 -28.068781 -27.454773
v -222.012543 -28.068781 36.737579
v -222.012543 -28.868780 36.737579
v -222.012543 -28.868782 -27.454773
v -285.566681 -28.068781 -27.454773
v -285.566681 -28.068781 36.737564
v -285.566681 -28.868780 36.737564
v -285.566681 -28.868780 -27.454773
v -308.554047 -28.068781 -27.454773
v -308.554047 -28.068781 36.737564
v -308.554047 -28.868780 36.737564
v -308.554047 -28.868780 -27.454773
v -311.116180 -28.068781 34.070190
v -311.116180 -28.868780 34.070190
v -308.554047 -28.868780 34.070190
v -285.566681 -28.868780 34.070190
v -222.012543 -28.868780 34.070190
v -216.155853 -28.868780 34.070190
v -163.888824 -28.868780 34.070190
v -163.888809 -28.068781 34.070190
v -216.155853 -28.068781 34.070190
v -222.012543 -28.068781 34.070190
v -285.566681 -28.068781 34.070190
v -167.044708 -28.868780 -27.454773
v -167.044708 -28.868780 34.070190
v -167.044708 -28.868780 36.737564
v -167.044708 -28.068781 36.737564
v -167.044708 -28.068781 -27.454773
v -194.815491 -28.868780 36.737564
v -194.815491 -28.868780 34.070190
v -194.815491 -28.868780 -27.454773
v -194.815491 -28.068781 -27.454773
v -194.815475 -28.068781 34.070190
v -194.815491 -28.068781 36.737564
v -216.155853 -22.817598 36.737579
v -216.155853 -22.817598 34.070190
v -222.012543 -22.817598 34.070190
v -222.012543 -22.817598 36.737579
v -167.044708 -22.817598 36.737564
v -194.815475 -22.817598 34.070190
v -194.815491 -22.817598 36.737564
v -285.566681 -22.817598 34.070190
v -285.566681 -22.817598 36.737564
v -308.554047 -22.817598 36.737564
v -311.116180 -22.817598 34.070190
v -311.116180 -22.817598 36.737564
v -167.044708 -22.817598 -27.454773
v -194.815491 -22.817598 -27.454773
v -216.155853 -22.817598 -27.454773
v -222.012543 -22.817598 -27.454773
v -285.566681 -22.817598 -27.454773
v -308.554047 -22.817598 -27.454773
v -311.116180 -22.817598 -27.454773
v -163.888809 -22.817598 34.070190
v -163.888824 -22.817598 36.737564
v -163.888824 -22.817598 -27.454773
v -216.155853 -1.015091 36.737579
v -216.155853 -1.015091 34.070190
v -222.012543 -1.015092 34.070190
v -222.012543 -1.015092 36.737579
v -167.044708 -1.015092 36.737564
v -167.044693 -1.015092 34.070190
v -194.815475 -1.015091 34.070190
v -194.815491 -1.015091 36.737564
v -285.566681 -1.015091 34.070190
v -285.566681 -1.015091 36.737564
v -308.554047 -1.015092 34.070190
v -308.554047 -1.015091 36.737564
v -311.116180 -1.015092 34.070190
v -311.116180 -1.015092 36.737564
v -167.044708 -1.015092 -27.454773
v -194.815491 -1.015092 -27.454773
v -285.566681 -1.015090 -27.454773
v -308.554047 -1.015091 -27.454773
v -311.116180 -1.015092 -27.454773
v -163.888809 -1.015092 34.070190
v -163.888824 -1.015092 36.737564
v -163.888824 -1.015092 -27.454773
vt 0.463752 0.250000
vt 0.463752 0.000000
vt 0.473697 0.000000
vt 0.473697 0.250000
vt 0.463752 0.500000
vt 0.463752 0.488446
vt 0.473697 0.488446
vt 0.473697 0.500000
vt 0.463752 0.750000
vt 0.463752 0.500000
vt 0.473697 0.500000
vt 0.473697 0.750000
vt 0.473697 0.761554
vt 0.463752 0.761554
vt 0.863446 0.250000
vt 0.863446 0.000000
vt 0.875000 0.000000
vt 0.875000 0.250000
vt 0.125000 0.000000
vt 0.136554 0.000000
vt 0.136554 0.250000
vt 0.125000 0.250000
vt 0.380359 0.761554
vt 0.380359 0.750000
vt 0.427515 0.750000
vt 0.427515 0.761554
vt 0.380359 0.500000
vt 0.427515 0.500000
vt 0.380359 0.500000
vt 0.380359 0.488446
vt 0.427515 0.488446
vt 0.427515 0.500000
vt 0.380359 0.250000
vt 0.380359 0.000000
vt 0.427515 0.000000
vt 0.427515 0.250000
vt 0.581616 0.488446
vt 0.581616 0.500000
vt 0.581616 0.500000
vt 0.581616 0.750000
vt 0.581616 0.761554
vt 0.581616 0.000000
vt 0.581616 0.250000
vt 0.620649 0.488446
vt 0.620649 0.500000
vt 0.620649 0.500000
vt 0.620649 0.750000
vt 0.620649 0.761554
vt 0.620649 0.000000
vt 0.620649 0.250000
vt 0.625000 0.488446
vt 0.625000 0.500000
vt 0.625000 0.500000
vt 0.625000 0.750000
vt 0.625000 0.761554
vt 0.625000 0.000000
vt 0.625000 0.250000
vt 0.620649 1.000000
vt 0.625000 1.000000
vt 0.581616 1.000000
vt 0.473697 1.000000
vt 0.463752 1.000000
vt 0.380359 1.000000
vt 0.427515 1.000000
vt 0.375000 0.000000
vt 0.375000 0.250000
vt 0.380359 0.250000
vt 0.427515 0.250000
vt 0.473697 0.488446
vt 0.463752 0.488446
vt 0.463752 0.250000
vt 0.473697 0.250000
vt 0.581616 0.488446
vt 0.473697 0.488446
vt 0.581616 0.250000
vt 0.620649 0.250000
vt 0.625000 0.250000
vt 0.375000 0.761554
vt 0.375000 1.000000
vt 0.375000 0.750000
vt 0.375000 0.500000
vt 0.375000 0.488446
vt 0.375000 0.500000
vt 0.375000 0.250000
vt 0.427515 0.488446
vt 0.463752 0.488446
vt 0.463752 0.500000
vt 0.473697 0.500000
vt 0.380359 0.500000
vt 0.427515 0.500000
vt 0.581616 0.488446
vt 0.581616 0.500000
vt 0.620649 0.500000
vt 0.427515 0.250000
vt 0.380359 0.250000
vt 0.427515 0.488446
vt 0.581616 0.250000
vt 0.620649 0.250000
vt 0.625000 0.250000
vt 0.625000 0.488446
vt 0.625000 0.488446
vt 0.625000 0.500000
vt 0.375000 0.500000
vt 0.375000 0.488446
vt 0.375000 0.488446
vt 0.375000 0.250000
vn 0.000000 0.000000 -1.000000
vn 0.000000 0.000000 -1.000000
vn 0.000000 0.000000 -1.000000
vn 0.000000 0.000000 -1.000000
vn -0.000000 1.000000 0.000000
vn -0.000000 1.000000 0.000000
vn -0.000000 1.000000 0.000000
vn -0.000000 1.000000 0.000000
vn 0.000000 0.000000 1.000000
vn 0.000000 0.000000 1.000000
vn 0.000000 0.000000 1.000000
vn 0.000000 0.000000 1.000000
vn 0.000000 -1.000000 0.000000
vn 0.000000 -1.000000 0.000000
vn 0.000000 -1.000000 0.000000
vn 0.000000 -1.000000 0.000000
vn -1.000000 0.000000 0.000000
vn -1.000000 0.000000 0.000000
vn -1.000000 0.000000 -0.000000
vn -1.000000 0.000000 -0.000000
vn 1.000000 0.000000 0.000000
vn 1.000000 0.000000 0.000003
vn 1.000000 0.000000 0.000003
vn 1.000000 0.000000 0.000000
vn 0.000000 -1.000000 0.000000
vn 0.000000 -1.000000 0.000000
vn 0.000000 -1.000000 0.000000
vn 0.000000 -1.000000 0.000000
vn 0.000000 0.000000 1.000000
vn 0.000000 0.000000 1.000000
vn 0.000000 0.000000 1.000000
vn 0.000000 0.000000 1.000000
vn 0.000000 1.000000 0.000000
vn 0.000000 1.000000 0.000000
vn 0.000000 1.000000 0.000000
vn 0.000000 1.000000 0.000000
vn 0.000000 0.000000 -1.000000
vn 0.000000 0.000000 -1.000000
vn 0.000000 0.000000 -1.000000
vn 0.000000 0.000000 -1.000000
vn 0.000000 1.000000 0.000000
vn 0.000000 1.000000 0.000000
vn 0.000000 1.000000 0.000000
vn 0.000000 1.000000 0.000000
vn -0.000000 0.000000 1.000000
vn -0.000000 0.000000 1.000000
vn -0.000000 0.000000 1.000000
vn -0.000000 0.000000 1.000000
vn 0.000000 -1.000000 0.000000
vn 0.000000 -1.000000 0.000000
vn 0.000000 -1.000000 0.000000
vn 0.000000 -1.000000 0.000000
vn -0.000000 0.000000 -1.000000
vn -0.000000 0.000000 -1.000000
vn -0.000000 0.000000 -1.000000
vn -0.000000 0.000000 -1.000000
vn -0.000000 1.000000 -0.000000
vn -0.000000 1.000000 -0.000000
vn -0.000000 1.000000 -0.000000
vn -0.000000 1.000000 -0.000000
vn 0.000000 0.000000 1.000000
vn 0.000000 0.000000 1.000000
vn 0.000000 0.000000 1.000000
vn 0.000000 0.000000 1.000000
vn 0.000000 -1.000000 0.000000
vn 0.000000 -1.000000 0.000000
vn 0.000000 -1.000000 0.000000
vn 0.000000 -1.000000 0.000000
vn 0.000000 0.000000 -1.000000
vn 0.000000 0.000000 -1.000000
vn 0.000000 0.000000 -1.000000
vn 0.000000 0.000000 -1.000000
vn -0.000000 1.000000 -0.000000
vn -0.000000 1.000000 -0.000000
vn -0.000000 1.000000 -0.000000
vn 0.000000 1.000000 0.000000
vn 0.000000 0.000000 1.000000
vn 0.000000 0.000000 1.000000
vn -0.000000 0.000000 1.000000
vn -0.000000 0.000000 1.000000
vn 0.000000 -1.000000 0.000000
vn 0.000000 -1.000000 0.000000
vn 0.000000 -1.000000 0.000000
vn 0.000000 -1.000000 0.000000
vn 0.000000 0.000000 -1.000000
vn 0.000000 0.000000 -1.000000
vn 0.000000 0.000000 -1.000000
vn 0.000000 0.000000 -1.000000
vn -1.000000 0.000000 -0.000000
vn -1.000000 0.000000 0.000000
vn -1.000000 0.000000 0.000000
vn -1.000000 0.000000 -0.000000
vn 0.000000 -1.000000 0.000000
vn 0.000000 -1.000000 0.000000
vn 0.000000 -1.000000 0.000000
vn 0.000000 -1.000000 0.000000
vn 0.000000 -1.000000 0.000000
vn 0.000000 -1.000000 0.000000
vn 0.000000 -1.000000 0.000000
vn 0.000000 -1.000000 0.000000
vn -0.000000 -1.000000 0.000000
vn -0.000000 -1.000000 0.000000
vn -0.000000 -1.000000 0.000000
vn -0.000000 -1.000000 0.000000
vn 0.000000 -1.000000 0.000000
vn 0.000000 -1.000000 0.000000
vn 0.000000 -1.000000 0.000000
vn 0.000000 -1.000000 0.000000
vn 0.000000 -1.000000 0.000000
vn 0.000000 -1.000000 0.000000
vn 0.000000 -1.000000 0.000000
vn 0.000000 -1.000000 0.000000
vn 1.000000 0.000000 -0.000000
vn 1.000000 0.000000 -0.000000
vn 1.000000 0.000000 0.000000
vn 1.000000 0.000000 0.000000
vn 0.000000 1.000000 -0.000000
vn 0.000000 1.000000 -0.000000
vn 0.000000 1.000000 -0.000000
vn 0.000000 1.000000 -0.000000
vn 0.000000 1.000000 0.000000
vn 0.000000 1.000000 0.000000
vn 0.000000 1.000000 0.000000
vn 0.000000 1.000000 0.000000
vn 0.000000 1.000000 0.000000
vn 0.000000 1.000000 0.000000
vn 0.000000 1.000000 0.000000
vn 0.000000 1.000000 0.000000
vn -0.000000 1.000000 0.000000
vn -0.000000 1.000000 0.000000
vn -0.000000 1.000000 0.000000
vn -0.000000 1.000000 0.000000
vn -0.000000 1.000000 0.000000
vn -0.000000 1.000000 0.000000
vn -0.000000 1.000000 0.000000
vn 0.000000 1.000000 0.000000
vn 0.000000 -1.000000 0.000000
vn 0.000000 -1.000000 0.000000
vn 0.000000 -1.000000 0.000000
vn 0.000000 -1.000000 0.000000
vn 0.000000 -1.000000 0.000000
vn 0.000000 -1.000000 0.000000
vn 0.000000 -1.000000 0.000000
vn 0.000000 -1.000000 0.000000
vn -0.000000 0.000000 1.000000
vn 0.000000 0.000000 1.000000
vn 0.000000 0.000000 1.000000
vn -0.000000 0.000000 1.000000
vn 0.000000 1.000000 -0.000000
vn 0.000000 1.000000 -0.000000
vn 0.000000 1.000000 -0.000000
vn 0.000000 1.000000 0.000000
vn 0.000000 1.000000 0.000000
vn 0.000000 1.000000 0.000000
vn 0.000000 1.000000 0.000000
vn 0.000000 1.000000 0.000000
vn 0.000000 0.000000 -1.000000
vn 0.000000 0.000000 -1.000000
vn 0.000000 0.000000 -1.000000
vn 0.000000 0.000000 -1.000000
vn 0.000000 -1.000000 0.000000
vn 0.000000 -1.000000 0.000000
vn 0.000000 -1.000000 0.000000
vn 0.000000 -1.000000 0.000000
vn 0.000000 -1.000000 0.000000
vn 0.000000 -1.000000 0.000000
vn 0.000000 -1.000000 0.000000
vn 0.000000 -1.000000 0.000000
vn 0.000000 0.000000 -1.000000
vn 0.000000 0.000000 -1.000000
vn 0.000000 0.000000 -1.000000
vn 0.000000 0.000000 -1.000000
vn 0.000000 1.000000 0.000000
vn 0.000000 1.000000 0.000000
vn 0.000000 1.000000 0.000000
vn 0.000000 1.000000 0.000000
vn 0.000000 1.000000 0.000000
vn 0.000000 1.000000 0.000000
vn 0.000000 1.000000 0.000000
vn 0.000000 1.000000 0.000000
vn 0.000001 0.000000 1.000000
vn 0.000001 0.000000 1.000000
vn 0.000001 0.000000 1.000000
vn 0.000001 0.000000 1.000000
vn 0.000000 0.000000 1.000000
vn 0.000000 0.000000 1.000000
vn 0.000000 0.000000 1.000000
vn 0.000000 0.000000 1.000000
vn 0.000000 0.000000 1.000000
vn 0.000000 0.000000 1.000000
vn 0.000000 0.000000 1.000000
vn 0.000000 0.000000 1.000000
vn 0.000000 0.000000 -1.000000
vn 0.000000 0.000000 -1.000000
vn 0.000000 0.000000 -1.000000
vn 0.000000 0.000000 -1.000000
vn -0.000000 0.000000 1.000000
vn -0.000000 0.000000 1.000000
vn -0.000000 0.000000 1.000000
vn -0.000000 0.000000 1.000000
vn 0.000000 0.000000 1.000000
vn 0.000000 0.000000 1.000000
vn 0.000000 0.000000 1.000000
vn 0.000000 0.000000 1.000000
vn 0.000000 0.000000 -1.000000
vn 0.000000 0.000000 -1.000000
vn 0.000000 0.000000 -1.000000
vn 0.000000 0.000000 -1.000000
vn -1.000000 0.000000 0.000000
vn -1.000000 0.000000 0.000000
vn -1.000000 0.000000 0.000000
vn -1.000000 0.000000 0.000000
vn 1.000000 0.000000 0.000000
vn 1.000000 0.000000 0.000000
vn 1.000000 0.000000 0.000000
vn 1.000000 0.000000 0.000000
vn 0.000000 0.000000 -1.000000
vn 0.000000 0.000000 -1.000000
vn 0.000000 0.000000 -1.000000
vn 0.000000 0.000000 -1.000000
vn -1.000000 0.000000 0.000000
vn -1.000000 0.000000 0.000000
vn -1.000000 0.000000 0.000000
vn -1.000000 0.000000 0.000000
vn 1.000000 0.000000 0.000000
vn 1.000000 0.000000 0.000000
vn 1.000000 0.000000 0.000000
vn 1.000000 0.000000 0.000000
vn 0.000000 0.000000 -1.000000
vn 0.000000 0.000000 -1.000000
vn 0.000000 0.000000 -1.000000
vn 0.000000 0.000000 -1.000000
vn 0.000000 0.000000 -1.000000
vn 0.000000 0.000000 -1.000000
vn 0.000000 0.000000 -1.000000
vn 0.000000 0.000000 -1.000000
vn 0.000001 0.000000 1.000000
vn 0.000001 0.000000 1.000000
vn 0.000001 0.000000 1.000000
vn 0.000001 0.000000 1.000000
vn 0.000000 0.000000 -1.000000
vn 0.000000 0.000000 -1.000000
vn 0.000000 0.000000 -1.000000
vn 0.000000 0.000000 -1.000000
vn -0.000000 0.000000 1.000000
vn -0.000000 0.000000 1.000000
vn -0.000000 0.000000 1.000000
vn -0.000000 0.000000 1.000000
vn 0.000000 0.000000 1.000000
vn 0.000000 0.000000 1.000000
vn 0.000000 0.000000 1.000000
vn 0.000000 0.000000 1.000000
vn 0.000000 0.000000 -1.000000
vn 0.000000 0.000000 -1.000000
vn 0.000000 0.000000 -1.000000
vn 0.000000 0.000000 -1.000000
vn -0.000000 0.000000 1.000000
vn -0.000000 0.000000 1.000000
vn -0.000000 0.000000 1.000000
vn -0.000000 0.000000 1.000000
vn 0.000000 0.000000 1.000000
vn 0.000000 0.000000 1.000000
vn 0.000000 0.000000 1.000000
vn 0.000000 0.000000 1.000000
vn 0.000000 0.000000 -1.000000
vn 0.000000 0.000000 -1.000000
vn 0.000000 0.000000 -1.000000
vn 0.000000 0.000000 -1.000000
vn -1.000000 0.000000 0.000000
vn -1.000000 0.000000 0.000000
vn -1.000000 0.000000 0.000000
vn -1.000000 0.000000 0.000000
vn 1.000000 0.000000 0.000000
vn 1.000000 0.000000 0.000000
vn 1.000000 0.000000 0.000000
vn 1.000000 0.000000 0.000000
vn 0.000000 0.000000 -1.000000
vn 0.000000 0.000000 -1.000000
vn 0.000000 0.000000 -1.000000
vn 0.000000 0.000000 -1.000000
vn 0.000000 0.000000 -1.000000
vn 0.000000 0.000000 -1.000000
vn 0.000000 0.000000 -1.000000
vn 0.000000 0.000000 -1.000000
vn 0.000001 0.000000 1.000000
vn 0.000001 0.000000 1.000000
vn 0.000001 0.000000 1.000000
vn 0.000001 0.000000 1.000000
vn -1.000000 0.000000 0.000000
vn -1.000000 0.000000 0.000000
vn -1.000000 0.000000 0.000000
vn -1.000000 0.000000 0.000000
vn -1.000000 0.000000 0.000000
vn -1.000000 0.000000 0.000000
vn -0.000001 0.000000 -1.000000
vn -0.000001 0.000000 -1.000000
vn -0.000001 0.000000 -1.000000
vn -0.000001 0.000000 -1.000000
vn 0.000000 0.000000 -1.000000
vn 0.000000 0.000000 -1.000000
vn -1.000000 0.000000 0.000000
vn -1.000000 0.000000 0.000000
vn -1.000000 0.000000 0.000000
vn -1.000000 0.000000 0.000000
vn -1.000000 0.000000 0.000000
vn -1.000000 0.000000 0.000000
vn 0.000000 0.000000 1.000000
vn 0.000000 0.000000 1.000000
vn 0.000000 0.000000 1.000000
vn 0.000000 0.000000 1.000000
vn 0.000000 0.000000 1.000000
vn 0.000000 0.000000 1.000000
vn 0.000000 0.000000 1.000000
vn 0.000000 0.000000 1.000000
vn 0.000000 0.000000 1.000000
vn 0.000000 0.000000 1.000000
vn 0.000000 0.000000 1.000000
vn 0.000000 0.000000 1.000000
vn 1.000000 0.000000 0.000006
vn 1.000000 0.000000 0.000006
vn 1.000000 0.000000 0.000006
vn 1.000000 0.000000 0.000006
vn 1.000000 0.000000 0.000006
vn 1.000000 0.000000 0.000006
vn 1.000000 0.000000 -0.000000
vn 1.000000 0.000000 -0.000000
vn 1.000000 0.000000 -0.000000
vn 1.000000 0.000000 -0.000000
vn 1.000000 0.000000 -0.000000
vn 1.000000 0.000000 -0.000000
vn 0.000000 0.000000 -1.000000
vn 0.000000 0.000000 -1.000000
vn 0.000000 0.000000 -1.000000
vn 0.000000 0.000000 -1.000000
vn 0.000000 0.000000 -1.000000
vn 0.000000 0.000000 -1.000000
s off
g polySurface85 polySurface73
usemtl test3:initialShadingGroup
f 12/1/1 9/2/2 16/3/3 13/4/4
f 69/5/5 70/6/6 71/7/7 72/8/8
f 10/9/9 11/10/10 14/11/11 15/12/12
f 29/13/13 30/14/14 10/9/15 15/12/16
f 25/15/17 26/16/18 8/17/19 6/18/20
f 7/19/21 31/20/22 32/21/23 5/22/24
f 37/23/25 38/24/26 41/25/27 42/26/28
f 38/24/29 39/27/30 46/28/31 41/25/32
f 73/29/33 74/30/34 75/31/35 76/32/36
f 40/33/37 36/34/38 43/35/39 44/36/40
f 72/8/41 71/7/42 77/37/43 78/38/44
f 15/12/45 14/11/46 18/39/47 19/40/48
f 28/41/49 29/13/50 15/12/51 19/40/52
f 13/4/53 16/3/54 20/42/55 17/43/56
f 78/38/57 77/37/58 79/44/59 80/45/60
f 19/40/61 18/39/62 22/46/63 23/47/64
f 27/48/65 28/41/66 19/40/67 23/47/68
f 17/43/69 20/42/70 24/49/71 21/50/72
f 80/45/73 79/44/74 81/51/75 82/52/76
f 23/47/77 22/46/78 6/53/79 8/54/80
f 26/55/81 27/48/82 23/47/83 8/54/84
f 21/50/85 24/49/86 2/56/87 4/57/88
f 2/56/89 26/16/90 25/15/91 4/57/92
f 24/58/93 27/48/94 26/55/95 2/59/96
f 20/60/97 28/41/98 27/48/99 24/58/100
f 16/61/101 29/13/102 28/41/103 20/60/104
f 9/62/105 30/14/106 29/13/107 16/61/108
f 36/63/109 37/23/110 42/26/111 43/64/112
f 32/21/113 31/20/114 1/65/115 3/66/116
f 74/30/117 83/67/118 84/68/119 75/31/120
f 49/69/121 48/70/122 61/71/123 62/72/124
f 35/73/125 34/74/126 13/4/127 17/43/128
f 79/44/129 77/37/130 85/75/131 86/76/132
f 81/51/133 79/44/134 86/76/135 87/77/136
f 31/78/137 37/23/138 36/63/139 1/79/140
f 7/80/141 38/24/142 37/23/143 31/78/144
f 5/81/145 39/27/146 38/24/147 7/80/148
f 88/82/149 74/30/150 73/29/151 89/83/152
f 90/84/153 83/67/154 74/30/155 88/82/156
f 1/65/157 36/34/158 40/33/159 3/66/160
f 42/26/161 41/25/162 10/9/163 30/14/164
f 43/64/165 42/26/166 30/14/167 9/62/168
f 44/36/169 43/35/170 9/2/171 12/1/172
f 45/85/173 44/36/174 12/1/175 33/86/176
f 76/32/177 75/31/178 70/6/179 69/5/180
f 41/25/181 46/28/182 11/10/183 10/9/184
f 14/11/185 11/10/186 47/87/187 50/88/188
f 46/28/189 39/27/190 51/89/191 53/90/192
f 34/74/193 35/73/194 54/91/195 49/69/196
f 18/39/197 14/11/198 50/88/199 55/92/200
f 22/46/201 18/39/202 55/92/203 56/93/204
f 40/33/205 44/36/206 60/94/207 59/95/208
f 44/36/209 45/85/210 52/96/211 60/94/212
f 33/86/213 12/1/214 61/71/215 48/70/216
f 12/1/217 13/4/218 62/72/219 61/71/220
f 13/4/221 34/74/222 49/69/223 62/72/224
f 35/73/225 17/43/226 63/97/227 54/91/228
f 17/43/229 21/50/230 64/98/231 63/97/232
f 45/85/233 33/86/234 48/70/235 52/96/236
f 11/10/237 46/28/238 53/90/239 47/87/240
f 48/70/241 49/69/242 71/7/243 70/6/244
f 50/88/245 47/87/246 69/5/247 72/8/248
f 53/90/249 51/89/250 73/29/251 76/32/252
f 49/69/253 54/91/254 77/37/255 71/7/256
f 55/92/257 50/88/258 72/8/259 78/38/260
f 56/93/261 55/92/262 78/38/263 80/45/264
f 59/95/265 60/94/266 84/68/267 83/67/268
f 60/94/269 52/96/270 75/31/271 84/68/272
f 54/91/273 63/97/274 85/75/275 77/37/276
f 63/97/277 64/98/278 86/76/279 85/75/280
f 52/96/281 48/70/282 70/6/283 75/31/284
f 47/87/285 53/90/286 76/32/287 69/5/288
s 1
f 81/51/289 87/77/290 65/99/291 57/100/292
f 57/100/292 65/99/291 4/57/293 25/101/294
s 2
f 86/76/295 64/98/296 65/99/297 87/77/298
f 65/99/297 64/98/296 21/50/299 4/57/300
s 3
f 81/51/301 57/100/302 58/102/303 82/52/304
f 58/102/303 57/100/302 25/15/305 6/53/306
s 4
f 80/45/307 82/52/308 58/102/309 56/93/310
f 56/93/310 58/102/309 6/53/311 22/46/312
s 5
f 73/29/313 51/89/314 67/103/315 89/83/316
f 67/103/315 51/89/314 39/27/317 5/81/318
s 6
f 88/82/319 89/83/320 67/103/321 66/104/322
f 66/104/322 67/103/321 5/22/323 32/105/324
s 7
f 88/82/325 66/104/326 68/106/327 90/84/328
f 68/106/327 66/104/326 32/21/329 3/66/330
s 8
f 83/67/331 90/84/332 68/106/333 59/95/334
f 59/95/334 68/106/333 3/66/335 40/33/336
